<svg xmlns="http://www.w3.org/2000/svg" width="1372" height="509" viewBox="0 0 1372 509" font-family="ui-sans-serif, -apple-system, 'Segoe UI', Roboto, sans-serif" role="img" aria-label="Hapoel Petah Tikva, 1929/1930 – 2025/2026">
<style>
  .bg{fill:var(--surface)} .ink{fill:var(--ink)} .ink2{fill:var(--ink2)}
  .ink3{fill:var(--ink3)} .rule{stroke:var(--rule)}
  .area{fill:var(--accent);fill-opacity:.15}
  .line{stroke:var(--accent);stroke-width:1.7;fill:none;stroke-linecap:square}
  .champ{fill:var(--champion)}
  :root{--surface:#FCFCFB;--ink:#1A1D1F;--ink2:#565F63;--ink3:#868F93;--rule:#C9CFD1;--accent:#007C99;--champion:#A06A0A;--hatch:#A9B2B6;--band1:#E9F0F2;--band2:#DBE5E8;--band3:#CBD8DC;--band4:#B9C9CF;--band5:#A7BAC1}
</style>
<defs>
  <pattern id="notplayed" width="7" height="7" patternUnits="userSpaceOnUse" patternTransform="rotate(-45)"><line x1="0" y1="0" x2="0" y2="7" stroke="var(--hatch)" stroke-width="1.4"/></pattern>
  <pattern id="uncovered" width="5" height="5" patternUnits="userSpaceOnUse"><circle cx="1.4" cy="1.4" r="1" fill="var(--hatch)"/></pattern>
</defs>
<rect class="bg" width="1372" height="509"/>
<rect x="104" y="76" width="13" height="70" fill="var(--band1)"/>
<rect x="104" y="146" width="13" height="80" fill="var(--band2)"/>
<rect x="104" y="226" width="13" height="205" fill="var(--band3)"/>
<rect x="117" y="76" width="13" height="70" fill="var(--band1)"/>
<rect x="117" y="146" width="13" height="80" fill="var(--band2)"/>
<rect x="117" y="226" width="13" height="205" fill="var(--band3)"/>
<rect x="130" y="76" width="13" height="45" fill="var(--band1)"/>
<rect x="130" y="121" width="13" height="80" fill="var(--band2)"/>
<rect x="130" y="201" width="13" height="230" fill="var(--band3)"/>
<rect x="143" y="76" width="13" height="70" fill="var(--band1)"/>
<rect x="143" y="146" width="13" height="80" fill="var(--band2)"/>
<rect x="143" y="226" width="13" height="205" fill="var(--band3)"/>
<rect x="156" y="76" width="13" height="45" fill="var(--band1)"/>
<rect x="156" y="121" width="13" height="80" fill="var(--band2)"/>
<rect x="156" y="201" width="13" height="230" fill="var(--band3)"/>
<rect x="169" y="76" width="13" height="50" fill="var(--band1)"/>
<rect x="169" y="126" width="13" height="80" fill="var(--band2)"/>
<rect x="169" y="206" width="13" height="225" fill="var(--band3)"/>
<rect x="182" y="76" width="13" height="30" fill="var(--band1)"/>
<rect x="182" y="106" width="13" height="80" fill="var(--band2)"/>
<rect x="182" y="186" width="13" height="245" fill="var(--band3)"/>
<rect x="195" y="76" width="13" height="25" fill="var(--band1)"/>
<rect x="195" y="101" width="13" height="25" fill="var(--band2)"/>
<rect x="195" y="126" width="13" height="305" fill="var(--band3)"/>
<rect x="208" y="76" width="13" height="45" fill="var(--band1)"/>
<rect x="208" y="121" width="13" height="30" fill="var(--band2)"/>
<rect x="208" y="151" width="13" height="280" fill="var(--band3)"/>
<rect x="221" y="76" width="13" height="60" fill="var(--band1)"/>
<rect x="221" y="136" width="13" height="80" fill="var(--band2)"/>
<rect x="221" y="216" width="13" height="215" fill="var(--band3)"/>
<rect x="234" y="76" width="13" height="40" fill="var(--band1)"/>
<rect x="234" y="116" width="13" height="50" fill="var(--band2)"/>
<rect x="234" y="166" width="13" height="265" fill="var(--band3)"/>
<rect x="247" y="76" width="13" height="70" fill="var(--band1)"/>
<rect x="247" y="146" width="13" height="80" fill="var(--band2)"/>
<rect x="247" y="226" width="13" height="205" fill="var(--band3)"/>
<rect x="260" y="76" width="13" height="70" fill="var(--band1)"/>
<rect x="260" y="146" width="13" height="35" fill="var(--band2)"/>
<rect x="260" y="181" width="13" height="250" fill="var(--band3)"/>
<rect x="273" y="76" width="13" height="70" fill="var(--band1)"/>
<rect x="273" y="146" width="13" height="80" fill="var(--band2)"/>
<rect x="273" y="226" width="13" height="205" fill="var(--band3)"/>
<rect x="286" y="76" width="13" height="70" fill="var(--band1)"/>
<rect x="286" y="146" width="13" height="70" fill="var(--band2)"/>
<rect x="286" y="216" width="13" height="215" fill="var(--band3)"/>
<rect x="299" y="76" width="13" height="40" fill="var(--band1)"/>
<rect x="299" y="116" width="13" height="80" fill="var(--band2)"/>
<rect x="299" y="196" width="13" height="235" fill="var(--band3)"/>
<rect x="312" y="76" width="13" height="70" fill="var(--band1)"/>
<rect x="312" y="146" width="13" height="80" fill="var(--band2)"/>
<rect x="312" y="226" width="13" height="205" fill="var(--band3)"/>
<rect x="325" y="76" width="13" height="75" fill="var(--band1)"/>
<rect x="325" y="151" width="13" height="65" fill="var(--band2)"/>
<rect x="325" y="216" width="13" height="215" fill="var(--band3)"/>
<rect x="338" y="76" width="13" height="70" fill="var(--band1)"/>
<rect x="338" y="146" width="13" height="80" fill="var(--band2)"/>
<rect x="338" y="226" width="13" height="205" fill="var(--band3)"/>
<rect x="351" y="76" width="13" height="70" fill="var(--band1)"/>
<rect x="351" y="146" width="13" height="80" fill="var(--band2)"/>
<rect x="351" y="226" width="13" height="205" fill="var(--band3)"/>
<rect x="364" y="76" width="13" height="65" fill="var(--band1)"/>
<rect x="364" y="141" width="13" height="45" fill="var(--band2)"/>
<rect x="364" y="186" width="13" height="245" fill="var(--band3)"/>
<rect x="377" y="76" width="13" height="70" fill="var(--band1)"/>
<rect x="377" y="146" width="13" height="80" fill="var(--band2)"/>
<rect x="377" y="226" width="13" height="205" fill="var(--band3)"/>
<rect x="390" y="76" width="13" height="60" fill="var(--band1)"/>
<rect x="390" y="136" width="13" height="70" fill="var(--band2)"/>
<rect x="390" y="206" width="13" height="80" fill="var(--band3)"/>
<rect x="390" y="286" width="13" height="145" fill="var(--band4)"/>
<rect x="403" y="76" width="13" height="70" fill="var(--band1)"/>
<rect x="403" y="146" width="13" height="80" fill="var(--band2)"/>
<rect x="403" y="226" width="13" height="80" fill="var(--band3)"/>
<rect x="403" y="306" width="13" height="125" fill="var(--band4)"/>
<rect x="416" y="76" width="13" height="60" fill="var(--band1)"/>
<rect x="416" y="136" width="13" height="70" fill="var(--band2)"/>
<rect x="416" y="206" width="13" height="80" fill="var(--band3)"/>
<rect x="416" y="286" width="13" height="145" fill="var(--band4)"/>
<rect x="429" y="76" width="13" height="70" fill="var(--band1)"/>
<rect x="429" y="146" width="13" height="80" fill="var(--band2)"/>
<rect x="429" y="226" width="13" height="60" fill="var(--band3)"/>
<rect x="429" y="286" width="13" height="70" fill="var(--band4)"/>
<rect x="429" y="356" width="13" height="75" fill="var(--band5)"/>
<rect x="442" y="76" width="13" height="60" fill="var(--band1)"/>
<rect x="442" y="136" width="13" height="60" fill="var(--band2)"/>
<rect x="442" y="196" width="13" height="60" fill="var(--band3)"/>
<rect x="442" y="256" width="13" height="50" fill="var(--band4)"/>
<rect x="442" y="306" width="13" height="125" fill="var(--band5)"/>
<rect x="455" y="76" width="13" height="50" fill="var(--band1)"/>
<rect x="455" y="126" width="13" height="60" fill="var(--band2)"/>
<rect x="455" y="186" width="13" height="65" fill="var(--band3)"/>
<rect x="455" y="251" width="13" height="80" fill="var(--band4)"/>
<rect x="455" y="331" width="13" height="100" fill="var(--band5)"/>
<rect x="468" y="76" width="13" height="60" fill="var(--band1)"/>
<rect x="468" y="136" width="13" height="60" fill="var(--band2)"/>
<rect x="468" y="196" width="13" height="60" fill="var(--band3)"/>
<rect x="468" y="256" width="13" height="80" fill="var(--band4)"/>
<rect x="468" y="336" width="13" height="95" fill="var(--band5)"/>
<rect x="481" y="76" width="13" height="60" fill="var(--band1)"/>
<rect x="481" y="136" width="13" height="60" fill="var(--band2)"/>
<rect x="481" y="196" width="13" height="60" fill="var(--band3)"/>
<rect x="481" y="256" width="13" height="80" fill="var(--band4)"/>
<rect x="481" y="336" width="13" height="95" fill="var(--band5)"/>
<rect x="494" y="76" width="13" height="60" fill="var(--band1)"/>
<rect x="494" y="136" width="13" height="70" fill="var(--band2)"/>
<rect x="494" y="206" width="13" height="80" fill="var(--band3)"/>
<rect x="494" y="286" width="13" height="80" fill="var(--band4)"/>
<rect x="494" y="366" width="13" height="65" fill="var(--band5)"/>
<rect x="507" y="76" width="13" height="60" fill="var(--band1)"/>
<rect x="507" y="136" width="13" height="70" fill="var(--band2)"/>
<rect x="507" y="206" width="13" height="80" fill="var(--band3)"/>
<rect x="507" y="286" width="13" height="80" fill="var(--band4)"/>
<rect x="507" y="366" width="13" height="65" fill="var(--band5)"/>
<rect x="520" y="76" width="13" height="60" fill="var(--band1)"/>
<rect x="520" y="136" width="13" height="70" fill="var(--band2)"/>
<rect x="520" y="206" width="13" height="80" fill="var(--band3)"/>
<rect x="520" y="286" width="13" height="80" fill="var(--band4)"/>
<rect x="520" y="366" width="13" height="65" fill="var(--band5)"/>
<rect x="533" y="76" width="13" height="60" fill="var(--band1)"/>
<rect x="533" y="136" width="13" height="80" fill="var(--band2)"/>
<rect x="533" y="216" width="13" height="80" fill="var(--band3)"/>
<rect x="533" y="296" width="13" height="75" fill="var(--band4)"/>
<rect x="533" y="371" width="13" height="60" fill="var(--band5)"/>
<rect x="546" y="76" width="13" height="75" fill="var(--band1)"/>
<rect x="546" y="151" width="13" height="70" fill="var(--band2)"/>
<rect x="546" y="221" width="13" height="80" fill="var(--band3)"/>
<rect x="546" y="301" width="13" height="65" fill="var(--band4)"/>
<rect x="546" y="366" width="13" height="65" fill="var(--band5)"/>
<rect x="559" y="76" width="13" height="80" fill="var(--band1)"/>
<rect x="559" y="156" width="13" height="80" fill="var(--band2)"/>
<rect x="559" y="236" width="13" height="80" fill="var(--band3)"/>
<rect x="559" y="316" width="13" height="70" fill="var(--band4)"/>
<rect x="559" y="386" width="13" height="45" fill="var(--band5)"/>
<rect x="572" y="76" width="13" height="80" fill="var(--band1)"/>
<rect x="572" y="156" width="13" height="80" fill="var(--band2)"/>
<rect x="572" y="236" width="13" height="80" fill="var(--band3)"/>
<rect x="572" y="316" width="13" height="75" fill="var(--band4)"/>
<rect x="572" y="391" width="13" height="40" fill="var(--band5)"/>
<rect x="585" y="76" width="13" height="80" fill="var(--band1)"/>
<rect x="585" y="156" width="13" height="80" fill="var(--band2)"/>
<rect x="585" y="236" width="13" height="80" fill="var(--band3)"/>
<rect x="585" y="316" width="13" height="70" fill="var(--band4)"/>
<rect x="585" y="386" width="13" height="45" fill="var(--band5)"/>
<rect x="598" y="76" width="13" height="80" fill="var(--band1)"/>
<rect x="598" y="156" width="13" height="80" fill="var(--band2)"/>
<rect x="598" y="236" width="13" height="80" fill="var(--band3)"/>
<rect x="598" y="316" width="13" height="80" fill="var(--band4)"/>
<rect x="598" y="396" width="13" height="35" fill="var(--band5)"/>
<rect x="611" y="76" width="13" height="80" fill="var(--band1)"/>
<rect x="611" y="156" width="13" height="80" fill="var(--band2)"/>
<rect x="611" y="236" width="13" height="80" fill="var(--band3)"/>
<rect x="611" y="316" width="13" height="80" fill="var(--band4)"/>
<rect x="611" y="396" width="13" height="35" fill="var(--band5)"/>
<rect x="624" y="76" width="13" height="80" fill="var(--band1)"/>
<rect x="624" y="156" width="13" height="80" fill="var(--band2)"/>
<rect x="624" y="236" width="13" height="80" fill="var(--band3)"/>
<rect x="624" y="316" width="13" height="80" fill="var(--band4)"/>
<rect x="624" y="396" width="13" height="35" fill="var(--band5)"/>
<rect x="637" y="76" width="13" height="80" fill="var(--band1)"/>
<rect x="637" y="156" width="13" height="80" fill="var(--band2)"/>
<rect x="637" y="236" width="13" height="80" fill="var(--band3)"/>
<rect x="637" y="316" width="13" height="80" fill="var(--band4)"/>
<rect x="637" y="396" width="13" height="35" fill="var(--band5)"/>
<rect x="650" y="76" width="13" height="80" fill="var(--band1)"/>
<rect x="650" y="156" width="13" height="80" fill="var(--band2)"/>
<rect x="650" y="236" width="13" height="80" fill="var(--band3)"/>
<rect x="650" y="316" width="13" height="80" fill="var(--band4)"/>
<rect x="650" y="396" width="13" height="35" fill="var(--band5)"/>
<rect x="663" y="76" width="13" height="80" fill="var(--band1)"/>
<rect x="663" y="156" width="13" height="80" fill="var(--band2)"/>
<rect x="663" y="236" width="13" height="80" fill="var(--band3)"/>
<rect x="663" y="316" width="13" height="80" fill="var(--band4)"/>
<rect x="663" y="396" width="13" height="35" fill="var(--band5)"/>
<rect x="676" y="76" width="13" height="80" fill="var(--band1)"/>
<rect x="676" y="156" width="13" height="80" fill="var(--band2)"/>
<rect x="676" y="236" width="13" height="80" fill="var(--band3)"/>
<rect x="676" y="316" width="13" height="80" fill="var(--band4)"/>
<rect x="676" y="396" width="13" height="35" fill="var(--band5)"/>
<rect x="689" y="76" width="13" height="90" fill="var(--band1)"/>
<rect x="689" y="166" width="13" height="85" fill="var(--band2)"/>
<rect x="689" y="251" width="13" height="75" fill="var(--band3)"/>
<rect x="689" y="326" width="13" height="80" fill="var(--band4)"/>
<rect x="689" y="406" width="13" height="25" fill="var(--band5)"/>
<rect x="702" y="76" width="13" height="80" fill="var(--band1)"/>
<rect x="702" y="156" width="13" height="60" fill="var(--band2)"/>
<rect x="702" y="216" width="13" height="70" fill="var(--band3)"/>
<rect x="702" y="286" width="13" height="70" fill="var(--band4)"/>
<rect x="702" y="356" width="13" height="75" fill="var(--band5)"/>
<rect x="715" y="76" width="13" height="70" fill="var(--band1)"/>
<rect x="715" y="146" width="13" height="70" fill="var(--band2)"/>
<rect x="715" y="216" width="13" height="70" fill="var(--band3)"/>
<rect x="715" y="286" width="13" height="70" fill="var(--band4)"/>
<rect x="715" y="356" width="13" height="75" fill="var(--band5)"/>
<rect x="728" y="76" width="13" height="80" fill="var(--band1)"/>
<rect x="728" y="156" width="13" height="80" fill="var(--band2)"/>
<rect x="728" y="236" width="13" height="80" fill="var(--band3)"/>
<rect x="728" y="316" width="13" height="70" fill="var(--band4)"/>
<rect x="728" y="386" width="13" height="45" fill="var(--band5)"/>
<rect x="741" y="76" width="13" height="80" fill="var(--band1)"/>
<rect x="741" y="156" width="13" height="80" fill="var(--band2)"/>
<rect x="741" y="236" width="13" height="70" fill="var(--band3)"/>
<rect x="741" y="306" width="13" height="70" fill="var(--band4)"/>
<rect x="741" y="376" width="13" height="55" fill="var(--band5)"/>
<rect x="754" y="76" width="13" height="80" fill="var(--band1)"/>
<rect x="754" y="156" width="13" height="80" fill="var(--band2)"/>
<rect x="754" y="236" width="13" height="70" fill="var(--band3)"/>
<rect x="754" y="306" width="13" height="70" fill="var(--band4)"/>
<rect x="754" y="376" width="13" height="55" fill="var(--band5)"/>
<rect x="767" y="76" width="13" height="80" fill="var(--band1)"/>
<rect x="767" y="156" width="13" height="80" fill="var(--band2)"/>
<rect x="767" y="236" width="13" height="70" fill="var(--band3)"/>
<rect x="767" y="306" width="13" height="70" fill="var(--band4)"/>
<rect x="767" y="376" width="13" height="55" fill="var(--band5)"/>
<rect x="780" y="76" width="13" height="80" fill="var(--band1)"/>
<rect x="780" y="156" width="13" height="80" fill="var(--band2)"/>
<rect x="780" y="236" width="13" height="70" fill="var(--band3)"/>
<rect x="780" y="306" width="13" height="70" fill="var(--band4)"/>
<rect x="780" y="376" width="13" height="55" fill="var(--band5)"/>
<rect x="793" y="76" width="13" height="80" fill="var(--band1)"/>
<rect x="793" y="156" width="13" height="80" fill="var(--band2)"/>
<rect x="793" y="236" width="13" height="70" fill="var(--band3)"/>
<rect x="793" y="306" width="13" height="70" fill="var(--band4)"/>
<rect x="793" y="376" width="13" height="55" fill="var(--band5)"/>
<rect x="806" y="76" width="13" height="80" fill="var(--band1)"/>
<rect x="806" y="156" width="13" height="80" fill="var(--band2)"/>
<rect x="806" y="236" width="13" height="70" fill="var(--band3)"/>
<rect x="806" y="306" width="13" height="70" fill="var(--band4)"/>
<rect x="806" y="376" width="13" height="55" fill="var(--band5)"/>
<rect x="819" y="76" width="13" height="80" fill="var(--band1)"/>
<rect x="819" y="156" width="13" height="80" fill="var(--band2)"/>
<rect x="819" y="236" width="13" height="70" fill="var(--band3)"/>
<rect x="819" y="306" width="13" height="70" fill="var(--band4)"/>
<rect x="819" y="376" width="13" height="55" fill="var(--band5)"/>
<rect x="832" y="76" width="13" height="80" fill="var(--band1)"/>
<rect x="832" y="156" width="13" height="80" fill="var(--band2)"/>
<rect x="832" y="236" width="13" height="70" fill="var(--band3)"/>
<rect x="832" y="306" width="13" height="70" fill="var(--band4)"/>
<rect x="832" y="376" width="13" height="55" fill="var(--band5)"/>
<rect x="845" y="76" width="13" height="70" fill="var(--band1)"/>
<rect x="845" y="146" width="13" height="70" fill="var(--band2)"/>
<rect x="845" y="216" width="13" height="80" fill="var(--band3)"/>
<rect x="845" y="296" width="13" height="70" fill="var(--band4)"/>
<rect x="845" y="366" width="13" height="65" fill="var(--band5)"/>
<rect x="858" y="76" width="13" height="70" fill="var(--band1)"/>
<rect x="858" y="146" width="13" height="70" fill="var(--band2)"/>
<rect x="858" y="216" width="13" height="80" fill="var(--band3)"/>
<rect x="858" y="296" width="13" height="70" fill="var(--band4)"/>
<rect x="858" y="366" width="13" height="65" fill="var(--band5)"/>
<rect x="871" y="76" width="13" height="60" fill="var(--band1)"/>
<rect x="871" y="136" width="13" height="80" fill="var(--band2)"/>
<rect x="871" y="216" width="13" height="80" fill="var(--band3)"/>
<rect x="871" y="296" width="13" height="80" fill="var(--band4)"/>
<rect x="871" y="376" width="13" height="55" fill="var(--band5)"/>
<rect x="884" y="76" width="13" height="60" fill="var(--band1)"/>
<rect x="884" y="136" width="13" height="80" fill="var(--band2)"/>
<rect x="884" y="216" width="13" height="80" fill="var(--band3)"/>
<rect x="884" y="296" width="13" height="80" fill="var(--band4)"/>
<rect x="884" y="376" width="13" height="55" fill="var(--band5)"/>
<rect x="897" y="76" width="13" height="60" fill="var(--band1)"/>
<rect x="897" y="136" width="13" height="80" fill="var(--band2)"/>
<rect x="897" y="216" width="13" height="80" fill="var(--band3)"/>
<rect x="897" y="296" width="13" height="80" fill="var(--band4)"/>
<rect x="897" y="376" width="13" height="55" fill="var(--band5)"/>
<rect x="910" y="76" width="13" height="60" fill="var(--band1)"/>
<rect x="910" y="136" width="13" height="80" fill="var(--band2)"/>
<rect x="910" y="216" width="13" height="80" fill="var(--band3)"/>
<rect x="910" y="296" width="13" height="80" fill="var(--band4)"/>
<rect x="910" y="376" width="13" height="55" fill="var(--band5)"/>
<rect x="923" y="76" width="13" height="70" fill="var(--band1)"/>
<rect x="923" y="146" width="13" height="80" fill="var(--band2)"/>
<rect x="923" y="226" width="13" height="80" fill="var(--band3)"/>
<rect x="923" y="306" width="13" height="80" fill="var(--band4)"/>
<rect x="923" y="386" width="13" height="45" fill="var(--band5)"/>
<rect x="936" y="76" width="13" height="80" fill="var(--band1)"/>
<rect x="936" y="156" width="13" height="80" fill="var(--band2)"/>
<rect x="936" y="236" width="13" height="80" fill="var(--band3)"/>
<rect x="936" y="316" width="13" height="80" fill="var(--band4)"/>
<rect x="936" y="396" width="13" height="35" fill="var(--band5)"/>
<rect x="949" y="76" width="13" height="80" fill="var(--band1)"/>
<rect x="949" y="156" width="13" height="80" fill="var(--band2)"/>
<rect x="949" y="236" width="13" height="80" fill="var(--band3)"/>
<rect x="949" y="316" width="13" height="80" fill="var(--band4)"/>
<rect x="949" y="396" width="13" height="35" fill="var(--band5)"/>
<rect x="962" y="76" width="13" height="80" fill="var(--band1)"/>
<rect x="962" y="156" width="13" height="80" fill="var(--band2)"/>
<rect x="962" y="236" width="13" height="80" fill="var(--band3)"/>
<rect x="962" y="316" width="13" height="80" fill="var(--band4)"/>
<rect x="962" y="396" width="13" height="35" fill="var(--band5)"/>
<rect x="975" y="76" width="13" height="80" fill="var(--band1)"/>
<rect x="975" y="156" width="13" height="80" fill="var(--band2)"/>
<rect x="975" y="236" width="13" height="80" fill="var(--band3)"/>
<rect x="975" y="316" width="13" height="80" fill="var(--band4)"/>
<rect x="975" y="396" width="13" height="35" fill="var(--band5)"/>
<rect x="988" y="76" width="13" height="80" fill="var(--band1)"/>
<rect x="988" y="156" width="13" height="80" fill="var(--band2)"/>
<rect x="988" y="236" width="13" height="80" fill="var(--band3)"/>
<rect x="988" y="316" width="13" height="80" fill="var(--band4)"/>
<rect x="988" y="396" width="13" height="35" fill="var(--band5)"/>
<rect x="1001" y="76" width="13" height="70" fill="var(--band1)"/>
<rect x="1001" y="146" width="13" height="50" fill="var(--band2)"/>
<rect x="1001" y="196" width="13" height="60" fill="var(--band3)"/>
<rect x="1001" y="256" width="13" height="70" fill="var(--band4)"/>
<rect x="1001" y="326" width="13" height="105" fill="var(--band5)"/>
<rect x="1014" y="76" width="13" height="60" fill="var(--band1)"/>
<rect x="1014" y="136" width="13" height="60" fill="var(--band2)"/>
<rect x="1014" y="196" width="13" height="60" fill="var(--band3)"/>
<rect x="1014" y="256" width="13" height="75" fill="var(--band4)"/>
<rect x="1014" y="331" width="13" height="100" fill="var(--band5)"/>
<rect x="1027" y="76" width="13" height="60" fill="var(--band1)"/>
<rect x="1027" y="136" width="13" height="60" fill="var(--band2)"/>
<rect x="1027" y="196" width="13" height="60" fill="var(--band3)"/>
<rect x="1027" y="256" width="13" height="75" fill="var(--band4)"/>
<rect x="1027" y="331" width="13" height="100" fill="var(--band5)"/>
<rect x="1040" y="76" width="13" height="60" fill="var(--band1)"/>
<rect x="1040" y="136" width="13" height="60" fill="var(--band2)"/>
<rect x="1040" y="196" width="13" height="60" fill="var(--band3)"/>
<rect x="1040" y="256" width="13" height="70" fill="var(--band4)"/>
<rect x="1040" y="326" width="13" height="105" fill="var(--band5)"/>
<rect x="1053" y="76" width="13" height="60" fill="var(--band1)"/>
<rect x="1053" y="136" width="13" height="60" fill="var(--band2)"/>
<rect x="1053" y="196" width="13" height="60" fill="var(--band3)"/>
<rect x="1053" y="256" width="13" height="70" fill="var(--band4)"/>
<rect x="1053" y="326" width="13" height="105" fill="var(--band5)"/>
<rect x="1066" y="76" width="13" height="60" fill="var(--band1)"/>
<rect x="1066" y="136" width="13" height="60" fill="var(--band2)"/>
<rect x="1066" y="196" width="13" height="60" fill="var(--band3)"/>
<rect x="1066" y="256" width="13" height="70" fill="var(--band4)"/>
<rect x="1066" y="326" width="13" height="105" fill="var(--band5)"/>
<rect x="1079" y="76" width="13" height="60" fill="var(--band1)"/>
<rect x="1079" y="136" width="13" height="60" fill="var(--band2)"/>
<rect x="1079" y="196" width="13" height="60" fill="var(--band3)"/>
<rect x="1079" y="256" width="13" height="70" fill="var(--band4)"/>
<rect x="1079" y="326" width="13" height="105" fill="var(--band5)"/>
<rect x="1092" y="76" width="13" height="60" fill="var(--band1)"/>
<rect x="1092" y="136" width="13" height="60" fill="var(--band2)"/>
<rect x="1092" y="196" width="13" height="60" fill="var(--band3)"/>
<rect x="1092" y="256" width="13" height="70" fill="var(--band4)"/>
<rect x="1092" y="326" width="13" height="105" fill="var(--band5)"/>
<rect x="1105" y="76" width="13" height="60" fill="var(--band1)"/>
<rect x="1105" y="136" width="13" height="60" fill="var(--band2)"/>
<rect x="1105" y="196" width="13" height="60" fill="var(--band3)"/>
<rect x="1105" y="256" width="13" height="70" fill="var(--band4)"/>
<rect x="1105" y="326" width="13" height="105" fill="var(--band5)"/>
<rect x="1118" y="76" width="13" height="60" fill="var(--band1)"/>
<rect x="1118" y="136" width="13" height="60" fill="var(--band2)"/>
<rect x="1118" y="196" width="13" height="60" fill="var(--band3)"/>
<rect x="1118" y="256" width="13" height="70" fill="var(--band4)"/>
<rect x="1118" y="326" width="13" height="105" fill="var(--band5)"/>
<rect x="1131" y="76" width="13" height="80" fill="var(--band1)"/>
<rect x="1131" y="156" width="13" height="80" fill="var(--band2)"/>
<rect x="1131" y="236" width="13" height="80" fill="var(--band3)"/>
<rect x="1131" y="316" width="13" height="80" fill="var(--band4)"/>
<rect x="1131" y="396" width="13" height="35" fill="var(--band5)"/>
<rect x="1144" y="76" width="13" height="80" fill="var(--band1)"/>
<rect x="1144" y="156" width="13" height="80" fill="var(--band2)"/>
<rect x="1144" y="236" width="13" height="80" fill="var(--band3)"/>
<rect x="1144" y="316" width="13" height="80" fill="var(--band4)"/>
<rect x="1144" y="396" width="13" height="35" fill="var(--band5)"/>
<rect x="1157" y="76" width="13" height="80" fill="var(--band1)"/>
<rect x="1157" y="156" width="13" height="80" fill="var(--band2)"/>
<rect x="1157" y="236" width="13" height="80" fill="var(--band3)"/>
<rect x="1157" y="316" width="13" height="80" fill="var(--band4)"/>
<rect x="1157" y="396" width="13" height="35" fill="var(--band5)"/>
<rect x="1170" y="76" width="13" height="70" fill="var(--band1)"/>
<rect x="1170" y="146" width="13" height="80" fill="var(--band2)"/>
<rect x="1170" y="226" width="13" height="80" fill="var(--band3)"/>
<rect x="1170" y="306" width="13" height="80" fill="var(--band4)"/>
<rect x="1170" y="386" width="13" height="45" fill="var(--band5)"/>
<rect x="1183" y="76" width="13" height="70" fill="var(--band1)"/>
<rect x="1183" y="146" width="13" height="80" fill="var(--band2)"/>
<rect x="1183" y="226" width="13" height="80" fill="var(--band3)"/>
<rect x="1183" y="306" width="13" height="80" fill="var(--band4)"/>
<rect x="1183" y="386" width="13" height="45" fill="var(--band5)"/>
<rect x="1196" y="76" width="13" height="70" fill="var(--band1)"/>
<rect x="1196" y="146" width="13" height="80" fill="var(--band2)"/>
<rect x="1196" y="226" width="13" height="80" fill="var(--band3)"/>
<rect x="1196" y="306" width="13" height="80" fill="var(--band4)"/>
<rect x="1196" y="386" width="13" height="45" fill="var(--band5)"/>
<rect x="1209" y="76" width="13" height="70" fill="var(--band1)"/>
<rect x="1209" y="146" width="13" height="80" fill="var(--band2)"/>
<rect x="1209" y="226" width="13" height="80" fill="var(--band3)"/>
<rect x="1209" y="306" width="13" height="80" fill="var(--band4)"/>
<rect x="1209" y="386" width="13" height="45" fill="var(--band5)"/>
<rect x="1222" y="76" width="13" height="70" fill="var(--band1)"/>
<rect x="1222" y="146" width="13" height="80" fill="var(--band2)"/>
<rect x="1222" y="226" width="13" height="80" fill="var(--band3)"/>
<rect x="1222" y="306" width="13" height="80" fill="var(--band4)"/>
<rect x="1222" y="386" width="13" height="45" fill="var(--band5)"/>
<rect x="1235" y="76" width="13" height="70" fill="var(--band1)"/>
<rect x="1235" y="146" width="13" height="80" fill="var(--band2)"/>
<rect x="1235" y="226" width="13" height="80" fill="var(--band3)"/>
<rect x="1235" y="306" width="13" height="80" fill="var(--band4)"/>
<rect x="1235" y="386" width="13" height="45" fill="var(--band5)"/>
<rect x="1248" y="76" width="13" height="70" fill="var(--band1)"/>
<rect x="1248" y="146" width="13" height="80" fill="var(--band2)"/>
<rect x="1248" y="226" width="13" height="80" fill="var(--band3)"/>
<rect x="1248" y="306" width="13" height="80" fill="var(--band4)"/>
<rect x="1248" y="386" width="13" height="45" fill="var(--band5)"/>
<rect x="1261" y="76" width="13" height="70" fill="var(--band1)"/>
<rect x="1261" y="146" width="13" height="80" fill="var(--band2)"/>
<rect x="1261" y="226" width="13" height="80" fill="var(--band3)"/>
<rect x="1261" y="306" width="13" height="80" fill="var(--band4)"/>
<rect x="1261" y="386" width="13" height="45" fill="var(--band5)"/>
<rect x="1274" y="76" width="13" height="70" fill="var(--band1)"/>
<rect x="1274" y="146" width="13" height="80" fill="var(--band2)"/>
<rect x="1274" y="226" width="13" height="45" fill="var(--band3)"/>
<rect x="1274" y="271" width="13" height="45" fill="var(--band4)"/>
<rect x="1274" y="316" width="13" height="115" fill="var(--band5)"/>
<rect x="1287" y="76" width="13" height="70" fill="var(--band1)"/>
<rect x="1287" y="146" width="13" height="80" fill="var(--band2)"/>
<rect x="1287" y="226" width="13" height="80" fill="var(--band3)"/>
<rect x="1287" y="306" width="13" height="80" fill="var(--band4)"/>
<rect x="1287" y="386" width="13" height="45" fill="var(--band5)"/>
<rect x="1300" y="76" width="13" height="70" fill="var(--band1)"/>
<rect x="1300" y="146" width="13" height="80" fill="var(--band2)"/>
<rect x="1300" y="226" width="13" height="80" fill="var(--band3)"/>
<rect x="1300" y="306" width="13" height="80" fill="var(--band4)"/>
<rect x="1300" y="386" width="13" height="45" fill="var(--band5)"/>
<rect x="1313" y="76" width="13" height="70" fill="var(--band1)"/>
<rect x="1313" y="146" width="13" height="80" fill="var(--band2)"/>
<rect x="1313" y="226" width="13" height="80" fill="var(--band3)"/>
<rect x="1313" y="306" width="13" height="80" fill="var(--band4)"/>
<rect x="1313" y="386" width="13" height="45" fill="var(--band5)"/>
<rect x="1326" y="76" width="13" height="70" fill="var(--band1)"/>
<rect x="1326" y="146" width="13" height="80" fill="var(--band2)"/>
<rect x="1326" y="226" width="13" height="80" fill="var(--band3)"/>
<rect x="1326" y="306" width="13" height="80" fill="var(--band4)"/>
<rect x="1326" y="386" width="13" height="45" fill="var(--band5)"/>
<rect x="1339" y="76" width="13" height="70" fill="var(--band1)"/>
<rect x="1339" y="146" width="13" height="80" fill="var(--band2)"/>
<rect x="1339" y="226" width="13" height="80" fill="var(--band3)"/>
<rect x="1339" y="306" width="13" height="80" fill="var(--band4)"/>
<rect x="1339" y="386" width="13" height="45" fill="var(--band5)"/>
<rect x="104" y="76" width="13" height="355" fill="url(#notplayed)" fill-opacity=".8"/>
<rect x="117" y="76" width="13" height="355" fill="url(#notplayed)" fill-opacity=".8"/>
<rect x="143" y="76" width="13" height="355" fill="url(#notplayed)" fill-opacity=".8"/>
<rect class="area" x="169" y="81" width="13" height="350"/>
<rect x="182" y="186" width="13" height="245" fill="url(#uncovered)"/>
<rect x="195" y="126" width="13" height="305" fill="url(#uncovered)"/>
<rect x="208" y="151" width="13" height="280" fill="url(#uncovered)"/>
<rect class="area" x="221" y="91" width="13" height="340" fill-opacity=".07"/>
<rect class="area" x="234" y="131" width="13" height="300" fill-opacity=".07"/>
<rect x="247" y="76" width="13" height="355" fill="url(#notplayed)" fill-opacity=".8"/>
<rect class="area" x="260" y="101" width="13" height="330" fill-opacity=".07"/>
<rect x="273" y="76" width="13" height="355" fill="url(#notplayed)" fill-opacity=".8"/>
<rect class="area" x="286" y="96" width="13" height="335"/>
<rect class="area" x="299" y="96" width="13" height="335" fill-opacity=".07"/>
<rect x="312" y="76" width="13" height="355" fill="url(#notplayed)" fill-opacity=".8"/>
<rect class="area" x="325" y="96" width="13" height="335"/>
<rect x="338" y="76" width="13" height="355" fill="url(#notplayed)" fill-opacity=".8"/>
<rect x="351" y="76" width="13" height="355" fill="url(#notplayed)" fill-opacity=".8"/>
<rect class="area" x="364" y="91" width="13" height="340"/>
<rect x="377" y="76" width="13" height="355" fill="url(#notplayed)" fill-opacity=".8"/>
<rect class="area" x="390" y="91" width="13" height="340"/>
<rect x="403" y="76" width="13" height="355" fill="url(#notplayed)" fill-opacity=".8"/>
<rect class="area" x="416" y="86" width="13" height="345"/>
<rect class="area" x="429" y="76" width="13" height="355"/>
<rect class="area" x="442" y="81" width="13" height="350"/>
<rect class="area" x="455" y="81" width="13" height="350"/>
<rect class="area" x="468" y="81" width="13" height="350"/>
<rect class="area" x="481" y="76" width="13" height="355"/>
<rect class="area" x="494" y="76" width="13" height="355"/>
<rect class="area" x="507" y="76" width="13" height="355"/>
<rect class="area" x="520" y="76" width="13" height="355"/>
<rect class="area" x="533" y="76" width="13" height="355"/>
<rect class="area" x="546" y="86" width="13" height="345"/>
<rect class="area" x="559" y="81" width="13" height="350"/>
<rect class="area" x="572" y="86" width="13" height="345"/>
<rect class="area" x="585" y="81" width="13" height="350"/>
<rect class="area" x="598" y="116" width="13" height="315"/>
<rect class="area" x="611" y="106" width="13" height="325"/>
<rect class="area" x="624" y="91" width="13" height="340"/>
<rect class="area" x="637" y="126" width="13" height="305"/>
<rect class="area" x="650" y="131" width="13" height="300"/>
<rect class="area" x="663" y="91" width="13" height="340"/>
<rect class="area" x="676" y="116" width="13" height="315"/>
<rect class="area" x="689" y="146" width="13" height="285"/>
<rect class="area" x="702" y="176" width="13" height="255"/>
<rect class="area" x="715" y="166" width="13" height="265"/>
<rect class="area" x="728" y="166" width="13" height="265"/>
<rect class="area" x="741" y="116" width="13" height="315"/>
<rect class="area" x="754" y="131" width="13" height="300"/>
<rect class="area" x="767" y="151" width="13" height="280"/>
<rect class="area" x="780" y="181" width="13" height="250"/>
<rect class="area" x="793" y="166" width="13" height="265"/>
<rect class="area" x="806" y="101" width="13" height="330"/>
<rect class="area" x="819" y="136" width="13" height="295"/>
<rect class="area" x="832" y="121" width="13" height="310"/>
<rect class="area" x="845" y="96" width="13" height="335"/>
<rect class="area" x="858" y="81" width="13" height="350"/>
<rect class="area" x="871" y="81" width="13" height="350"/>
<rect class="area" x="884" y="81" width="13" height="350"/>
<rect class="area" x="897" y="91" width="13" height="340"/>
<rect class="area" x="910" y="126" width="13" height="305"/>
<rect class="area" x="923" y="106" width="13" height="325"/>
<rect class="area" x="936" y="96" width="13" height="335"/>
<rect class="area" x="949" y="111" width="13" height="320"/>
<rect class="area" x="962" y="81" width="13" height="350"/>
<rect class="area" x="975" y="96" width="13" height="335"/>
<rect class="area" x="988" y="101" width="13" height="330"/>
<rect class="area" x="1001" y="86" width="13" height="345"/>
<rect class="area" x="1014" y="101" width="13" height="330"/>
<rect class="area" x="1027" y="101" width="13" height="330"/>
<rect class="area" x="1040" y="111" width="13" height="320"/>
<rect class="area" x="1053" y="111" width="13" height="320"/>
<rect class="area" x="1066" y="106" width="13" height="325"/>
<rect class="area" x="1079" y="116" width="13" height="315"/>
<rect class="area" x="1092" y="131" width="13" height="300"/>
<rect class="area" x="1105" y="141" width="13" height="290"/>
<rect class="area" x="1118" y="121" width="13" height="310"/>
<rect class="area" x="1131" y="136" width="13" height="295"/>
<rect class="area" x="1144" y="141" width="13" height="290"/>
<rect class="area" x="1157" y="151" width="13" height="280"/>
<rect class="area" x="1170" y="166" width="13" height="265"/>
<rect class="area" x="1183" y="151" width="13" height="280"/>
<rect class="area" x="1196" y="136" width="13" height="295"/>
<rect class="area" x="1209" y="171" width="13" height="260"/>
<rect class="area" x="1222" y="171" width="13" height="260"/>
<rect class="area" x="1235" y="186" width="13" height="245"/>
<rect class="area" x="1248" y="191" width="13" height="240"/>
<rect class="area" x="1261" y="191" width="13" height="240"/>
<rect class="area" x="1274" y="216" width="13" height="215"/>
<rect class="area" x="1287" y="166" width="13" height="265"/>
<rect class="area" x="1300" y="151" width="13" height="280"/>
<rect class="area" x="1313" y="141" width="13" height="290"/>
<rect class="area" x="1326" y="151" width="13" height="280"/>
<rect class="area" x="1339" y="101" width="13" height="330"/>
<path class="line" d="M169 81h13"/>
<path class="line" d="M221 91h13" stroke-dasharray="3 2"/>
<path class="line" d="M234 91V131"/>
<path class="line" d="M234 131h13" stroke-dasharray="3 2"/>
<path class="line" d="M260 101h13" stroke-dasharray="3 2"/>
<path class="line" d="M286 96h13"/>
<path class="line" d="M299 96h13" stroke-dasharray="3 2"/>
<path class="line" d="M325 96h13"/>
<path class="line" d="M364 91h13"/>
<path class="line" d="M390 91h13"/>
<path class="line" d="M416 86h13"/>
<path class="line" d="M429 86V76"/>
<path class="line" d="M429 76h13"/>
<path class="line" d="M442 76V81"/>
<path class="line" d="M442 81h13"/>
<path class="line" d="M455 81h13"/>
<path class="line" d="M468 81h13"/>
<path class="line" d="M481 81V76"/>
<path class="line" d="M481 76h13"/>
<path class="line" d="M494 76h13"/>
<path class="line" d="M507 76h13"/>
<path class="line" d="M520 76h13"/>
<path class="line" d="M533 76h13"/>
<path class="line" d="M546 76V86"/>
<path class="line" d="M546 86h13"/>
<path class="line" d="M559 86V81"/>
<path class="line" d="M559 81h13"/>
<path class="line" d="M572 81V86"/>
<path class="line" d="M572 86h13"/>
<path class="line" d="M585 86V81"/>
<path class="line" d="M585 81h13"/>
<path class="line" d="M598 81V116"/>
<path class="line" d="M598 116h13"/>
<path class="line" d="M611 116V106"/>
<path class="line" d="M611 106h13"/>
<path class="line" d="M624 106V91"/>
<path class="line" d="M624 91h13"/>
<path class="line" d="M637 91V126"/>
<path class="line" d="M637 126h13"/>
<path class="line" d="M650 126V131"/>
<path class="line" d="M650 131h13"/>
<path class="line" d="M663 131V91"/>
<path class="line" d="M663 91h13"/>
<path class="line" d="M676 91V116"/>
<path class="line" d="M676 116h13"/>
<path class="line" d="M689 116V146"/>
<path class="line" d="M689 146h13"/>
<path class="line" d="M702 146V176"/>
<path class="line" d="M702 176h13"/>
<path class="line" d="M715 176V166"/>
<path class="line" d="M715 166h13"/>
<path class="line" d="M728 166h13"/>
<path class="line" d="M741 166V116"/>
<path class="line" d="M741 116h13"/>
<path class="line" d="M754 116V131"/>
<path class="line" d="M754 131h13"/>
<path class="line" d="M767 131V151"/>
<path class="line" d="M767 151h13"/>
<path class="line" d="M780 151V181"/>
<path class="line" d="M780 181h13"/>
<path class="line" d="M793 181V166"/>
<path class="line" d="M793 166h13"/>
<path class="line" d="M806 166V101"/>
<path class="line" d="M806 101h13"/>
<path class="line" d="M819 101V136"/>
<path class="line" d="M819 136h13"/>
<path class="line" d="M832 136V121"/>
<path class="line" d="M832 121h13"/>
<path class="line" d="M845 121V96"/>
<path class="line" d="M845 96h13"/>
<path class="line" d="M858 96V81"/>
<path class="line" d="M858 81h13"/>
<path class="line" d="M871 81h13"/>
<path class="line" d="M884 81h13"/>
<path class="line" d="M897 81V91"/>
<path class="line" d="M897 91h13"/>
<path class="line" d="M910 91V126"/>
<path class="line" d="M910 126h13"/>
<path class="line" d="M923 126V106"/>
<path class="line" d="M923 106h13"/>
<path class="line" d="M936 106V96"/>
<path class="line" d="M936 96h13"/>
<path class="line" d="M949 96V111"/>
<path class="line" d="M949 111h13"/>
<path class="line" d="M962 111V81"/>
<path class="line" d="M962 81h13"/>
<path class="line" d="M975 81V96"/>
<path class="line" d="M975 96h13"/>
<path class="line" d="M988 96V101"/>
<path class="line" d="M988 101h13"/>
<path class="line" d="M1001 101V86"/>
<path class="line" d="M1001 86h13"/>
<path class="line" d="M1014 86V101"/>
<path class="line" d="M1014 101h13"/>
<path class="line" d="M1027 101h13"/>
<path class="line" d="M1040 101V111"/>
<path class="line" d="M1040 111h13"/>
<path class="line" d="M1053 111h13"/>
<path class="line" d="M1066 111V106"/>
<path class="line" d="M1066 106h13"/>
<path class="line" d="M1079 106V116"/>
<path class="line" d="M1079 116h13"/>
<path class="line" d="M1092 116V131"/>
<path class="line" d="M1092 131h13"/>
<path class="line" d="M1105 131V141"/>
<path class="line" d="M1105 141h13"/>
<path class="line" d="M1118 141V121"/>
<path class="line" d="M1118 121h13"/>
<path class="line" d="M1131 121V136"/>
<path class="line" d="M1131 136h13"/>
<path class="line" d="M1144 136V141"/>
<path class="line" d="M1144 141h13"/>
<path class="line" d="M1157 141V151"/>
<path class="line" d="M1157 151h13"/>
<path class="line" d="M1170 151V166"/>
<path class="line" d="M1170 166h13"/>
<path class="line" d="M1183 166V151"/>
<path class="line" d="M1183 151h13"/>
<path class="line" d="M1196 151V136"/>
<path class="line" d="M1196 136h13"/>
<path class="line" d="M1209 136V171"/>
<path class="line" d="M1209 171h13"/>
<path class="line" d="M1222 171h13"/>
<path class="line" d="M1235 171V186"/>
<path class="line" d="M1235 186h13"/>
<path class="line" d="M1248 186V191"/>
<path class="line" d="M1248 191h13"/>
<path class="line" d="M1261 191h13"/>
<path class="line" d="M1274 191V216"/>
<path class="line" d="M1274 216h13"/>
<path class="line" d="M1287 216V166"/>
<path class="line" d="M1287 166h13"/>
<path class="line" d="M1300 166V151"/>
<path class="line" d="M1300 151h13"/>
<path class="line" d="M1313 151V141"/>
<path class="line" d="M1313 141h13"/>
<path class="line" d="M1326 141V151"/>
<path class="line" d="M1326 151h13"/>
<path class="line" d="M1339 151V101"/>
<path class="line" d="M1339 101h13"/>
<path class="champ" d="M435.5 68.4l3.8 3.6-3.8 3.6-3.8-3.6z"/>
<path class="champ" d="M487.5 68.4l3.8 3.6-3.8 3.6-3.8-3.6z"/>
<path class="champ" d="M500.5 68.4l3.8 3.6-3.8 3.6-3.8-3.6z"/>
<path class="champ" d="M513.5 68.4l3.8 3.6-3.8 3.6-3.8-3.6z"/>
<path class="champ" d="M526.5 68.4l3.8 3.6-3.8 3.6-3.8-3.6z"/>
<path class="champ" d="M539.5 68.4l3.8 3.6-3.8 3.6-3.8-3.6z"/>
<text class="ink2" x="93" y="114.0" text-anchor="end" font-size="10.5" font-weight="600" letter-spacing=".05em">TIER 1</text>
<text class="ink2" x="93" y="189.0" text-anchor="end" font-size="10.5" font-weight="600" letter-spacing=".05em">TIER 2</text>
<text class="ink2" x="93" y="269.0" text-anchor="end" font-size="10.5" font-weight="600" letter-spacing=".05em">TIER 3</text>
<text class="ink2" x="93" y="349.0" text-anchor="end" font-size="10.5" font-weight="600" letter-spacing=".05em">TIER 4</text>
<text class="ink3" x="93" y="401.5" text-anchor="end" font-size="10.5" letter-spacing=".05em">TIER 5+</text>
<path class="rule" d="M104 431.5h1248" fill="none"/>
<path class="rule" d="M104 431v5" fill="none"/>
<text class="ink3" x="104" y="448" text-anchor="start" font-size="10.5">29/30</text>
<path class="rule" d="M240.5 431v5" fill="none"/>
<text class="ink3" x="240.5" y="448" text-anchor="middle" font-size="10.5">1940</text>
<path class="rule" d="M383.5 431v5" fill="none"/>
<text class="ink3" x="383.5" y="448" text-anchor="middle" font-size="10.5">1950</text>
<path class="rule" d="M513.5 431v5" fill="none"/>
<text class="ink3" x="513.5" y="448" text-anchor="middle" font-size="10.5">1960</text>
<path class="rule" d="M630.5 431v5" fill="none"/>
<text class="ink3" x="630.5" y="448" text-anchor="middle" font-size="10.5">1970</text>
<path class="rule" d="M760.5 431v5" fill="none"/>
<text class="ink3" x="760.5" y="448" text-anchor="middle" font-size="10.5">1980</text>
<path class="rule" d="M890.5 431v5" fill="none"/>
<text class="ink3" x="890.5" y="448" text-anchor="middle" font-size="10.5">1990</text>
<path class="rule" d="M1020.5 431v5" fill="none"/>
<text class="ink3" x="1020.5" y="448" text-anchor="middle" font-size="10.5">2000</text>
<path class="rule" d="M1150.5 431v5" fill="none"/>
<text class="ink3" x="1150.5" y="448" text-anchor="middle" font-size="10.5">2010</text>
<path class="rule" d="M1280.5 431v5" fill="none"/>
<text class="ink3" x="1280.5" y="448" text-anchor="middle" font-size="10.5">2020</text>
<path class="rule" d="M1352 431v5" fill="none"/>
<text class="ink3" x="1352" y="448" text-anchor="end" font-size="10.5">25/26</text>
<text class="ink" x="104" y="33" text-anchor="start" font-size="19" font-weight="600" letter-spacing="-.01em">Hapoel Petah Tikva</text>
<text class="ink2" x="104" y="54" text-anchor="start" font-size="11.5">63 of 86 seasons in the top flight · 6 championships</text>
<text class="ink3" x="1352" y="33" text-anchor="end" font-size="9.5" letter-spacing=".08em">LEAGUE POSITION BY SEASON</text>
<path class="line" d="M104 471.5h16"/><rect class="area" x="104" y="471.5" width="16" height="8"/>
<text class="ink2" x="126" y="475" text-anchor="start" font-size="10.5">Final league position</text>
<path class="champ" d="M361.6 467l4 4-4 4-4-4z"/>
<text class="ink2" x="375.6" y="475" text-anchor="start" font-size="10.5">Champions</text>
<path class="line" d="M603.2 471.5h16" stroke-dasharray="3 2"/>
<text class="ink2" x="625.2" y="475" text-anchor="start" font-size="10.5">Rank in a regional group, not national</text>
<rect x="852.8000000000001" y="466" width="16" height="11" fill="url(#uncovered)"/>
<text class="ink2" x="874.8000000000001" y="475" text-anchor="start" font-size="10.5">No position recorded</text>
<rect x="1102.4" y="466" width="16" height="11" fill="url(#notplayed)" fill-opacity=".8"/>
<text class="ink2" x="1124.4" y="475" text-anchor="start" font-size="10.5">Season not played</text>
</svg>
