<svg xmlns="http://www.w3.org/2000/svg" width="1364" height="630" viewBox="0 0 1364 630" font-family="ui-sans-serif, -apple-system, 'Segoe UI', Roboto, sans-serif" role="img" aria-label="הפועל חולון, 1929/1930 – 2025/2026">
<style>
  .bg{fill:var(--surface)} .ink{fill:var(--ink)} .ink2{fill:var(--ink2)}
  .ink3{fill:var(--ink3)} .rule{stroke:var(--rule)}
  .line{stroke:var(--accent);stroke-width:2.6;fill:none;stroke-linecap:round;stroke-linejoin:round}
  .champ{fill:var(--champion)}
  :root{--surface:#FCFCFB;--ink:#1A1D1F;--ink2:#565F63;--ink3:#868F93;--rule:#C9CFD1;--accent:#998A0A;--champion:#A06A0A;--hatch:#A9B2B6;--band1:#E9F0F2;--band2:#DBE5E8;--band3:#CBD8DC;--band4:#B9C9CF;--band5:#A7BAC1}
</style>
<defs>
  <pattern id="notplayed" width="7" height="7" patternUnits="userSpaceOnUse" patternTransform="rotate(-45)"><line x1="0" y1="0" x2="0" y2="7" stroke="var(--hatch)" stroke-width="1.4"/></pattern>
  <pattern id="uncovered" width="5" height="5" patternUnits="userSpaceOnUse"><circle cx="1.4" cy="1.4" r="1" fill="var(--hatch)"/></pattern>
  <pattern id="notier" width="4" height="4" patternUnits="userSpaceOnUse"><rect width="4" height="4" fill="var(--surface)"/></pattern>
</defs>
<rect class="bg" width="1364" height="630"/>
<rect x="96" y="76" width="13" height="98" fill="var(--band1)"/>
<rect x="96" y="174" width="13" height="112" fill="var(--band2)"/>
<rect x="96" y="286" width="13" height="266" fill="url(#notier)"/>
<rect x="109" y="76" width="13" height="98" fill="var(--band1)"/>
<rect x="109" y="174" width="13" height="112" fill="var(--band2)"/>
<rect x="109" y="286" width="13" height="266" fill="url(#notier)"/>
<rect x="122" y="76" width="13" height="63" fill="var(--band1)"/>
<rect x="122" y="139" width="13" height="112" fill="var(--band2)"/>
<rect x="122" y="251" width="13" height="301" fill="url(#notier)"/>
<rect x="135" y="76" width="13" height="98" fill="var(--band1)"/>
<rect x="135" y="174" width="13" height="112" fill="var(--band2)"/>
<rect x="135" y="286" width="13" height="266" fill="url(#notier)"/>
<rect x="148" y="76" width="13" height="63" fill="var(--band1)"/>
<rect x="148" y="139" width="13" height="112" fill="var(--band2)"/>
<rect x="148" y="251" width="13" height="301" fill="url(#notier)"/>
<rect x="161" y="76" width="13" height="70" fill="var(--band1)"/>
<rect x="161" y="146" width="13" height="112" fill="var(--band2)"/>
<rect x="161" y="258" width="13" height="294" fill="url(#notier)"/>
<rect x="174" y="76" width="13" height="42" fill="var(--band1)"/>
<rect x="174" y="118" width="13" height="112" fill="var(--band2)"/>
<rect x="174" y="230" width="13" height="322" fill="url(#notier)"/>
<rect x="187" y="76" width="13" height="35" fill="var(--band1)"/>
<rect x="187" y="111" width="13" height="35" fill="var(--band2)"/>
<rect x="187" y="146" width="13" height="406" fill="url(#notier)"/>
<rect x="200" y="76" width="13" height="63" fill="var(--band1)"/>
<rect x="200" y="139" width="13" height="42" fill="var(--band2)"/>
<rect x="200" y="181" width="13" height="371" fill="url(#notier)"/>
<rect x="213" y="76" width="13" height="84" fill="var(--band1)"/>
<rect x="213" y="160" width="13" height="112" fill="var(--band2)"/>
<rect x="213" y="272" width="13" height="280" fill="url(#notier)"/>
<rect x="226" y="76" width="13" height="56" fill="var(--band1)"/>
<rect x="226" y="132" width="13" height="70" fill="var(--band2)"/>
<rect x="226" y="202" width="13" height="350" fill="url(#notier)"/>
<rect x="239" y="76" width="13" height="98" fill="var(--band1)"/>
<rect x="239" y="174" width="13" height="112" fill="var(--band2)"/>
<rect x="239" y="286" width="13" height="266" fill="url(#notier)"/>
<rect x="252" y="76" width="13" height="98" fill="var(--band1)"/>
<rect x="252" y="174" width="13" height="49" fill="var(--band2)"/>
<rect x="252" y="223" width="13" height="329" fill="url(#notier)"/>
<rect x="265" y="76" width="13" height="98" fill="var(--band1)"/>
<rect x="265" y="174" width="13" height="112" fill="var(--band2)"/>
<rect x="265" y="286" width="13" height="266" fill="url(#notier)"/>
<rect x="278" y="76" width="13" height="98" fill="var(--band1)"/>
<rect x="278" y="174" width="13" height="98" fill="var(--band2)"/>
<rect x="278" y="272" width="13" height="280" fill="url(#notier)"/>
<rect x="291" y="76" width="13" height="56" fill="var(--band1)"/>
<rect x="291" y="132" width="13" height="112" fill="var(--band2)"/>
<rect x="291" y="244" width="13" height="308" fill="url(#notier)"/>
<rect x="304" y="76" width="13" height="98" fill="var(--band1)"/>
<rect x="304" y="174" width="13" height="112" fill="var(--band2)"/>
<rect x="304" y="286" width="13" height="266" fill="url(#notier)"/>
<rect x="317" y="76" width="13" height="105" fill="var(--band1)"/>
<rect x="317" y="181" width="13" height="91" fill="var(--band2)"/>
<rect x="317" y="272" width="13" height="280" fill="url(#notier)"/>
<rect x="330" y="76" width="13" height="98" fill="var(--band1)"/>
<rect x="330" y="174" width="13" height="112" fill="var(--band2)"/>
<rect x="330" y="286" width="13" height="266" fill="url(#notier)"/>
<rect x="343" y="76" width="13" height="98" fill="var(--band1)"/>
<rect x="343" y="174" width="13" height="112" fill="var(--band2)"/>
<rect x="343" y="286" width="13" height="266" fill="url(#notier)"/>
<rect x="356" y="76" width="13" height="91" fill="var(--band1)"/>
<rect x="356" y="167" width="13" height="63" fill="var(--band2)"/>
<rect x="356" y="230" width="13" height="322" fill="url(#notier)"/>
<rect x="369" y="76" width="13" height="98" fill="var(--band1)"/>
<rect x="369" y="174" width="13" height="112" fill="var(--band2)"/>
<rect x="369" y="286" width="13" height="266" fill="url(#notier)"/>
<rect x="382" y="76" width="13" height="84" fill="var(--band1)"/>
<rect x="382" y="160" width="13" height="98" fill="var(--band2)"/>
<rect x="382" y="258" width="13" height="112" fill="var(--band3)"/>
<rect x="382" y="370" width="13" height="182" fill="url(#notier)"/>
<rect x="395" y="76" width="13" height="98" fill="var(--band1)"/>
<rect x="395" y="174" width="13" height="112" fill="var(--band2)"/>
<rect x="395" y="286" width="13" height="112" fill="var(--band3)"/>
<rect x="395" y="398" width="13" height="154" fill="url(#notier)"/>
<rect x="408" y="76" width="13" height="84" fill="var(--band1)"/>
<rect x="408" y="160" width="13" height="98" fill="var(--band2)"/>
<rect x="408" y="258" width="13" height="112" fill="var(--band3)"/>
<rect x="408" y="370" width="13" height="182" fill="url(#notier)"/>
<rect x="421" y="76" width="13" height="98" fill="var(--band1)"/>
<rect x="421" y="174" width="13" height="112" fill="var(--band2)"/>
<rect x="421" y="286" width="13" height="84" fill="var(--band3)"/>
<rect x="421" y="370" width="13" height="98" fill="var(--band4)"/>
<rect x="421" y="468" width="13" height="84" fill="url(#notier)"/>
<rect x="434" y="76" width="13" height="84" fill="var(--band1)"/>
<rect x="434" y="160" width="13" height="84" fill="var(--band2)"/>
<rect x="434" y="244" width="13" height="84" fill="var(--band3)"/>
<rect x="434" y="328" width="13" height="70" fill="var(--band4)"/>
<rect x="434" y="398" width="13" height="154" fill="url(#notier)"/>
<rect x="447" y="76" width="13" height="70" fill="var(--band1)"/>
<rect x="447" y="146" width="13" height="84" fill="var(--band2)"/>
<rect x="447" y="230" width="13" height="91" fill="var(--band3)"/>
<rect x="447" y="321" width="13" height="112" fill="var(--band4)"/>
<rect x="447" y="433" width="13" height="119" fill="url(#notier)"/>
<rect x="460" y="76" width="13" height="84" fill="var(--band1)"/>
<rect x="460" y="160" width="13" height="84" fill="var(--band2)"/>
<rect x="460" y="244" width="13" height="84" fill="var(--band3)"/>
<rect x="460" y="328" width="13" height="112" fill="var(--band4)"/>
<rect x="460" y="440" width="13" height="112" fill="url(#notier)"/>
<rect x="473" y="76" width="13" height="84" fill="var(--band1)"/>
<rect x="473" y="160" width="13" height="84" fill="var(--band2)"/>
<rect x="473" y="244" width="13" height="84" fill="var(--band3)"/>
<rect x="473" y="328" width="13" height="112" fill="var(--band4)"/>
<rect x="473" y="440" width="13" height="112" fill="var(--band5)"/>
<rect x="486" y="76" width="13" height="84" fill="var(--band1)"/>
<rect x="486" y="160" width="13" height="98" fill="var(--band2)"/>
<rect x="486" y="258" width="13" height="112" fill="var(--band3)"/>
<rect x="486" y="370" width="13" height="112" fill="var(--band4)"/>
<rect x="486" y="482" width="13" height="70" fill="url(#notier)"/>
<rect x="499" y="76" width="13" height="84" fill="var(--band1)"/>
<rect x="499" y="160" width="13" height="98" fill="var(--band2)"/>
<rect x="499" y="258" width="13" height="112" fill="var(--band3)"/>
<rect x="499" y="370" width="13" height="112" fill="var(--band4)"/>
<rect x="499" y="482" width="13" height="70" fill="url(#notier)"/>
<rect x="512" y="76" width="13" height="84" fill="var(--band1)"/>
<rect x="512" y="160" width="13" height="98" fill="var(--band2)"/>
<rect x="512" y="258" width="13" height="112" fill="var(--band3)"/>
<rect x="512" y="370" width="13" height="112" fill="var(--band4)"/>
<rect x="512" y="482" width="13" height="70" fill="url(#notier)"/>
<rect x="525" y="76" width="13" height="84" fill="var(--band1)"/>
<rect x="525" y="160" width="13" height="112" fill="var(--band2)"/>
<rect x="525" y="272" width="13" height="112" fill="var(--band3)"/>
<rect x="525" y="384" width="13" height="105" fill="var(--band4)"/>
<rect x="525" y="489" width="13" height="63" fill="url(#notier)"/>
<rect x="538" y="76" width="13" height="105" fill="var(--band1)"/>
<rect x="538" y="181" width="13" height="98" fill="var(--band2)"/>
<rect x="538" y="279" width="13" height="112" fill="var(--band3)"/>
<rect x="538" y="391" width="13" height="91" fill="var(--band4)"/>
<rect x="538" y="482" width="13" height="70" fill="url(#notier)"/>
<rect x="551" y="76" width="13" height="112" fill="var(--band1)"/>
<rect x="551" y="188" width="13" height="112" fill="var(--band2)"/>
<rect x="551" y="300" width="13" height="112" fill="var(--band3)"/>
<rect x="551" y="412" width="13" height="98" fill="var(--band4)"/>
<rect x="551" y="510" width="13" height="42" fill="url(#notier)"/>
<rect x="564" y="76" width="13" height="112" fill="var(--band1)"/>
<rect x="564" y="188" width="13" height="112" fill="var(--band2)"/>
<rect x="564" y="300" width="13" height="112" fill="var(--band3)"/>
<rect x="564" y="412" width="13" height="105" fill="var(--band4)"/>
<rect x="564" y="517" width="13" height="35" fill="url(#notier)"/>
<rect x="577" y="76" width="13" height="112" fill="var(--band1)"/>
<rect x="577" y="188" width="13" height="112" fill="var(--band2)"/>
<rect x="577" y="300" width="13" height="112" fill="var(--band3)"/>
<rect x="577" y="412" width="13" height="98" fill="var(--band4)"/>
<rect x="577" y="510" width="13" height="42" fill="url(#notier)"/>
<rect x="590" y="76" width="13" height="112" fill="var(--band1)"/>
<rect x="590" y="188" width="13" height="112" fill="var(--band2)"/>
<rect x="590" y="300" width="13" height="112" fill="var(--band3)"/>
<rect x="590" y="412" width="13" height="112" fill="var(--band4)"/>
<rect x="590" y="524" width="13" height="28" fill="url(#notier)"/>
<rect x="603" y="76" width="13" height="112" fill="var(--band1)"/>
<rect x="603" y="188" width="13" height="112" fill="var(--band2)"/>
<rect x="603" y="300" width="13" height="112" fill="var(--band3)"/>
<rect x="603" y="412" width="13" height="112" fill="var(--band4)"/>
<rect x="603" y="524" width="13" height="28" fill="var(--band5)"/>
<rect x="616" y="76" width="13" height="112" fill="var(--band1)"/>
<rect x="616" y="188" width="13" height="112" fill="var(--band2)"/>
<rect x="616" y="300" width="13" height="112" fill="var(--band3)"/>
<rect x="616" y="412" width="13" height="112" fill="var(--band4)"/>
<rect x="616" y="524" width="13" height="28" fill="var(--band5)"/>
<rect x="629" y="76" width="13" height="112" fill="var(--band1)"/>
<rect x="629" y="188" width="13" height="112" fill="var(--band2)"/>
<rect x="629" y="300" width="13" height="112" fill="var(--band3)"/>
<rect x="629" y="412" width="13" height="112" fill="var(--band4)"/>
<rect x="629" y="524" width="13" height="28" fill="var(--band5)"/>
<rect x="642" y="76" width="13" height="112" fill="var(--band1)"/>
<rect x="642" y="188" width="13" height="112" fill="var(--band2)"/>
<rect x="642" y="300" width="13" height="112" fill="var(--band3)"/>
<rect x="642" y="412" width="13" height="112" fill="var(--band4)"/>
<rect x="642" y="524" width="13" height="28" fill="var(--band5)"/>
<rect x="655" y="76" width="13" height="112" fill="var(--band1)"/>
<rect x="655" y="188" width="13" height="112" fill="var(--band2)"/>
<rect x="655" y="300" width="13" height="112" fill="var(--band3)"/>
<rect x="655" y="412" width="13" height="112" fill="var(--band4)"/>
<rect x="655" y="524" width="13" height="28" fill="var(--band5)"/>
<rect x="668" y="76" width="13" height="112" fill="var(--band1)"/>
<rect x="668" y="188" width="13" height="112" fill="var(--band2)"/>
<rect x="668" y="300" width="13" height="112" fill="var(--band3)"/>
<rect x="668" y="412" width="13" height="112" fill="var(--band4)"/>
<rect x="668" y="524" width="13" height="28" fill="var(--band5)"/>
<rect x="681" y="76" width="13" height="126" fill="var(--band1)"/>
<rect x="681" y="202" width="13" height="119" fill="var(--band2)"/>
<rect x="681" y="321" width="13" height="105" fill="var(--band3)"/>
<rect x="681" y="426" width="13" height="112" fill="var(--band4)"/>
<rect x="681" y="538" width="13" height="14" fill="var(--band5)"/>
<rect x="694" y="76" width="13" height="112" fill="var(--band1)"/>
<rect x="694" y="188" width="13" height="84" fill="var(--band2)"/>
<rect x="694" y="272" width="13" height="98" fill="var(--band3)"/>
<rect x="694" y="370" width="13" height="98" fill="var(--band4)"/>
<rect x="694" y="468" width="13" height="84" fill="var(--band5)"/>
<rect x="707" y="76" width="13" height="98" fill="var(--band1)"/>
<rect x="707" y="174" width="13" height="98" fill="var(--band2)"/>
<rect x="707" y="272" width="13" height="98" fill="var(--band3)"/>
<rect x="707" y="370" width="13" height="98" fill="var(--band4)"/>
<rect x="707" y="468" width="13" height="84" fill="var(--band5)"/>
<rect x="720" y="76" width="13" height="112" fill="var(--band1)"/>
<rect x="720" y="188" width="13" height="112" fill="var(--band2)"/>
<rect x="720" y="300" width="13" height="98" fill="var(--band3)"/>
<rect x="720" y="398" width="13" height="98" fill="var(--band4)"/>
<rect x="720" y="496" width="13" height="56" fill="var(--band5)"/>
<rect x="733" y="76" width="13" height="112" fill="var(--band1)"/>
<rect x="733" y="188" width="13" height="112" fill="var(--band2)"/>
<rect x="733" y="300" width="13" height="98" fill="var(--band3)"/>
<rect x="733" y="398" width="13" height="98" fill="var(--band4)"/>
<rect x="733" y="496" width="13" height="56" fill="var(--band5)"/>
<rect x="746" y="76" width="13" height="112" fill="var(--band1)"/>
<rect x="746" y="188" width="13" height="112" fill="var(--band2)"/>
<rect x="746" y="300" width="13" height="98" fill="var(--band3)"/>
<rect x="746" y="398" width="13" height="98" fill="var(--band4)"/>
<rect x="746" y="496" width="13" height="56" fill="var(--band5)"/>
<rect x="759" y="76" width="13" height="112" fill="var(--band1)"/>
<rect x="759" y="188" width="13" height="112" fill="var(--band2)"/>
<rect x="759" y="300" width="13" height="98" fill="var(--band3)"/>
<rect x="759" y="398" width="13" height="98" fill="var(--band4)"/>
<rect x="759" y="496" width="13" height="56" fill="var(--band5)"/>
<rect x="772" y="76" width="13" height="112" fill="var(--band1)"/>
<rect x="772" y="188" width="13" height="112" fill="var(--band2)"/>
<rect x="772" y="300" width="13" height="98" fill="var(--band3)"/>
<rect x="772" y="398" width="13" height="98" fill="var(--band4)"/>
<rect x="772" y="496" width="13" height="56" fill="var(--band5)"/>
<rect x="785" y="76" width="13" height="112" fill="var(--band1)"/>
<rect x="785" y="188" width="13" height="112" fill="var(--band2)"/>
<rect x="785" y="300" width="13" height="98" fill="var(--band3)"/>
<rect x="785" y="398" width="13" height="98" fill="var(--band4)"/>
<rect x="785" y="496" width="13" height="56" fill="var(--band5)"/>
<rect x="798" y="76" width="13" height="112" fill="var(--band1)"/>
<rect x="798" y="188" width="13" height="112" fill="var(--band2)"/>
<rect x="798" y="300" width="13" height="98" fill="var(--band3)"/>
<rect x="798" y="398" width="13" height="98" fill="var(--band4)"/>
<rect x="798" y="496" width="13" height="56" fill="var(--band5)"/>
<rect x="811" y="76" width="13" height="112" fill="var(--band1)"/>
<rect x="811" y="188" width="13" height="112" fill="var(--band2)"/>
<rect x="811" y="300" width="13" height="98" fill="var(--band3)"/>
<rect x="811" y="398" width="13" height="98" fill="var(--band4)"/>
<rect x="811" y="496" width="13" height="56" fill="var(--band5)"/>
<rect x="824" y="76" width="13" height="112" fill="var(--band1)"/>
<rect x="824" y="188" width="13" height="112" fill="var(--band2)"/>
<rect x="824" y="300" width="13" height="98" fill="var(--band3)"/>
<rect x="824" y="398" width="13" height="98" fill="var(--band4)"/>
<rect x="824" y="496" width="13" height="56" fill="var(--band5)"/>
<rect x="837" y="76" width="13" height="98" fill="var(--band1)"/>
<rect x="837" y="174" width="13" height="98" fill="var(--band2)"/>
<rect x="837" y="272" width="13" height="112" fill="var(--band3)"/>
<rect x="837" y="384" width="13" height="98" fill="var(--band4)"/>
<rect x="837" y="482" width="13" height="70" fill="var(--band5)"/>
<rect x="850" y="76" width="13" height="98" fill="var(--band1)"/>
<rect x="850" y="174" width="13" height="98" fill="var(--band2)"/>
<rect x="850" y="272" width="13" height="112" fill="var(--band3)"/>
<rect x="850" y="384" width="13" height="98" fill="var(--band4)"/>
<rect x="850" y="482" width="13" height="70" fill="var(--band5)"/>
<rect x="863" y="76" width="13" height="84" fill="var(--band1)"/>
<rect x="863" y="160" width="13" height="112" fill="var(--band2)"/>
<rect x="863" y="272" width="13" height="112" fill="var(--band3)"/>
<rect x="863" y="384" width="13" height="112" fill="var(--band4)"/>
<rect x="863" y="496" width="13" height="56" fill="var(--band5)"/>
<rect x="876" y="76" width="13" height="84" fill="var(--band1)"/>
<rect x="876" y="160" width="13" height="112" fill="var(--band2)"/>
<rect x="876" y="272" width="13" height="112" fill="var(--band3)"/>
<rect x="876" y="384" width="13" height="112" fill="var(--band4)"/>
<rect x="876" y="496" width="13" height="56" fill="var(--band5)"/>
<rect x="889" y="76" width="13" height="84" fill="var(--band1)"/>
<rect x="889" y="160" width="13" height="112" fill="var(--band2)"/>
<rect x="889" y="272" width="13" height="112" fill="var(--band3)"/>
<rect x="889" y="384" width="13" height="112" fill="var(--band4)"/>
<rect x="889" y="496" width="13" height="56" fill="var(--band5)"/>
<rect x="902" y="76" width="13" height="84" fill="var(--band1)"/>
<rect x="902" y="160" width="13" height="112" fill="var(--band2)"/>
<rect x="902" y="272" width="13" height="112" fill="var(--band3)"/>
<rect x="902" y="384" width="13" height="112" fill="var(--band4)"/>
<rect x="902" y="496" width="13" height="56" fill="var(--band5)"/>
<rect x="915" y="76" width="13" height="98" fill="var(--band1)"/>
<rect x="915" y="174" width="13" height="112" fill="var(--band2)"/>
<rect x="915" y="286" width="13" height="112" fill="var(--band3)"/>
<rect x="915" y="398" width="13" height="112" fill="var(--band4)"/>
<rect x="915" y="510" width="13" height="42" fill="var(--band5)"/>
<rect x="928" y="76" width="13" height="112" fill="var(--band1)"/>
<rect x="928" y="188" width="13" height="112" fill="var(--band2)"/>
<rect x="928" y="300" width="13" height="112" fill="var(--band3)"/>
<rect x="928" y="412" width="13" height="112" fill="var(--band4)"/>
<rect x="928" y="524" width="13" height="28" fill="var(--band5)"/>
<rect x="941" y="76" width="13" height="112" fill="var(--band1)"/>
<rect x="941" y="188" width="13" height="112" fill="var(--band2)"/>
<rect x="941" y="300" width="13" height="112" fill="var(--band3)"/>
<rect x="941" y="412" width="13" height="112" fill="var(--band4)"/>
<rect x="941" y="524" width="13" height="28" fill="var(--band5)"/>
<rect x="954" y="76" width="13" height="112" fill="var(--band1)"/>
<rect x="954" y="188" width="13" height="112" fill="var(--band2)"/>
<rect x="954" y="300" width="13" height="112" fill="var(--band3)"/>
<rect x="954" y="412" width="13" height="112" fill="var(--band4)"/>
<rect x="954" y="524" width="13" height="28" fill="var(--band5)"/>
<rect x="967" y="76" width="13" height="112" fill="var(--band1)"/>
<rect x="967" y="188" width="13" height="112" fill="var(--band2)"/>
<rect x="967" y="300" width="13" height="112" fill="var(--band3)"/>
<rect x="967" y="412" width="13" height="112" fill="var(--band4)"/>
<rect x="967" y="524" width="13" height="28" fill="var(--band5)"/>
<rect x="980" y="76" width="13" height="112" fill="var(--band1)"/>
<rect x="980" y="188" width="13" height="112" fill="var(--band2)"/>
<rect x="980" y="300" width="13" height="112" fill="var(--band3)"/>
<rect x="980" y="412" width="13" height="112" fill="var(--band4)"/>
<rect x="980" y="524" width="13" height="28" fill="var(--band5)"/>
<rect x="993" y="76" width="13" height="98" fill="var(--band1)"/>
<rect x="993" y="174" width="13" height="70" fill="var(--band2)"/>
<rect x="993" y="244" width="13" height="84" fill="var(--band3)"/>
<rect x="993" y="328" width="13" height="98" fill="var(--band4)"/>
<rect x="993" y="426" width="13" height="126" fill="var(--band5)"/>
<rect x="1006" y="76" width="13" height="84" fill="var(--band1)"/>
<rect x="1006" y="160" width="13" height="84" fill="var(--band2)"/>
<rect x="1006" y="244" width="13" height="84" fill="var(--band3)"/>
<rect x="1006" y="328" width="13" height="105" fill="var(--band4)"/>
<rect x="1006" y="433" width="13" height="119" fill="var(--band5)"/>
<rect x="1019" y="76" width="13" height="84" fill="var(--band1)"/>
<rect x="1019" y="160" width="13" height="84" fill="var(--band2)"/>
<rect x="1019" y="244" width="13" height="84" fill="var(--band3)"/>
<rect x="1019" y="328" width="13" height="105" fill="var(--band4)"/>
<rect x="1019" y="433" width="13" height="119" fill="var(--band5)"/>
<rect x="1032" y="76" width="13" height="84" fill="var(--band1)"/>
<rect x="1032" y="160" width="13" height="84" fill="var(--band2)"/>
<rect x="1032" y="244" width="13" height="84" fill="var(--band3)"/>
<rect x="1032" y="328" width="13" height="98" fill="var(--band4)"/>
<rect x="1032" y="426" width="13" height="126" fill="var(--band5)"/>
<rect x="1045" y="76" width="13" height="84" fill="var(--band1)"/>
<rect x="1045" y="160" width="13" height="84" fill="var(--band2)"/>
<rect x="1045" y="244" width="13" height="84" fill="var(--band3)"/>
<rect x="1045" y="328" width="13" height="98" fill="var(--band4)"/>
<rect x="1045" y="426" width="13" height="126" fill="var(--band5)"/>
<rect x="1058" y="76" width="13" height="84" fill="var(--band1)"/>
<rect x="1058" y="160" width="13" height="84" fill="var(--band2)"/>
<rect x="1058" y="244" width="13" height="84" fill="var(--band3)"/>
<rect x="1058" y="328" width="13" height="98" fill="var(--band4)"/>
<rect x="1058" y="426" width="13" height="126" fill="var(--band5)"/>
<rect x="1071" y="76" width="13" height="84" fill="var(--band1)"/>
<rect x="1071" y="160" width="13" height="84" fill="var(--band2)"/>
<rect x="1071" y="244" width="13" height="84" fill="var(--band3)"/>
<rect x="1071" y="328" width="13" height="98" fill="var(--band4)"/>
<rect x="1071" y="426" width="13" height="126" fill="var(--band5)"/>
<rect x="1084" y="76" width="13" height="84" fill="var(--band1)"/>
<rect x="1084" y="160" width="13" height="84" fill="var(--band2)"/>
<rect x="1084" y="244" width="13" height="84" fill="var(--band3)"/>
<rect x="1084" y="328" width="13" height="98" fill="var(--band4)"/>
<rect x="1084" y="426" width="13" height="126" fill="var(--band5)"/>
<rect x="1097" y="76" width="13" height="84" fill="var(--band1)"/>
<rect x="1097" y="160" width="13" height="84" fill="var(--band2)"/>
<rect x="1097" y="244" width="13" height="84" fill="var(--band3)"/>
<rect x="1097" y="328" width="13" height="98" fill="var(--band4)"/>
<rect x="1097" y="426" width="13" height="126" fill="var(--band5)"/>
<rect x="1110" y="76" width="13" height="84" fill="var(--band1)"/>
<rect x="1110" y="160" width="13" height="84" fill="var(--band2)"/>
<rect x="1110" y="244" width="13" height="84" fill="var(--band3)"/>
<rect x="1110" y="328" width="13" height="98" fill="var(--band4)"/>
<rect x="1110" y="426" width="13" height="126" fill="var(--band5)"/>
<rect x="1123" y="76" width="13" height="112" fill="var(--band1)"/>
<rect x="1123" y="188" width="13" height="112" fill="var(--band2)"/>
<rect x="1123" y="300" width="13" height="112" fill="var(--band3)"/>
<rect x="1123" y="412" width="13" height="112" fill="var(--band4)"/>
<rect x="1123" y="524" width="13" height="28" fill="var(--band5)"/>
<rect x="1136" y="76" width="13" height="112" fill="var(--band1)"/>
<rect x="1136" y="188" width="13" height="112" fill="var(--band2)"/>
<rect x="1136" y="300" width="13" height="112" fill="var(--band3)"/>
<rect x="1136" y="412" width="13" height="112" fill="var(--band4)"/>
<rect x="1136" y="524" width="13" height="28" fill="var(--band5)"/>
<rect x="1149" y="76" width="13" height="112" fill="var(--band1)"/>
<rect x="1149" y="188" width="13" height="112" fill="var(--band2)"/>
<rect x="1149" y="300" width="13" height="112" fill="var(--band3)"/>
<rect x="1149" y="412" width="13" height="112" fill="var(--band4)"/>
<rect x="1149" y="524" width="13" height="28" fill="var(--band5)"/>
<rect x="1162" y="76" width="13" height="98" fill="var(--band1)"/>
<rect x="1162" y="174" width="13" height="112" fill="var(--band2)"/>
<rect x="1162" y="286" width="13" height="112" fill="var(--band3)"/>
<rect x="1162" y="398" width="13" height="112" fill="var(--band4)"/>
<rect x="1162" y="510" width="13" height="42" fill="var(--band5)"/>
<rect x="1175" y="76" width="13" height="98" fill="var(--band1)"/>
<rect x="1175" y="174" width="13" height="112" fill="var(--band2)"/>
<rect x="1175" y="286" width="13" height="112" fill="var(--band3)"/>
<rect x="1175" y="398" width="13" height="112" fill="var(--band4)"/>
<rect x="1175" y="510" width="13" height="42" fill="var(--band5)"/>
<rect x="1188" y="76" width="13" height="98" fill="var(--band1)"/>
<rect x="1188" y="174" width="13" height="112" fill="var(--band2)"/>
<rect x="1188" y="286" width="13" height="112" fill="var(--band3)"/>
<rect x="1188" y="398" width="13" height="112" fill="var(--band4)"/>
<rect x="1188" y="510" width="13" height="42" fill="var(--band5)"/>
<rect x="1201" y="76" width="13" height="98" fill="var(--band1)"/>
<rect x="1201" y="174" width="13" height="112" fill="var(--band2)"/>
<rect x="1201" y="286" width="13" height="112" fill="var(--band3)"/>
<rect x="1201" y="398" width="13" height="112" fill="var(--band4)"/>
<rect x="1201" y="510" width="13" height="42" fill="var(--band5)"/>
<rect x="1214" y="76" width="13" height="98" fill="var(--band1)"/>
<rect x="1214" y="174" width="13" height="112" fill="var(--band2)"/>
<rect x="1214" y="286" width="13" height="112" fill="var(--band3)"/>
<rect x="1214" y="398" width="13" height="112" fill="var(--band4)"/>
<rect x="1214" y="510" width="13" height="42" fill="var(--band5)"/>
<rect x="1227" y="76" width="13" height="98" fill="var(--band1)"/>
<rect x="1227" y="174" width="13" height="112" fill="var(--band2)"/>
<rect x="1227" y="286" width="13" height="112" fill="var(--band3)"/>
<rect x="1227" y="398" width="13" height="112" fill="var(--band4)"/>
<rect x="1227" y="510" width="13" height="42" fill="var(--band5)"/>
<rect x="1240" y="76" width="13" height="98" fill="var(--band1)"/>
<rect x="1240" y="174" width="13" height="112" fill="var(--band2)"/>
<rect x="1240" y="286" width="13" height="112" fill="var(--band3)"/>
<rect x="1240" y="398" width="13" height="112" fill="var(--band4)"/>
<rect x="1240" y="510" width="13" height="42" fill="var(--band5)"/>
<rect x="1253" y="76" width="13" height="98" fill="var(--band1)"/>
<rect x="1253" y="174" width="13" height="112" fill="var(--band2)"/>
<rect x="1253" y="286" width="13" height="112" fill="var(--band3)"/>
<rect x="1253" y="398" width="13" height="112" fill="var(--band4)"/>
<rect x="1253" y="510" width="13" height="42" fill="var(--band5)"/>
<rect x="1266" y="76" width="13" height="98" fill="var(--band1)"/>
<rect x="1266" y="174" width="13" height="112" fill="var(--band2)"/>
<rect x="1266" y="286" width="13" height="63" fill="var(--band3)"/>
<rect x="1266" y="349" width="13" height="63" fill="var(--band4)"/>
<rect x="1266" y="412" width="13" height="140" fill="var(--band5)"/>
<rect x="1279" y="76" width="13" height="98" fill="var(--band1)"/>
<rect x="1279" y="174" width="13" height="112" fill="var(--band2)"/>
<rect x="1279" y="286" width="13" height="126" fill="var(--band3)"/>
<rect x="1279" y="412" width="13" height="112" fill="var(--band4)"/>
<rect x="1279" y="524" width="13" height="28" fill="var(--band5)"/>
<rect x="1292" y="76" width="13" height="98" fill="var(--band1)"/>
<rect x="1292" y="174" width="13" height="112" fill="var(--band2)"/>
<rect x="1292" y="286" width="13" height="112" fill="var(--band3)"/>
<rect x="1292" y="398" width="13" height="112" fill="var(--band4)"/>
<rect x="1292" y="510" width="13" height="42" fill="var(--band5)"/>
<rect x="1305" y="76" width="13" height="98" fill="var(--band1)"/>
<rect x="1305" y="174" width="13" height="112" fill="var(--band2)"/>
<rect x="1305" y="286" width="13" height="112" fill="var(--band3)"/>
<rect x="1305" y="398" width="13" height="112" fill="var(--band4)"/>
<rect x="1305" y="510" width="13" height="42" fill="var(--band5)"/>
<rect x="1318" y="76" width="13" height="98" fill="var(--band1)"/>
<rect x="1318" y="174" width="13" height="112" fill="var(--band2)"/>
<rect x="1318" y="286" width="13" height="119" fill="var(--band3)"/>
<rect x="1318" y="405" width="13" height="112" fill="var(--band4)"/>
<rect x="1318" y="517" width="13" height="35" fill="var(--band5)"/>
<rect x="1331" y="76" width="13" height="98" fill="var(--band1)"/>
<rect x="1331" y="174" width="13" height="112" fill="var(--band2)"/>
<rect x="1331" y="286" width="13" height="112" fill="var(--band3)"/>
<rect x="1331" y="398" width="13" height="112" fill="var(--band4)"/>
<rect x="1331" y="510" width="13" height="42" fill="var(--band5)"/>
<rect x="96" y="76" width="13" height="476" fill="url(#notplayed)" fill-opacity=".8"/>
<rect x="109" y="76" width="13" height="476" fill="url(#notplayed)" fill-opacity=".8"/>
<rect x="135" y="76" width="13" height="476" fill="url(#notplayed)" fill-opacity=".8"/>
<rect x="239" y="76" width="13" height="476" fill="url(#notplayed)" fill-opacity=".8"/>
<rect x="265" y="76" width="13" height="476" fill="url(#notplayed)" fill-opacity=".8"/>
<rect x="304" y="76" width="13" height="476" fill="url(#notplayed)" fill-opacity=".8"/>
<rect x="330" y="76" width="13" height="476" fill="url(#notplayed)" fill-opacity=".8"/>
<rect x="343" y="76" width="13" height="476" fill="url(#notplayed)" fill-opacity=".8"/>
<rect x="369" y="76" width="13" height="476" fill="url(#notplayed)" fill-opacity=".8"/>
<rect x="382" y="370" width="13" height="182" fill="url(#uncovered)"/>
<rect x="395" y="76" width="13" height="476" fill="url(#notplayed)" fill-opacity=".8"/>
<rect x="408" y="370" width="13" height="182" fill="url(#uncovered)"/>
<rect x="447" y="433" width="13" height="119" fill="url(#uncovered)"/>
<rect x="1214" y="510" width="13" height="42" fill="url(#uncovered)"/>
<path class="line" d="M356.0 195.0H369.0"/>
<path class="line" d="M427.5 419.0 C431.8 388.7 436.2 358.3 440.5 328.0"/>
<path class="line" d="M466.5 258.0 C470.8 265.0 475.2 279.0 479.5 279.0 C483.8 279.0 488.2 265.0 492.5 265.0 C496.8 265.0 501.2 265.0 505.5 265.0 C509.8 265.0 514.2 261.5 518.5 258.0 C522.8 254.5 527.2 252.2 531.5 244.0 C535.8 235.8 540.2 209.0 544.5 209.0 C548.8 209.0 553.2 237.0 557.5 237.0 C561.8 237.0 566.2 209.0 570.5 209.0 C574.8 209.0 579.2 223.0 583.5 223.0 C587.8 223.0 592.2 214.8 596.5 209.0 C600.8 203.2 605.2 192.7 609.5 188.0 C613.8 183.3 618.2 181.0 622.5 181.0 C626.8 181.0 631.2 195.0 635.5 195.0 C639.8 195.0 644.2 195.0 648.5 195.0 C652.8 195.0 657.2 195.0 661.5 202.0 C665.8 209.0 670.2 272.0 674.5 272.0 C678.8 272.0 683.2 209.0 687.5 209.0 C691.8 209.0 696.2 223.0 700.5 223.0 C704.8 223.0 709.2 223.0 713.5 223.0 C717.8 223.0 722.2 209.0 726.5 209.0 C730.8 209.0 735.2 259.2 739.5 272.0 C743.8 284.8 748.2 272.0 752.5 286.0 C756.8 300.0 761.2 356.0 765.5 356.0 C769.8 356.0 774.2 330.3 778.5 314.0 C782.8 297.7 787.2 273.2 791.5 258.0 C795.8 242.8 800.2 231.2 804.5 223.0 C808.8 214.8 813.2 214.8 817.5 209.0 C821.8 203.2 826.2 202.0 830.5 188.0 C834.8 174.0 839.2 125.0 843.5 125.0 C847.8 125.0 852.2 160.0 856.5 160.0 C860.8 160.0 865.2 160.0 869.5 160.0 C873.8 160.0 878.2 137.8 882.5 132.0 C886.8 126.2 891.2 128.5 895.5 125.0 C899.8 121.5 904.2 111.0 908.5 111.0 C912.8 111.0 917.2 139.0 921.5 139.0 C925.8 139.0 930.2 118.0 934.5 118.0 C938.8 118.0 943.2 150.7 947.5 160.0 C951.8 169.3 956.2 168.2 960.5 174.0 C964.8 179.8 969.2 195.0 973.5 195.0 C977.8 195.0 982.2 167.0 986.5 167.0 C990.8 167.0 995.2 174.0 999.5 174.0 C1003.8 174.0 1008.2 153.0 1012.5 153.0 C1016.8 153.0 1021.2 230.0 1025.5 230.0 C1029.8 230.0 1034.2 216.0 1038.5 216.0 C1042.8 216.0 1047.2 226.5 1051.5 230.0 C1055.8 233.5 1060.2 230.0 1064.5 237.0 C1068.8 244.0 1073.2 293.0 1077.5 321.0 C1081.8 349.0 1086.2 405.0 1090.5 405.0 C1094.8 405.0 1099.2 405.0 1103.5 405.0 C1107.8 405.0 1112.2 426.0 1116.5 426.0 C1120.8 426.0 1125.2 321.0 1129.5 321.0 C1133.8 321.0 1138.2 372.3 1142.5 398.0 C1146.8 423.7 1151.2 475.0 1155.5 475.0 C1159.8 475.0 1164.2 419.0 1168.5 419.0 C1172.8 419.0 1177.2 489.0 1181.5 489.0 C1185.8 489.0 1190.2 405.0 1194.5 405.0 C1198.8 405.0 1203.2 461.0 1207.5 489.0"/>
<path class="line" d="M1233.5 314.0 C1237.8 321.0 1242.2 328.0 1246.5 335.0"/>
<path class="line" d="M1266.0 286.0H1279.0"/>
<text class="ink2" x="85" y="128.0" text-anchor="start" font-size="10.5" font-weight="600" direction="rtl" letter-spacing=".05em">דרג 1</text>
<text class="ink2" x="85" y="233.0" text-anchor="start" font-size="10.5" font-weight="600" direction="rtl" letter-spacing=".05em">דרג 2</text>
<text class="ink2" x="85" y="345.0" text-anchor="start" font-size="10.5" font-weight="600" direction="rtl" letter-spacing=".05em">דרג 3</text>
<text class="ink2" x="85" y="457.0" text-anchor="start" font-size="10.5" font-weight="600" direction="rtl" letter-spacing=".05em">דרג 4</text>
<path class="rule" d="M96 552.5h1248" fill="none"/>
<path class="rule" d="M96 552v5" fill="none"/>
<text class="ink3" x="96" y="569" text-anchor="start" font-size="10.5">29/30</text>
<path class="rule" d="M232.5 552v5" fill="none"/>
<text class="ink3" x="232.5" y="569" text-anchor="middle" font-size="10.5">1940</text>
<path class="rule" d="M375.5 552v5" fill="none"/>
<text class="ink3" x="375.5" y="569" text-anchor="middle" font-size="10.5">1950</text>
<path class="rule" d="M505.5 552v5" fill="none"/>
<text class="ink3" x="505.5" y="569" text-anchor="middle" font-size="10.5">1960</text>
<path class="rule" d="M622.5 552v5" fill="none"/>
<text class="ink3" x="622.5" y="569" text-anchor="middle" font-size="10.5">1970</text>
<path class="rule" d="M752.5 552v5" fill="none"/>
<text class="ink3" x="752.5" y="569" text-anchor="middle" font-size="10.5">1980</text>
<path class="rule" d="M882.5 552v5" fill="none"/>
<text class="ink3" x="882.5" y="569" text-anchor="middle" font-size="10.5">1990</text>
<path class="rule" d="M1012.5 552v5" fill="none"/>
<text class="ink3" x="1012.5" y="569" text-anchor="middle" font-size="10.5">2000</text>
<path class="rule" d="M1142.5 552v5" fill="none"/>
<text class="ink3" x="1142.5" y="569" text-anchor="middle" font-size="10.5">2010</text>
<path class="rule" d="M1272.5 552v5" fill="none"/>
<text class="ink3" x="1272.5" y="569" text-anchor="middle" font-size="10.5">2020</text>
<path class="rule" d="M1344 552v5" fill="none"/>
<text class="ink3" x="1344" y="569" text-anchor="end" font-size="10.5">25/26</text>
<text class="ink" x="96" y="33" text-anchor="end" font-size="19" font-weight="600" direction="rtl" letter-spacing="-.01em">הפועל חולון</text>
<text class="ink2" x="96" y="54" text-anchor="end" font-size="11.5" direction="rtl">12 עונות מתוך 86 בליגה הבכירה · המקום הטוב ביותר: 6</text>
<text class="ink3" x="1344" y="33" text-anchor="start" font-size="9.5" direction="rtl" letter-spacing=".08em">מיקום בליגה לפי עונה</text>
<path class="line" d="M96 592.5h16"/>
<text class="ink2" x="118" y="596" text-anchor="end" font-size="10.5" direction="rtl">מיקום סופי בליגה</text>
<path class="champ" d="M312.0 588l4 4-4 4-4-4z"/>
<text class="ink2" x="326.0" y="596" text-anchor="end" font-size="10.5" direction="rtl">אליפות</text>
<rect x="512.0" y="587" width="16" height="11" fill="var(--band5)"/><path class="line" d="M512.0 592.5h16"/>
<text class="ink2" x="534.0" y="596" text-anchor="end" font-size="10.5" direction="rtl">דרג 5 ומטה</text>
<rect x="720.0" y="587" width="16" height="11" fill="url(#uncovered)"/>
<text class="ink2" x="742.0" y="596" text-anchor="end" font-size="10.5" direction="rtl">לא נרשם מיקום</text>
<rect x="928.0" y="587" width="16" height="11" fill="url(#notplayed)" fill-opacity=".8"/>
<text class="ink2" x="950.0" y="596" text-anchor="end" font-size="10.5" direction="rtl">העונה לא התקיימה</text>
<rect x="1136.0" y="587" width="16" height="11" fill="var(--surface)" stroke="var(--rule)" stroke-width=".8"/>
<text class="ink2" x="1158.0" y="596" text-anchor="end" font-size="10.5" direction="rtl">לא היה דרג כזה</text>
</svg>
