<svg xmlns="http://www.w3.org/2000/svg" width="1372" height="630" viewBox="0 0 1372 630" font-family="ui-sans-serif, -apple-system, 'Segoe UI', Roboto, sans-serif" role="img" aria-label="Hapoel Holon, 1929/1930 – 2025/2026">
<style>
  .bg{fill:var(--surface)} .ink{fill:var(--ink)} .ink2{fill:var(--ink2)}
  .ink3{fill:var(--ink3)} .rule{stroke:var(--rule)}
  .line,.casing{fill:none;stroke-linecap:round;stroke-linejoin:round}
  .casing{stroke:var(--casing);stroke-width:4.4}
  .line{stroke:var(--accent);stroke-width:2.4}
  .champ{fill:var(--champion)}
  :root{--surface:#FCFCFB;--ink:#1A1D1F;--ink2:#565F63;--ink3:#868F93;--rule:#C9CFD1;--accent:#FBE311;--accent_casing:#004A5C;--champion:#A06A0A;--hatch:#A9B2B6;--band1:#E9F0F2;--band2:#DBE5E8;--band3:#CBD8DC;--band4:#B9C9CF;--casing:#796D08}
</style>
<defs>
  <pattern id="notplayed" width="7" height="7" patternUnits="userSpaceOnUse" patternTransform="rotate(-45)"><line x1="0" y1="0" x2="0" y2="7" stroke="var(--hatch)" stroke-width="1.4"/></pattern>
  <pattern id="uncovered" width="5" height="5" patternUnits="userSpaceOnUse"><circle cx="1.4" cy="1.4" r="1" fill="var(--hatch)"/></pattern>
  <pattern id="notier" width="4" height="4" patternUnits="userSpaceOnUse"><rect width="4" height="4" fill="var(--surface)"/></pattern>
</defs>
<rect class="bg" width="1372" height="630"/>
<rect x="104" y="76" width="13" height="98" fill="var(--band1)"/>
<rect x="104" y="174" width="13" height="112" fill="var(--band2)"/>
<rect x="104" y="286" width="13" height="266" fill="url(#notier)"/>
<rect x="117" y="76" width="13" height="98" fill="var(--band1)"/>
<rect x="117" y="174" width="13" height="112" fill="var(--band2)"/>
<rect x="117" y="286" width="13" height="266" fill="url(#notier)"/>
<rect x="130" y="76" width="13" height="63" fill="var(--band1)"/>
<rect x="130" y="139" width="13" height="112" fill="var(--band2)"/>
<rect x="130" y="251" width="13" height="301" fill="url(#notier)"/>
<rect x="143" y="76" width="13" height="98" fill="var(--band1)"/>
<rect x="143" y="174" width="13" height="112" fill="var(--band2)"/>
<rect x="143" y="286" width="13" height="266" fill="url(#notier)"/>
<rect x="156" y="76" width="13" height="63" fill="var(--band1)"/>
<rect x="156" y="139" width="13" height="112" fill="var(--band2)"/>
<rect x="156" y="251" width="13" height="301" fill="url(#notier)"/>
<rect x="169" y="76" width="13" height="70" fill="var(--band1)"/>
<rect x="169" y="146" width="13" height="112" fill="var(--band2)"/>
<rect x="169" y="258" width="13" height="294" fill="url(#notier)"/>
<rect x="182" y="76" width="13" height="42" fill="var(--band1)"/>
<rect x="182" y="118" width="13" height="112" fill="var(--band2)"/>
<rect x="182" y="230" width="13" height="322" fill="url(#notier)"/>
<rect x="195" y="76" width="13" height="35" fill="var(--band1)"/>
<rect x="195" y="111" width="13" height="35" fill="var(--band2)"/>
<rect x="195" y="146" width="13" height="406" fill="url(#notier)"/>
<rect x="208" y="76" width="13" height="63" fill="var(--band1)"/>
<rect x="208" y="139" width="13" height="42" fill="var(--band2)"/>
<rect x="208" y="181" width="13" height="371" fill="url(#notier)"/>
<rect x="221" y="76" width="13" height="84" fill="var(--band1)"/>
<rect x="221" y="160" width="13" height="112" fill="var(--band2)"/>
<rect x="221" y="272" width="13" height="280" fill="url(#notier)"/>
<rect x="234" y="76" width="13" height="56" fill="var(--band1)"/>
<rect x="234" y="132" width="13" height="70" fill="var(--band2)"/>
<rect x="234" y="202" width="13" height="350" fill="url(#notier)"/>
<rect x="247" y="76" width="13" height="98" fill="var(--band1)"/>
<rect x="247" y="174" width="13" height="112" fill="var(--band2)"/>
<rect x="247" y="286" width="13" height="266" fill="url(#notier)"/>
<rect x="260" y="76" width="13" height="98" fill="var(--band1)"/>
<rect x="260" y="174" width="13" height="49" fill="var(--band2)"/>
<rect x="260" y="223" width="13" height="329" fill="url(#notier)"/>
<rect x="273" y="76" width="13" height="98" fill="var(--band1)"/>
<rect x="273" y="174" width="13" height="112" fill="var(--band2)"/>
<rect x="273" y="286" width="13" height="266" fill="url(#notier)"/>
<rect x="286" y="76" width="13" height="98" fill="var(--band1)"/>
<rect x="286" y="174" width="13" height="98" fill="var(--band2)"/>
<rect x="286" y="272" width="13" height="280" fill="url(#notier)"/>
<rect x="299" y="76" width="13" height="56" fill="var(--band1)"/>
<rect x="299" y="132" width="13" height="112" fill="var(--band2)"/>
<rect x="299" y="244" width="13" height="308" fill="url(#notier)"/>
<rect x="312" y="76" width="13" height="98" fill="var(--band1)"/>
<rect x="312" y="174" width="13" height="112" fill="var(--band2)"/>
<rect x="312" y="286" width="13" height="266" fill="url(#notier)"/>
<rect x="325" y="76" width="13" height="105" fill="var(--band1)"/>
<rect x="325" y="181" width="13" height="91" fill="var(--band2)"/>
<rect x="325" y="272" width="13" height="280" fill="url(#notier)"/>
<rect x="338" y="76" width="13" height="98" fill="var(--band1)"/>
<rect x="338" y="174" width="13" height="112" fill="var(--band2)"/>
<rect x="338" y="286" width="13" height="266" fill="url(#notier)"/>
<rect x="351" y="76" width="13" height="98" fill="var(--band1)"/>
<rect x="351" y="174" width="13" height="112" fill="var(--band2)"/>
<rect x="351" y="286" width="13" height="266" fill="url(#notier)"/>
<rect x="364" y="76" width="13" height="91" fill="var(--band1)"/>
<rect x="364" y="167" width="13" height="63" fill="var(--band2)"/>
<rect x="364" y="230" width="13" height="322" fill="url(#notier)"/>
<rect x="377" y="76" width="13" height="98" fill="var(--band1)"/>
<rect x="377" y="174" width="13" height="112" fill="var(--band2)"/>
<rect x="377" y="286" width="13" height="266" fill="url(#notier)"/>
<rect x="390" y="76" width="13" height="84" fill="var(--band1)"/>
<rect x="390" y="160" width="13" height="98" fill="var(--band2)"/>
<rect x="390" y="258" width="13" height="112" fill="var(--band3)"/>
<rect x="390" y="370" width="13" height="182" fill="url(#notier)"/>
<rect x="403" y="76" width="13" height="98" fill="var(--band1)"/>
<rect x="403" y="174" width="13" height="112" fill="var(--band2)"/>
<rect x="403" y="286" width="13" height="112" fill="var(--band3)"/>
<rect x="403" y="398" width="13" height="154" fill="url(#notier)"/>
<rect x="416" y="76" width="13" height="84" fill="var(--band1)"/>
<rect x="416" y="160" width="13" height="98" fill="var(--band2)"/>
<rect x="416" y="258" width="13" height="112" fill="var(--band3)"/>
<rect x="416" y="370" width="13" height="182" fill="url(#notier)"/>
<rect x="429" y="76" width="13" height="98" fill="var(--band1)"/>
<rect x="429" y="174" width="13" height="112" fill="var(--band2)"/>
<rect x="429" y="286" width="13" height="84" fill="var(--band3)"/>
<rect x="429" y="370" width="13" height="98" fill="var(--band4)"/>
<rect x="429" y="468" width="13" height="84" fill="url(#notier)"/>
<rect x="442" y="76" width="13" height="84" fill="var(--band1)"/>
<rect x="442" y="160" width="13" height="84" fill="var(--band2)"/>
<rect x="442" y="244" width="13" height="84" fill="var(--band3)"/>
<rect x="442" y="328" width="13" height="70" fill="var(--band4)"/>
<rect x="442" y="398" width="13" height="154" fill="url(#notier)"/>
<rect x="455" y="76" width="13" height="70" fill="var(--band1)"/>
<rect x="455" y="146" width="13" height="84" fill="var(--band2)"/>
<rect x="455" y="230" width="13" height="91" fill="var(--band3)"/>
<rect x="455" y="321" width="13" height="112" fill="var(--band4)"/>
<rect x="455" y="433" width="13" height="119" fill="url(#notier)"/>
<rect x="468" y="76" width="13" height="84" fill="var(--band1)"/>
<rect x="468" y="160" width="13" height="84" fill="var(--band2)"/>
<rect x="468" y="244" width="13" height="84" fill="var(--band3)"/>
<rect x="468" y="328" width="13" height="112" fill="var(--band4)"/>
<rect x="468" y="440" width="13" height="112" fill="url(#notier)"/>
<rect x="481" y="76" width="13" height="84" fill="var(--band1)"/>
<rect x="481" y="160" width="13" height="84" fill="var(--band2)"/>
<rect x="481" y="244" width="13" height="84" fill="var(--band3)"/>
<rect x="481" y="328" width="13" height="112" fill="var(--band4)"/>
<rect x="481" y="440" width="13" height="112" fill="url(#notier)"/>
<rect x="494" y="76" width="13" height="84" fill="var(--band1)"/>
<rect x="494" y="160" width="13" height="98" fill="var(--band2)"/>
<rect x="494" y="258" width="13" height="112" fill="var(--band3)"/>
<rect x="494" y="370" width="13" height="112" fill="var(--band4)"/>
<rect x="494" y="482" width="13" height="70" fill="url(#notier)"/>
<rect x="507" y="76" width="13" height="84" fill="var(--band1)"/>
<rect x="507" y="160" width="13" height="98" fill="var(--band2)"/>
<rect x="507" y="258" width="13" height="112" fill="var(--band3)"/>
<rect x="507" y="370" width="13" height="112" fill="var(--band4)"/>
<rect x="507" y="482" width="13" height="70" fill="url(#notier)"/>
<rect x="520" y="76" width="13" height="84" fill="var(--band1)"/>
<rect x="520" y="160" width="13" height="98" fill="var(--band2)"/>
<rect x="520" y="258" width="13" height="112" fill="var(--band3)"/>
<rect x="520" y="370" width="13" height="112" fill="var(--band4)"/>
<rect x="520" y="482" width="13" height="70" fill="url(#notier)"/>
<rect x="533" y="76" width="13" height="84" fill="var(--band1)"/>
<rect x="533" y="160" width="13" height="112" fill="var(--band2)"/>
<rect x="533" y="272" width="13" height="112" fill="var(--band3)"/>
<rect x="533" y="384" width="13" height="105" fill="var(--band4)"/>
<rect x="533" y="489" width="13" height="63" fill="url(#notier)"/>
<rect x="546" y="76" width="13" height="105" fill="var(--band1)"/>
<rect x="546" y="181" width="13" height="98" fill="var(--band2)"/>
<rect x="546" y="279" width="13" height="112" fill="var(--band3)"/>
<rect x="546" y="391" width="13" height="91" fill="var(--band4)"/>
<rect x="546" y="482" width="13" height="70" fill="url(#notier)"/>
<rect x="559" y="76" width="13" height="112" fill="var(--band1)"/>
<rect x="559" y="188" width="13" height="112" fill="var(--band2)"/>
<rect x="559" y="300" width="13" height="112" fill="var(--band3)"/>
<rect x="559" y="412" width="13" height="98" fill="var(--band4)"/>
<rect x="559" y="510" width="13" height="42" fill="url(#notier)"/>
<rect x="572" y="76" width="13" height="112" fill="var(--band1)"/>
<rect x="572" y="188" width="13" height="112" fill="var(--band2)"/>
<rect x="572" y="300" width="13" height="112" fill="var(--band3)"/>
<rect x="572" y="412" width="13" height="105" fill="var(--band4)"/>
<rect x="572" y="517" width="13" height="35" fill="url(#notier)"/>
<rect x="585" y="76" width="13" height="112" fill="var(--band1)"/>
<rect x="585" y="188" width="13" height="112" fill="var(--band2)"/>
<rect x="585" y="300" width="13" height="112" fill="var(--band3)"/>
<rect x="585" y="412" width="13" height="98" fill="var(--band4)"/>
<rect x="585" y="510" width="13" height="42" fill="url(#notier)"/>
<rect x="598" y="76" width="13" height="112" fill="var(--band1)"/>
<rect x="598" y="188" width="13" height="112" fill="var(--band2)"/>
<rect x="598" y="300" width="13" height="112" fill="var(--band3)"/>
<rect x="598" y="412" width="13" height="112" fill="var(--band4)"/>
<rect x="598" y="524" width="13" height="28" fill="url(#notier)"/>
<rect x="611" y="76" width="13" height="112" fill="var(--band1)"/>
<rect x="611" y="188" width="13" height="112" fill="var(--band2)"/>
<rect x="611" y="300" width="13" height="112" fill="var(--band3)"/>
<rect x="611" y="412" width="13" height="112" fill="var(--band4)"/>
<rect x="611" y="524" width="13" height="28" fill="url(#notier)"/>
<rect x="624" y="76" width="13" height="112" fill="var(--band1)"/>
<rect x="624" y="188" width="13" height="112" fill="var(--band2)"/>
<rect x="624" y="300" width="13" height="112" fill="var(--band3)"/>
<rect x="624" y="412" width="13" height="112" fill="var(--band4)"/>
<rect x="624" y="524" width="13" height="28" fill="url(#notier)"/>
<rect x="637" y="76" width="13" height="112" fill="var(--band1)"/>
<rect x="637" y="188" width="13" height="112" fill="var(--band2)"/>
<rect x="637" y="300" width="13" height="112" fill="var(--band3)"/>
<rect x="637" y="412" width="13" height="112" fill="var(--band4)"/>
<rect x="637" y="524" width="13" height="28" fill="url(#notier)"/>
<rect x="650" y="76" width="13" height="112" fill="var(--band1)"/>
<rect x="650" y="188" width="13" height="112" fill="var(--band2)"/>
<rect x="650" y="300" width="13" height="112" fill="var(--band3)"/>
<rect x="650" y="412" width="13" height="112" fill="var(--band4)"/>
<rect x="650" y="524" width="13" height="28" fill="url(#notier)"/>
<rect x="663" y="76" width="13" height="112" fill="var(--band1)"/>
<rect x="663" y="188" width="13" height="112" fill="var(--band2)"/>
<rect x="663" y="300" width="13" height="112" fill="var(--band3)"/>
<rect x="663" y="412" width="13" height="112" fill="var(--band4)"/>
<rect x="663" y="524" width="13" height="28" fill="url(#notier)"/>
<rect x="676" y="76" width="13" height="112" fill="var(--band1)"/>
<rect x="676" y="188" width="13" height="112" fill="var(--band2)"/>
<rect x="676" y="300" width="13" height="112" fill="var(--band3)"/>
<rect x="676" y="412" width="13" height="112" fill="var(--band4)"/>
<rect x="676" y="524" width="13" height="28" fill="url(#notier)"/>
<rect x="689" y="76" width="13" height="126" fill="var(--band1)"/>
<rect x="689" y="202" width="13" height="119" fill="var(--band2)"/>
<rect x="689" y="321" width="13" height="105" fill="var(--band3)"/>
<rect x="689" y="426" width="13" height="112" fill="var(--band4)"/>
<rect x="689" y="538" width="13" height="14" fill="url(#notier)"/>
<rect x="702" y="76" width="13" height="112" fill="var(--band1)"/>
<rect x="702" y="188" width="13" height="84" fill="var(--band2)"/>
<rect x="702" y="272" width="13" height="98" fill="var(--band3)"/>
<rect x="702" y="370" width="13" height="98" fill="var(--band4)"/>
<rect x="702" y="468" width="13" height="84" fill="url(#notier)"/>
<rect x="715" y="76" width="13" height="98" fill="var(--band1)"/>
<rect x="715" y="174" width="13" height="98" fill="var(--band2)"/>
<rect x="715" y="272" width="13" height="98" fill="var(--band3)"/>
<rect x="715" y="370" width="13" height="98" fill="var(--band4)"/>
<rect x="715" y="468" width="13" height="84" fill="url(#notier)"/>
<rect x="728" y="76" width="13" height="112" fill="var(--band1)"/>
<rect x="728" y="188" width="13" height="112" fill="var(--band2)"/>
<rect x="728" y="300" width="13" height="98" fill="var(--band3)"/>
<rect x="728" y="398" width="13" height="98" fill="var(--band4)"/>
<rect x="728" y="496" width="13" height="56" fill="url(#notier)"/>
<rect x="741" y="76" width="13" height="112" fill="var(--band1)"/>
<rect x="741" y="188" width="13" height="112" fill="var(--band2)"/>
<rect x="741" y="300" width="13" height="98" fill="var(--band3)"/>
<rect x="741" y="398" width="13" height="98" fill="var(--band4)"/>
<rect x="741" y="496" width="13" height="56" fill="url(#notier)"/>
<rect x="754" y="76" width="13" height="112" fill="var(--band1)"/>
<rect x="754" y="188" width="13" height="112" fill="var(--band2)"/>
<rect x="754" y="300" width="13" height="98" fill="var(--band3)"/>
<rect x="754" y="398" width="13" height="98" fill="var(--band4)"/>
<rect x="754" y="496" width="13" height="56" fill="url(#notier)"/>
<rect x="767" y="76" width="13" height="112" fill="var(--band1)"/>
<rect x="767" y="188" width="13" height="112" fill="var(--band2)"/>
<rect x="767" y="300" width="13" height="98" fill="var(--band3)"/>
<rect x="767" y="398" width="13" height="98" fill="var(--band4)"/>
<rect x="767" y="496" width="13" height="56" fill="url(#notier)"/>
<rect x="780" y="76" width="13" height="112" fill="var(--band1)"/>
<rect x="780" y="188" width="13" height="112" fill="var(--band2)"/>
<rect x="780" y="300" width="13" height="98" fill="var(--band3)"/>
<rect x="780" y="398" width="13" height="98" fill="var(--band4)"/>
<rect x="780" y="496" width="13" height="56" fill="url(#notier)"/>
<rect x="793" y="76" width="13" height="112" fill="var(--band1)"/>
<rect x="793" y="188" width="13" height="112" fill="var(--band2)"/>
<rect x="793" y="300" width="13" height="98" fill="var(--band3)"/>
<rect x="793" y="398" width="13" height="98" fill="var(--band4)"/>
<rect x="793" y="496" width="13" height="56" fill="url(#notier)"/>
<rect x="806" y="76" width="13" height="112" fill="var(--band1)"/>
<rect x="806" y="188" width="13" height="112" fill="var(--band2)"/>
<rect x="806" y="300" width="13" height="98" fill="var(--band3)"/>
<rect x="806" y="398" width="13" height="98" fill="var(--band4)"/>
<rect x="806" y="496" width="13" height="56" fill="url(#notier)"/>
<rect x="819" y="76" width="13" height="112" fill="var(--band1)"/>
<rect x="819" y="188" width="13" height="112" fill="var(--band2)"/>
<rect x="819" y="300" width="13" height="98" fill="var(--band3)"/>
<rect x="819" y="398" width="13" height="98" fill="var(--band4)"/>
<rect x="819" y="496" width="13" height="56" fill="url(#notier)"/>
<rect x="832" y="76" width="13" height="112" fill="var(--band1)"/>
<rect x="832" y="188" width="13" height="112" fill="var(--band2)"/>
<rect x="832" y="300" width="13" height="98" fill="var(--band3)"/>
<rect x="832" y="398" width="13" height="98" fill="var(--band4)"/>
<rect x="832" y="496" width="13" height="56" fill="url(#notier)"/>
<rect x="845" y="76" width="13" height="98" fill="var(--band1)"/>
<rect x="845" y="174" width="13" height="98" fill="var(--band2)"/>
<rect x="845" y="272" width="13" height="112" fill="var(--band3)"/>
<rect x="845" y="384" width="13" height="98" fill="var(--band4)"/>
<rect x="845" y="482" width="13" height="70" fill="url(#notier)"/>
<rect x="858" y="76" width="13" height="98" fill="var(--band1)"/>
<rect x="858" y="174" width="13" height="98" fill="var(--band2)"/>
<rect x="858" y="272" width="13" height="112" fill="var(--band3)"/>
<rect x="858" y="384" width="13" height="98" fill="var(--band4)"/>
<rect x="858" y="482" width="13" height="70" fill="url(#notier)"/>
<rect x="871" y="76" width="13" height="84" fill="var(--band1)"/>
<rect x="871" y="160" width="13" height="112" fill="var(--band2)"/>
<rect x="871" y="272" width="13" height="112" fill="var(--band3)"/>
<rect x="871" y="384" width="13" height="112" fill="var(--band4)"/>
<rect x="871" y="496" width="13" height="56" fill="url(#notier)"/>
<rect x="884" y="76" width="13" height="84" fill="var(--band1)"/>
<rect x="884" y="160" width="13" height="112" fill="var(--band2)"/>
<rect x="884" y="272" width="13" height="112" fill="var(--band3)"/>
<rect x="884" y="384" width="13" height="112" fill="var(--band4)"/>
<rect x="884" y="496" width="13" height="56" fill="url(#notier)"/>
<rect x="897" y="76" width="13" height="84" fill="var(--band1)"/>
<rect x="897" y="160" width="13" height="112" fill="var(--band2)"/>
<rect x="897" y="272" width="13" height="112" fill="var(--band3)"/>
<rect x="897" y="384" width="13" height="112" fill="var(--band4)"/>
<rect x="897" y="496" width="13" height="56" fill="url(#notier)"/>
<rect x="910" y="76" width="13" height="84" fill="var(--band1)"/>
<rect x="910" y="160" width="13" height="112" fill="var(--band2)"/>
<rect x="910" y="272" width="13" height="112" fill="var(--band3)"/>
<rect x="910" y="384" width="13" height="112" fill="var(--band4)"/>
<rect x="910" y="496" width="13" height="56" fill="url(#notier)"/>
<rect x="923" y="76" width="13" height="98" fill="var(--band1)"/>
<rect x="923" y="174" width="13" height="112" fill="var(--band2)"/>
<rect x="923" y="286" width="13" height="112" fill="var(--band3)"/>
<rect x="923" y="398" width="13" height="112" fill="var(--band4)"/>
<rect x="923" y="510" width="13" height="42" fill="url(#notier)"/>
<rect x="936" y="76" width="13" height="112" fill="var(--band1)"/>
<rect x="936" y="188" width="13" height="112" fill="var(--band2)"/>
<rect x="936" y="300" width="13" height="112" fill="var(--band3)"/>
<rect x="936" y="412" width="13" height="112" fill="var(--band4)"/>
<rect x="936" y="524" width="13" height="28" fill="url(#notier)"/>
<rect x="949" y="76" width="13" height="112" fill="var(--band1)"/>
<rect x="949" y="188" width="13" height="112" fill="var(--band2)"/>
<rect x="949" y="300" width="13" height="112" fill="var(--band3)"/>
<rect x="949" y="412" width="13" height="112" fill="var(--band4)"/>
<rect x="949" y="524" width="13" height="28" fill="url(#notier)"/>
<rect x="962" y="76" width="13" height="112" fill="var(--band1)"/>
<rect x="962" y="188" width="13" height="112" fill="var(--band2)"/>
<rect x="962" y="300" width="13" height="112" fill="var(--band3)"/>
<rect x="962" y="412" width="13" height="112" fill="var(--band4)"/>
<rect x="962" y="524" width="13" height="28" fill="url(#notier)"/>
<rect x="975" y="76" width="13" height="112" fill="var(--band1)"/>
<rect x="975" y="188" width="13" height="112" fill="var(--band2)"/>
<rect x="975" y="300" width="13" height="112" fill="var(--band3)"/>
<rect x="975" y="412" width="13" height="112" fill="var(--band4)"/>
<rect x="975" y="524" width="13" height="28" fill="url(#notier)"/>
<rect x="988" y="76" width="13" height="112" fill="var(--band1)"/>
<rect x="988" y="188" width="13" height="112" fill="var(--band2)"/>
<rect x="988" y="300" width="13" height="112" fill="var(--band3)"/>
<rect x="988" y="412" width="13" height="112" fill="var(--band4)"/>
<rect x="988" y="524" width="13" height="28" fill="url(#notier)"/>
<rect x="1001" y="76" width="13" height="98" fill="var(--band1)"/>
<rect x="1001" y="174" width="13" height="70" fill="var(--band2)"/>
<rect x="1001" y="244" width="13" height="84" fill="var(--band3)"/>
<rect x="1001" y="328" width="13" height="98" fill="var(--band4)"/>
<rect x="1001" y="426" width="13" height="126" fill="url(#notier)"/>
<rect x="1014" y="76" width="13" height="84" fill="var(--band1)"/>
<rect x="1014" y="160" width="13" height="84" fill="var(--band2)"/>
<rect x="1014" y="244" width="13" height="84" fill="var(--band3)"/>
<rect x="1014" y="328" width="13" height="105" fill="var(--band4)"/>
<rect x="1014" y="433" width="13" height="119" fill="url(#notier)"/>
<rect x="1027" y="76" width="13" height="84" fill="var(--band1)"/>
<rect x="1027" y="160" width="13" height="84" fill="var(--band2)"/>
<rect x="1027" y="244" width="13" height="84" fill="var(--band3)"/>
<rect x="1027" y="328" width="13" height="105" fill="var(--band4)"/>
<rect x="1027" y="433" width="13" height="119" fill="url(#notier)"/>
<rect x="1040" y="76" width="13" height="84" fill="var(--band1)"/>
<rect x="1040" y="160" width="13" height="84" fill="var(--band2)"/>
<rect x="1040" y="244" width="13" height="84" fill="var(--band3)"/>
<rect x="1040" y="328" width="13" height="98" fill="var(--band4)"/>
<rect x="1040" y="426" width="13" height="126" fill="url(#notier)"/>
<rect x="1053" y="76" width="13" height="84" fill="var(--band1)"/>
<rect x="1053" y="160" width="13" height="84" fill="var(--band2)"/>
<rect x="1053" y="244" width="13" height="84" fill="var(--band3)"/>
<rect x="1053" y="328" width="13" height="98" fill="var(--band4)"/>
<rect x="1053" y="426" width="13" height="126" fill="url(#notier)"/>
<rect x="1066" y="76" width="13" height="84" fill="var(--band1)"/>
<rect x="1066" y="160" width="13" height="84" fill="var(--band2)"/>
<rect x="1066" y="244" width="13" height="84" fill="var(--band3)"/>
<rect x="1066" y="328" width="13" height="98" fill="var(--band4)"/>
<rect x="1066" y="426" width="13" height="126" fill="url(#notier)"/>
<rect x="1079" y="76" width="13" height="84" fill="var(--band1)"/>
<rect x="1079" y="160" width="13" height="84" fill="var(--band2)"/>
<rect x="1079" y="244" width="13" height="84" fill="var(--band3)"/>
<rect x="1079" y="328" width="13" height="98" fill="var(--band4)"/>
<rect x="1079" y="426" width="13" height="126" fill="url(#notier)"/>
<rect x="1092" y="76" width="13" height="84" fill="var(--band1)"/>
<rect x="1092" y="160" width="13" height="84" fill="var(--band2)"/>
<rect x="1092" y="244" width="13" height="84" fill="var(--band3)"/>
<rect x="1092" y="328" width="13" height="98" fill="var(--band4)"/>
<rect x="1092" y="426" width="13" height="126" fill="url(#notier)"/>
<rect x="1105" y="76" width="13" height="84" fill="var(--band1)"/>
<rect x="1105" y="160" width="13" height="84" fill="var(--band2)"/>
<rect x="1105" y="244" width="13" height="84" fill="var(--band3)"/>
<rect x="1105" y="328" width="13" height="98" fill="var(--band4)"/>
<rect x="1105" y="426" width="13" height="126" fill="url(#notier)"/>
<rect x="1118" y="76" width="13" height="84" fill="var(--band1)"/>
<rect x="1118" y="160" width="13" height="84" fill="var(--band2)"/>
<rect x="1118" y="244" width="13" height="84" fill="var(--band3)"/>
<rect x="1118" y="328" width="13" height="98" fill="var(--band4)"/>
<rect x="1118" y="426" width="13" height="126" fill="url(#notier)"/>
<rect x="1131" y="76" width="13" height="112" fill="var(--band1)"/>
<rect x="1131" y="188" width="13" height="112" fill="var(--band2)"/>
<rect x="1131" y="300" width="13" height="112" fill="var(--band3)"/>
<rect x="1131" y="412" width="13" height="112" fill="var(--band4)"/>
<rect x="1131" y="524" width="13" height="28" fill="url(#notier)"/>
<rect x="1144" y="76" width="13" height="112" fill="var(--band1)"/>
<rect x="1144" y="188" width="13" height="112" fill="var(--band2)"/>
<rect x="1144" y="300" width="13" height="112" fill="var(--band3)"/>
<rect x="1144" y="412" width="13" height="112" fill="var(--band4)"/>
<rect x="1144" y="524" width="13" height="28" fill="url(#notier)"/>
<rect x="1157" y="76" width="13" height="112" fill="var(--band1)"/>
<rect x="1157" y="188" width="13" height="112" fill="var(--band2)"/>
<rect x="1157" y="300" width="13" height="112" fill="var(--band3)"/>
<rect x="1157" y="412" width="13" height="112" fill="var(--band4)"/>
<rect x="1157" y="524" width="13" height="28" fill="url(#notier)"/>
<rect x="1170" y="76" width="13" height="98" fill="var(--band1)"/>
<rect x="1170" y="174" width="13" height="112" fill="var(--band2)"/>
<rect x="1170" y="286" width="13" height="112" fill="var(--band3)"/>
<rect x="1170" y="398" width="13" height="112" fill="var(--band4)"/>
<rect x="1170" y="510" width="13" height="42" fill="url(#notier)"/>
<rect x="1183" y="76" width="13" height="98" fill="var(--band1)"/>
<rect x="1183" y="174" width="13" height="112" fill="var(--band2)"/>
<rect x="1183" y="286" width="13" height="112" fill="var(--band3)"/>
<rect x="1183" y="398" width="13" height="112" fill="var(--band4)"/>
<rect x="1183" y="510" width="13" height="42" fill="url(#notier)"/>
<rect x="1196" y="76" width="13" height="98" fill="var(--band1)"/>
<rect x="1196" y="174" width="13" height="112" fill="var(--band2)"/>
<rect x="1196" y="286" width="13" height="112" fill="var(--band3)"/>
<rect x="1196" y="398" width="13" height="112" fill="var(--band4)"/>
<rect x="1196" y="510" width="13" height="42" fill="url(#notier)"/>
<rect x="1209" y="76" width="13" height="98" fill="var(--band1)"/>
<rect x="1209" y="174" width="13" height="112" fill="var(--band2)"/>
<rect x="1209" y="286" width="13" height="112" fill="var(--band3)"/>
<rect x="1209" y="398" width="13" height="112" fill="var(--band4)"/>
<rect x="1209" y="510" width="13" height="42" fill="url(#notier)"/>
<rect x="1222" y="76" width="13" height="98" fill="var(--band1)"/>
<rect x="1222" y="174" width="13" height="112" fill="var(--band2)"/>
<rect x="1222" y="286" width="13" height="112" fill="var(--band3)"/>
<rect x="1222" y="398" width="13" height="112" fill="var(--band4)"/>
<rect x="1222" y="510" width="13" height="42" fill="url(#notier)"/>
<rect x="1235" y="76" width="13" height="98" fill="var(--band1)"/>
<rect x="1235" y="174" width="13" height="112" fill="var(--band2)"/>
<rect x="1235" y="286" width="13" height="112" fill="var(--band3)"/>
<rect x="1235" y="398" width="13" height="112" fill="var(--band4)"/>
<rect x="1235" y="510" width="13" height="42" fill="url(#notier)"/>
<rect x="1248" y="76" width="13" height="98" fill="var(--band1)"/>
<rect x="1248" y="174" width="13" height="112" fill="var(--band2)"/>
<rect x="1248" y="286" width="13" height="112" fill="var(--band3)"/>
<rect x="1248" y="398" width="13" height="112" fill="var(--band4)"/>
<rect x="1248" y="510" width="13" height="42" fill="url(#notier)"/>
<rect x="1261" y="76" width="13" height="98" fill="var(--band1)"/>
<rect x="1261" y="174" width="13" height="112" fill="var(--band2)"/>
<rect x="1261" y="286" width="13" height="112" fill="var(--band3)"/>
<rect x="1261" y="398" width="13" height="112" fill="var(--band4)"/>
<rect x="1261" y="510" width="13" height="42" fill="url(#notier)"/>
<rect x="1274" y="76" width="13" height="98" fill="var(--band1)"/>
<rect x="1274" y="174" width="13" height="112" fill="var(--band2)"/>
<rect x="1274" y="286" width="13" height="63" fill="var(--band3)"/>
<rect x="1274" y="349" width="13" height="63" fill="var(--band4)"/>
<rect x="1274" y="412" width="13" height="140" fill="url(#notier)"/>
<rect x="1287" y="76" width="13" height="98" fill="var(--band1)"/>
<rect x="1287" y="174" width="13" height="112" fill="var(--band2)"/>
<rect x="1287" y="286" width="13" height="126" fill="var(--band3)"/>
<rect x="1287" y="412" width="13" height="112" fill="var(--band4)"/>
<rect x="1287" y="524" width="13" height="28" fill="url(#notier)"/>
<rect x="1300" y="76" width="13" height="98" fill="var(--band1)"/>
<rect x="1300" y="174" width="13" height="112" fill="var(--band2)"/>
<rect x="1300" y="286" width="13" height="112" fill="var(--band3)"/>
<rect x="1300" y="398" width="13" height="112" fill="var(--band4)"/>
<rect x="1300" y="510" width="13" height="42" fill="url(#notier)"/>
<rect x="1313" y="76" width="13" height="98" fill="var(--band1)"/>
<rect x="1313" y="174" width="13" height="112" fill="var(--band2)"/>
<rect x="1313" y="286" width="13" height="112" fill="var(--band3)"/>
<rect x="1313" y="398" width="13" height="112" fill="var(--band4)"/>
<rect x="1313" y="510" width="13" height="42" fill="url(#notier)"/>
<rect x="1326" y="76" width="13" height="98" fill="var(--band1)"/>
<rect x="1326" y="174" width="13" height="112" fill="var(--band2)"/>
<rect x="1326" y="286" width="13" height="119" fill="var(--band3)"/>
<rect x="1326" y="405" width="13" height="112" fill="var(--band4)"/>
<rect x="1326" y="517" width="13" height="35" fill="url(#notier)"/>
<rect x="1339" y="76" width="13" height="98" fill="var(--band1)"/>
<rect x="1339" y="174" width="13" height="112" fill="var(--band2)"/>
<rect x="1339" y="286" width="13" height="112" fill="var(--band3)"/>
<rect x="1339" y="398" width="13" height="112" fill="var(--band4)"/>
<rect x="1339" y="510" width="13" height="42" fill="url(#notier)"/>
<rect x="104" y="76" width="13" height="476" fill="url(#notplayed)" fill-opacity=".8"/>
<rect x="117" y="76" width="13" height="476" fill="url(#notplayed)" fill-opacity=".8"/>
<rect x="143" y="76" width="13" height="476" fill="url(#notplayed)" fill-opacity=".8"/>
<rect x="247" y="76" width="13" height="476" fill="url(#notplayed)" fill-opacity=".8"/>
<rect x="273" y="76" width="13" height="476" fill="url(#notplayed)" fill-opacity=".8"/>
<rect x="312" y="76" width="13" height="476" fill="url(#notplayed)" fill-opacity=".8"/>
<rect x="338" y="76" width="13" height="476" fill="url(#notplayed)" fill-opacity=".8"/>
<rect x="351" y="76" width="13" height="476" fill="url(#notplayed)" fill-opacity=".8"/>
<rect x="377" y="76" width="13" height="476" fill="url(#notplayed)" fill-opacity=".8"/>
<rect x="390" y="370" width="13" height="182" fill="url(#uncovered)"/>
<rect x="403" y="76" width="13" height="476" fill="url(#notplayed)" fill-opacity=".8"/>
<rect x="416" y="370" width="13" height="182" fill="url(#uncovered)"/>
<rect x="455" y="433" width="13" height="119" fill="url(#uncovered)"/>
<rect x="1118" y="426" width="13" height="126" fill="url(#uncovered)"/>
<rect x="1222" y="510" width="13" height="42" fill="url(#uncovered)"/>
<path class="casing" d="M364.0 195.0H377.0"/>
<path class="casing" d="M435.5 419.0 C439.8 388.7 444.2 358.3 448.5 328.0"/>
<path class="casing" d="M474.5 258.0 C478.8 265.0 483.2 279.0 487.5 279.0 C491.8 279.0 496.2 265.0 500.5 265.0 C504.8 265.0 509.2 265.0 513.5 265.0 C517.8 265.0 522.2 261.5 526.5 258.0 C530.8 254.5 535.2 252.2 539.5 244.0 C543.8 235.8 548.2 209.0 552.5 209.0 C556.8 209.0 561.2 237.0 565.5 237.0 C569.8 237.0 574.2 209.0 578.5 209.0 C582.8 209.0 587.2 223.0 591.5 223.0 C595.8 223.0 600.2 214.8 604.5 209.0 C608.8 203.2 613.2 192.7 617.5 188.0 C621.8 183.3 626.2 181.0 630.5 181.0 C634.8 181.0 639.2 195.0 643.5 195.0 C647.8 195.0 652.2 195.0 656.5 195.0 C660.8 195.0 665.2 195.0 669.5 202.0 C673.8 209.0 678.2 272.0 682.5 272.0 C686.8 272.0 691.2 209.0 695.5 209.0 C699.8 209.0 704.2 223.0 708.5 223.0 C712.8 223.0 717.2 223.0 721.5 223.0 C725.8 223.0 730.2 209.0 734.5 209.0 C738.8 209.0 743.2 259.2 747.5 272.0 C751.8 284.8 756.2 272.0 760.5 286.0 C764.8 300.0 769.2 356.0 773.5 356.0 C777.8 356.0 782.2 330.3 786.5 314.0 C790.8 297.7 795.2 273.2 799.5 258.0 C803.8 242.8 808.2 231.2 812.5 223.0 C816.8 214.8 821.2 214.8 825.5 209.0 C829.8 203.2 834.2 202.0 838.5 188.0 C842.8 174.0 847.2 125.0 851.5 125.0 C855.8 125.0 860.2 160.0 864.5 160.0 C868.8 160.0 873.2 160.0 877.5 160.0 C881.8 160.0 886.2 137.8 890.5 132.0 C894.8 126.2 899.2 128.5 903.5 125.0 C907.8 121.5 912.2 111.0 916.5 111.0 C920.8 111.0 925.2 139.0 929.5 139.0 C933.8 139.0 938.2 118.0 942.5 118.0 C946.8 118.0 951.2 150.7 955.5 160.0 C959.8 169.3 964.2 168.2 968.5 174.0 C972.8 179.8 977.2 195.0 981.5 195.0 C985.8 195.0 990.2 167.0 994.5 167.0 C998.8 167.0 1003.2 174.0 1007.5 174.0 C1011.8 174.0 1016.2 153.0 1020.5 153.0 C1024.8 153.0 1029.2 230.0 1033.5 230.0 C1037.8 230.0 1042.2 216.0 1046.5 216.0 C1050.8 216.0 1055.2 226.5 1059.5 230.0 C1063.8 233.5 1068.2 230.0 1072.5 237.0 C1076.8 244.0 1081.2 293.0 1085.5 321.0 C1089.8 349.0 1094.2 405.0 1098.5 405.0 C1102.8 405.0 1107.2 405.0 1111.5 405.0"/>
<path class="casing" d="M1137.5 321.0 C1141.8 346.7 1146.2 372.3 1150.5 398.0 C1154.8 423.7 1159.2 475.0 1163.5 475.0 C1167.8 475.0 1172.2 419.0 1176.5 419.0 C1180.8 419.0 1185.2 489.0 1189.5 489.0 C1193.8 489.0 1198.2 405.0 1202.5 405.0 C1206.8 405.0 1211.2 461.0 1215.5 489.0"/>
<path class="casing" d="M1241.5 314.0 C1245.8 321.0 1250.2 328.0 1254.5 335.0"/>
<path class="casing" d="M1274.0 286.0H1287.0"/>
<path class="line" d="M364.0 195.0H377.0"/>
<path class="line" d="M435.5 419.0 C439.8 388.7 444.2 358.3 448.5 328.0"/>
<path class="line" d="M474.5 258.0 C478.8 265.0 483.2 279.0 487.5 279.0 C491.8 279.0 496.2 265.0 500.5 265.0 C504.8 265.0 509.2 265.0 513.5 265.0 C517.8 265.0 522.2 261.5 526.5 258.0 C530.8 254.5 535.2 252.2 539.5 244.0 C543.8 235.8 548.2 209.0 552.5 209.0 C556.8 209.0 561.2 237.0 565.5 237.0 C569.8 237.0 574.2 209.0 578.5 209.0 C582.8 209.0 587.2 223.0 591.5 223.0 C595.8 223.0 600.2 214.8 604.5 209.0 C608.8 203.2 613.2 192.7 617.5 188.0 C621.8 183.3 626.2 181.0 630.5 181.0 C634.8 181.0 639.2 195.0 643.5 195.0 C647.8 195.0 652.2 195.0 656.5 195.0 C660.8 195.0 665.2 195.0 669.5 202.0 C673.8 209.0 678.2 272.0 682.5 272.0 C686.8 272.0 691.2 209.0 695.5 209.0 C699.8 209.0 704.2 223.0 708.5 223.0 C712.8 223.0 717.2 223.0 721.5 223.0 C725.8 223.0 730.2 209.0 734.5 209.0 C738.8 209.0 743.2 259.2 747.5 272.0 C751.8 284.8 756.2 272.0 760.5 286.0 C764.8 300.0 769.2 356.0 773.5 356.0 C777.8 356.0 782.2 330.3 786.5 314.0 C790.8 297.7 795.2 273.2 799.5 258.0 C803.8 242.8 808.2 231.2 812.5 223.0 C816.8 214.8 821.2 214.8 825.5 209.0 C829.8 203.2 834.2 202.0 838.5 188.0 C842.8 174.0 847.2 125.0 851.5 125.0 C855.8 125.0 860.2 160.0 864.5 160.0 C868.8 160.0 873.2 160.0 877.5 160.0 C881.8 160.0 886.2 137.8 890.5 132.0 C894.8 126.2 899.2 128.5 903.5 125.0 C907.8 121.5 912.2 111.0 916.5 111.0 C920.8 111.0 925.2 139.0 929.5 139.0 C933.8 139.0 938.2 118.0 942.5 118.0 C946.8 118.0 951.2 150.7 955.5 160.0 C959.8 169.3 964.2 168.2 968.5 174.0 C972.8 179.8 977.2 195.0 981.5 195.0 C985.8 195.0 990.2 167.0 994.5 167.0 C998.8 167.0 1003.2 174.0 1007.5 174.0 C1011.8 174.0 1016.2 153.0 1020.5 153.0 C1024.8 153.0 1029.2 230.0 1033.5 230.0 C1037.8 230.0 1042.2 216.0 1046.5 216.0 C1050.8 216.0 1055.2 226.5 1059.5 230.0 C1063.8 233.5 1068.2 230.0 1072.5 237.0 C1076.8 244.0 1081.2 293.0 1085.5 321.0 C1089.8 349.0 1094.2 405.0 1098.5 405.0 C1102.8 405.0 1107.2 405.0 1111.5 405.0"/>
<path class="line" d="M1137.5 321.0 C1141.8 346.7 1146.2 372.3 1150.5 398.0 C1154.8 423.7 1159.2 475.0 1163.5 475.0 C1167.8 475.0 1172.2 419.0 1176.5 419.0 C1180.8 419.0 1185.2 489.0 1189.5 489.0 C1193.8 489.0 1198.2 405.0 1202.5 405.0 C1206.8 405.0 1211.2 461.0 1215.5 489.0"/>
<path class="line" d="M1241.5 314.0 C1245.8 321.0 1250.2 328.0 1254.5 335.0"/>
<path class="line" d="M1274.0 286.0H1287.0"/>
<text class="ink2" x="93" y="128.0" text-anchor="end" font-size="10.5" font-weight="600" letter-spacing=".05em">TIER 1</text>
<text class="ink2" x="93" y="233.0" text-anchor="end" font-size="10.5" font-weight="600" letter-spacing=".05em">TIER 2</text>
<text class="ink2" x="93" y="345.0" text-anchor="end" font-size="10.5" font-weight="600" letter-spacing=".05em">TIER 3</text>
<text class="ink2" x="93" y="457.0" text-anchor="end" font-size="10.5" font-weight="600" letter-spacing=".05em">TIER 4</text>
<path class="rule" d="M104 552.5h1248" fill="none"/>
<path class="rule" d="M104 552v5" fill="none"/>
<text class="ink3" x="104" y="569" text-anchor="start" font-size="10.5">29/30</text>
<path class="rule" d="M240.5 552v5" fill="none"/>
<text class="ink3" x="240.5" y="569" text-anchor="middle" font-size="10.5">1940</text>
<path class="rule" d="M383.5 552v5" fill="none"/>
<text class="ink3" x="383.5" y="569" text-anchor="middle" font-size="10.5">1950</text>
<path class="rule" d="M513.5 552v5" fill="none"/>
<text class="ink3" x="513.5" y="569" text-anchor="middle" font-size="10.5">1960</text>
<path class="rule" d="M630.5 552v5" fill="none"/>
<text class="ink3" x="630.5" y="569" text-anchor="middle" font-size="10.5">1970</text>
<path class="rule" d="M760.5 552v5" fill="none"/>
<text class="ink3" x="760.5" y="569" text-anchor="middle" font-size="10.5">1980</text>
<path class="rule" d="M890.5 552v5" fill="none"/>
<text class="ink3" x="890.5" y="569" text-anchor="middle" font-size="10.5">1990</text>
<path class="rule" d="M1020.5 552v5" fill="none"/>
<text class="ink3" x="1020.5" y="569" text-anchor="middle" font-size="10.5">2000</text>
<path class="rule" d="M1150.5 552v5" fill="none"/>
<text class="ink3" x="1150.5" y="569" text-anchor="middle" font-size="10.5">2010</text>
<path class="rule" d="M1280.5 552v5" fill="none"/>
<text class="ink3" x="1280.5" y="569" text-anchor="middle" font-size="10.5">2020</text>
<path class="rule" d="M1352 552v5" fill="none"/>
<text class="ink3" x="1352" y="569" text-anchor="end" font-size="10.5">25/26</text>
<text class="ink" x="104" y="33" text-anchor="start" font-size="19" font-weight="600" letter-spacing="-.01em">Hapoel Holon</text>
<text class="ink2" x="104" y="54" text-anchor="start" font-size="11.5">12 of 86 seasons in the top flight · best finish 6th</text>
<text class="ink3" x="1352" y="33" text-anchor="end" font-size="9.5" letter-spacing=".08em">LEAGUE POSITION BY SEASON</text>
<path class="casing" d="M104 592.5h16"/><path class="line" d="M104 592.5h16"/>
<text class="ink2" x="126" y="596" text-anchor="start" font-size="10.5">Final league position</text>
<rect x="520.0" y="587" width="16" height="11" fill="url(#uncovered)"/>
<text class="ink2" x="542.0" y="596" text-anchor="start" font-size="10.5">No position recorded</text>
<rect x="936.0" y="587" width="16" height="11" fill="url(#notplayed)" fill-opacity=".8"/>
<text class="ink2" x="958.0" y="596" text-anchor="start" font-size="10.5">Season not played</text>
</svg>
