<svg xmlns="http://www.w3.org/2000/svg" width="1364" height="509" viewBox="0 0 1364 509" font-family="ui-sans-serif, -apple-system, 'Segoe UI', Roboto, sans-serif" role="img" aria-label="מכבי נס ציונה, 1929/1930 – 2025/2026">
<style>
  .bg{fill:var(--surface)} .ink{fill:var(--ink)} .ink2{fill:var(--ink2)}
  .ink3{fill:var(--ink3)} .rule{stroke:var(--rule)}
  .area{fill:var(--accent);fill-opacity:.15}
  .line{stroke:var(--accent);stroke-width:1.7;fill:none;stroke-linecap:square}
  .champ{fill:var(--champion)}
  :root{--surface:#FCFCFB;--ink:#1A1D1F;--ink2:#565F63;--ink3:#868F93;--rule:#C9CFD1;--accent:#007C99;--champion:#A06A0A;--hatch:#A9B2B6;--band1:#E9F0F2;--band2:#DBE5E8;--band3:#CBD8DC;--band4:#B9C9CF;--band5:#A7BAC1}
</style>
<defs>
  <pattern id="notplayed" width="7" height="7" patternUnits="userSpaceOnUse" patternTransform="rotate(-45)"><line x1="0" y1="0" x2="0" y2="7" stroke="var(--hatch)" stroke-width="1.4"/></pattern>
  <pattern id="uncovered" width="5" height="5" patternUnits="userSpaceOnUse"><circle cx="1.4" cy="1.4" r="1" fill="var(--hatch)"/></pattern>
</defs>
<rect class="bg" width="1364" height="509"/>
<rect x="96" y="76" width="13" height="70" fill="var(--band1)"/>
<rect x="96" y="146" width="13" height="80" fill="var(--band2)"/>
<rect x="96" y="226" width="13" height="205" fill="var(--band3)"/>
<rect x="109" y="76" width="13" height="70" fill="var(--band1)"/>
<rect x="109" y="146" width="13" height="80" fill="var(--band2)"/>
<rect x="109" y="226" width="13" height="205" fill="var(--band3)"/>
<rect x="122" y="76" width="13" height="45" fill="var(--band1)"/>
<rect x="122" y="121" width="13" height="80" fill="var(--band2)"/>
<rect x="122" y="201" width="13" height="230" fill="var(--band3)"/>
<rect x="135" y="76" width="13" height="70" fill="var(--band1)"/>
<rect x="135" y="146" width="13" height="80" fill="var(--band2)"/>
<rect x="135" y="226" width="13" height="205" fill="var(--band3)"/>
<rect x="148" y="76" width="13" height="45" fill="var(--band1)"/>
<rect x="148" y="121" width="13" height="80" fill="var(--band2)"/>
<rect x="148" y="201" width="13" height="230" fill="var(--band3)"/>
<rect x="161" y="76" width="13" height="50" fill="var(--band1)"/>
<rect x="161" y="126" width="13" height="80" fill="var(--band2)"/>
<rect x="161" y="206" width="13" height="225" fill="var(--band3)"/>
<rect x="174" y="76" width="13" height="30" fill="var(--band1)"/>
<rect x="174" y="106" width="13" height="80" fill="var(--band2)"/>
<rect x="174" y="186" width="13" height="245" fill="var(--band3)"/>
<rect x="187" y="76" width="13" height="25" fill="var(--band1)"/>
<rect x="187" y="101" width="13" height="25" fill="var(--band2)"/>
<rect x="187" y="126" width="13" height="305" fill="var(--band3)"/>
<rect x="200" y="76" width="13" height="45" fill="var(--band1)"/>
<rect x="200" y="121" width="13" height="30" fill="var(--band2)"/>
<rect x="200" y="151" width="13" height="280" fill="var(--band3)"/>
<rect x="213" y="76" width="13" height="60" fill="var(--band1)"/>
<rect x="213" y="136" width="13" height="80" fill="var(--band2)"/>
<rect x="213" y="216" width="13" height="215" fill="var(--band3)"/>
<rect x="226" y="76" width="13" height="40" fill="var(--band1)"/>
<rect x="226" y="116" width="13" height="50" fill="var(--band2)"/>
<rect x="226" y="166" width="13" height="265" fill="var(--band3)"/>
<rect x="239" y="76" width="13" height="70" fill="var(--band1)"/>
<rect x="239" y="146" width="13" height="80" fill="var(--band2)"/>
<rect x="239" y="226" width="13" height="205" fill="var(--band3)"/>
<rect x="252" y="76" width="13" height="70" fill="var(--band1)"/>
<rect x="252" y="146" width="13" height="35" fill="var(--band2)"/>
<rect x="252" y="181" width="13" height="250" fill="var(--band3)"/>
<rect x="265" y="76" width="13" height="70" fill="var(--band1)"/>
<rect x="265" y="146" width="13" height="80" fill="var(--band2)"/>
<rect x="265" y="226" width="13" height="205" fill="var(--band3)"/>
<rect x="278" y="76" width="13" height="70" fill="var(--band1)"/>
<rect x="278" y="146" width="13" height="70" fill="var(--band2)"/>
<rect x="278" y="216" width="13" height="215" fill="var(--band3)"/>
<rect x="291" y="76" width="13" height="40" fill="var(--band1)"/>
<rect x="291" y="116" width="13" height="80" fill="var(--band2)"/>
<rect x="291" y="196" width="13" height="235" fill="var(--band3)"/>
<rect x="304" y="76" width="13" height="70" fill="var(--band1)"/>
<rect x="304" y="146" width="13" height="80" fill="var(--band2)"/>
<rect x="304" y="226" width="13" height="205" fill="var(--band3)"/>
<rect x="317" y="76" width="13" height="75" fill="var(--band1)"/>
<rect x="317" y="151" width="13" height="65" fill="var(--band2)"/>
<rect x="317" y="216" width="13" height="215" fill="var(--band3)"/>
<rect x="330" y="76" width="13" height="70" fill="var(--band1)"/>
<rect x="330" y="146" width="13" height="80" fill="var(--band2)"/>
<rect x="330" y="226" width="13" height="205" fill="var(--band3)"/>
<rect x="343" y="76" width="13" height="70" fill="var(--band1)"/>
<rect x="343" y="146" width="13" height="80" fill="var(--band2)"/>
<rect x="343" y="226" width="13" height="205" fill="var(--band3)"/>
<rect x="356" y="76" width="13" height="65" fill="var(--band1)"/>
<rect x="356" y="141" width="13" height="80" fill="var(--band2)"/>
<rect x="356" y="221" width="13" height="210" fill="var(--band3)"/>
<rect x="369" y="76" width="13" height="70" fill="var(--band1)"/>
<rect x="369" y="146" width="13" height="80" fill="var(--band2)"/>
<rect x="369" y="226" width="13" height="205" fill="var(--band3)"/>
<rect x="382" y="76" width="13" height="60" fill="var(--band1)"/>
<rect x="382" y="136" width="13" height="70" fill="var(--band2)"/>
<rect x="382" y="206" width="13" height="80" fill="var(--band3)"/>
<rect x="382" y="286" width="13" height="145" fill="var(--band4)"/>
<rect x="395" y="76" width="13" height="70" fill="var(--band1)"/>
<rect x="395" y="146" width="13" height="80" fill="var(--band2)"/>
<rect x="395" y="226" width="13" height="80" fill="var(--band3)"/>
<rect x="395" y="306" width="13" height="125" fill="var(--band4)"/>
<rect x="408" y="76" width="13" height="60" fill="var(--band1)"/>
<rect x="408" y="136" width="13" height="70" fill="var(--band2)"/>
<rect x="408" y="206" width="13" height="80" fill="var(--band3)"/>
<rect x="408" y="286" width="13" height="145" fill="var(--band4)"/>
<rect x="421" y="76" width="13" height="70" fill="var(--band1)"/>
<rect x="421" y="146" width="13" height="80" fill="var(--band2)"/>
<rect x="421" y="226" width="13" height="60" fill="var(--band3)"/>
<rect x="421" y="286" width="13" height="70" fill="var(--band4)"/>
<rect x="421" y="356" width="13" height="75" fill="var(--band5)"/>
<rect x="434" y="76" width="13" height="60" fill="var(--band1)"/>
<rect x="434" y="136" width="13" height="60" fill="var(--band2)"/>
<rect x="434" y="196" width="13" height="60" fill="var(--band3)"/>
<rect x="434" y="256" width="13" height="50" fill="var(--band4)"/>
<rect x="434" y="306" width="13" height="125" fill="var(--band5)"/>
<rect x="447" y="76" width="13" height="50" fill="var(--band1)"/>
<rect x="447" y="126" width="13" height="60" fill="var(--band2)"/>
<rect x="447" y="186" width="13" height="65" fill="var(--band3)"/>
<rect x="447" y="251" width="13" height="80" fill="var(--band4)"/>
<rect x="447" y="331" width="13" height="100" fill="var(--band5)"/>
<rect x="460" y="76" width="13" height="60" fill="var(--band1)"/>
<rect x="460" y="136" width="13" height="60" fill="var(--band2)"/>
<rect x="460" y="196" width="13" height="60" fill="var(--band3)"/>
<rect x="460" y="256" width="13" height="80" fill="var(--band4)"/>
<rect x="460" y="336" width="13" height="95" fill="var(--band5)"/>
<rect x="473" y="76" width="13" height="60" fill="var(--band1)"/>
<rect x="473" y="136" width="13" height="60" fill="var(--band2)"/>
<rect x="473" y="196" width="13" height="60" fill="var(--band3)"/>
<rect x="473" y="256" width="13" height="80" fill="var(--band4)"/>
<rect x="473" y="336" width="13" height="95" fill="var(--band5)"/>
<rect x="486" y="76" width="13" height="60" fill="var(--band1)"/>
<rect x="486" y="136" width="13" height="70" fill="var(--band2)"/>
<rect x="486" y="206" width="13" height="80" fill="var(--band3)"/>
<rect x="486" y="286" width="13" height="80" fill="var(--band4)"/>
<rect x="486" y="366" width="13" height="65" fill="var(--band5)"/>
<rect x="499" y="76" width="13" height="60" fill="var(--band1)"/>
<rect x="499" y="136" width="13" height="70" fill="var(--band2)"/>
<rect x="499" y="206" width="13" height="80" fill="var(--band3)"/>
<rect x="499" y="286" width="13" height="80" fill="var(--band4)"/>
<rect x="499" y="366" width="13" height="65" fill="var(--band5)"/>
<rect x="512" y="76" width="13" height="60" fill="var(--band1)"/>
<rect x="512" y="136" width="13" height="70" fill="var(--band2)"/>
<rect x="512" y="206" width="13" height="80" fill="var(--band3)"/>
<rect x="512" y="286" width="13" height="80" fill="var(--band4)"/>
<rect x="512" y="366" width="13" height="65" fill="var(--band5)"/>
<rect x="525" y="76" width="13" height="60" fill="var(--band1)"/>
<rect x="525" y="136" width="13" height="80" fill="var(--band2)"/>
<rect x="525" y="216" width="13" height="80" fill="var(--band3)"/>
<rect x="525" y="296" width="13" height="75" fill="var(--band4)"/>
<rect x="525" y="371" width="13" height="60" fill="var(--band5)"/>
<rect x="538" y="76" width="13" height="75" fill="var(--band1)"/>
<rect x="538" y="151" width="13" height="70" fill="var(--band2)"/>
<rect x="538" y="221" width="13" height="80" fill="var(--band3)"/>
<rect x="538" y="301" width="13" height="65" fill="var(--band4)"/>
<rect x="538" y="366" width="13" height="65" fill="var(--band5)"/>
<rect x="551" y="76" width="13" height="80" fill="var(--band1)"/>
<rect x="551" y="156" width="13" height="80" fill="var(--band2)"/>
<rect x="551" y="236" width="13" height="80" fill="var(--band3)"/>
<rect x="551" y="316" width="13" height="70" fill="var(--band4)"/>
<rect x="551" y="386" width="13" height="45" fill="var(--band5)"/>
<rect x="564" y="76" width="13" height="80" fill="var(--band1)"/>
<rect x="564" y="156" width="13" height="80" fill="var(--band2)"/>
<rect x="564" y="236" width="13" height="80" fill="var(--band3)"/>
<rect x="564" y="316" width="13" height="75" fill="var(--band4)"/>
<rect x="564" y="391" width="13" height="40" fill="var(--band5)"/>
<rect x="577" y="76" width="13" height="80" fill="var(--band1)"/>
<rect x="577" y="156" width="13" height="80" fill="var(--band2)"/>
<rect x="577" y="236" width="13" height="80" fill="var(--band3)"/>
<rect x="577" y="316" width="13" height="70" fill="var(--band4)"/>
<rect x="577" y="386" width="13" height="45" fill="var(--band5)"/>
<rect x="590" y="76" width="13" height="80" fill="var(--band1)"/>
<rect x="590" y="156" width="13" height="80" fill="var(--band2)"/>
<rect x="590" y="236" width="13" height="80" fill="var(--band3)"/>
<rect x="590" y="316" width="13" height="80" fill="var(--band4)"/>
<rect x="590" y="396" width="13" height="35" fill="var(--band5)"/>
<rect x="603" y="76" width="13" height="80" fill="var(--band1)"/>
<rect x="603" y="156" width="13" height="80" fill="var(--band2)"/>
<rect x="603" y="236" width="13" height="80" fill="var(--band3)"/>
<rect x="603" y="316" width="13" height="80" fill="var(--band4)"/>
<rect x="603" y="396" width="13" height="35" fill="var(--band5)"/>
<rect x="616" y="76" width="13" height="80" fill="var(--band1)"/>
<rect x="616" y="156" width="13" height="80" fill="var(--band2)"/>
<rect x="616" y="236" width="13" height="80" fill="var(--band3)"/>
<rect x="616" y="316" width="13" height="80" fill="var(--band4)"/>
<rect x="616" y="396" width="13" height="35" fill="var(--band5)"/>
<rect x="629" y="76" width="13" height="80" fill="var(--band1)"/>
<rect x="629" y="156" width="13" height="80" fill="var(--band2)"/>
<rect x="629" y="236" width="13" height="80" fill="var(--band3)"/>
<rect x="629" y="316" width="13" height="80" fill="var(--band4)"/>
<rect x="629" y="396" width="13" height="35" fill="var(--band5)"/>
<rect x="642" y="76" width="13" height="80" fill="var(--band1)"/>
<rect x="642" y="156" width="13" height="80" fill="var(--band2)"/>
<rect x="642" y="236" width="13" height="80" fill="var(--band3)"/>
<rect x="642" y="316" width="13" height="80" fill="var(--band4)"/>
<rect x="642" y="396" width="13" height="35" fill="var(--band5)"/>
<rect x="655" y="76" width="13" height="80" fill="var(--band1)"/>
<rect x="655" y="156" width="13" height="80" fill="var(--band2)"/>
<rect x="655" y="236" width="13" height="80" fill="var(--band3)"/>
<rect x="655" y="316" width="13" height="80" fill="var(--band4)"/>
<rect x="655" y="396" width="13" height="35" fill="var(--band5)"/>
<rect x="668" y="76" width="13" height="80" fill="var(--band1)"/>
<rect x="668" y="156" width="13" height="80" fill="var(--band2)"/>
<rect x="668" y="236" width="13" height="80" fill="var(--band3)"/>
<rect x="668" y="316" width="13" height="80" fill="var(--band4)"/>
<rect x="668" y="396" width="13" height="35" fill="var(--band5)"/>
<rect x="681" y="76" width="13" height="90" fill="var(--band1)"/>
<rect x="681" y="166" width="13" height="85" fill="var(--band2)"/>
<rect x="681" y="251" width="13" height="75" fill="var(--band3)"/>
<rect x="681" y="326" width="13" height="80" fill="var(--band4)"/>
<rect x="681" y="406" width="13" height="25" fill="var(--band5)"/>
<rect x="694" y="76" width="13" height="80" fill="var(--band1)"/>
<rect x="694" y="156" width="13" height="60" fill="var(--band2)"/>
<rect x="694" y="216" width="13" height="70" fill="var(--band3)"/>
<rect x="694" y="286" width="13" height="70" fill="var(--band4)"/>
<rect x="694" y="356" width="13" height="75" fill="var(--band5)"/>
<rect x="707" y="76" width="13" height="70" fill="var(--band1)"/>
<rect x="707" y="146" width="13" height="70" fill="var(--band2)"/>
<rect x="707" y="216" width="13" height="70" fill="var(--band3)"/>
<rect x="707" y="286" width="13" height="70" fill="var(--band4)"/>
<rect x="707" y="356" width="13" height="75" fill="var(--band5)"/>
<rect x="720" y="76" width="13" height="80" fill="var(--band1)"/>
<rect x="720" y="156" width="13" height="80" fill="var(--band2)"/>
<rect x="720" y="236" width="13" height="80" fill="var(--band3)"/>
<rect x="720" y="316" width="13" height="70" fill="var(--band4)"/>
<rect x="720" y="386" width="13" height="45" fill="var(--band5)"/>
<rect x="733" y="76" width="13" height="80" fill="var(--band1)"/>
<rect x="733" y="156" width="13" height="80" fill="var(--band2)"/>
<rect x="733" y="236" width="13" height="70" fill="var(--band3)"/>
<rect x="733" y="306" width="13" height="70" fill="var(--band4)"/>
<rect x="733" y="376" width="13" height="55" fill="var(--band5)"/>
<rect x="746" y="76" width="13" height="80" fill="var(--band1)"/>
<rect x="746" y="156" width="13" height="80" fill="var(--band2)"/>
<rect x="746" y="236" width="13" height="70" fill="var(--band3)"/>
<rect x="746" y="306" width="13" height="70" fill="var(--band4)"/>
<rect x="746" y="376" width="13" height="55" fill="var(--band5)"/>
<rect x="759" y="76" width="13" height="80" fill="var(--band1)"/>
<rect x="759" y="156" width="13" height="80" fill="var(--band2)"/>
<rect x="759" y="236" width="13" height="70" fill="var(--band3)"/>
<rect x="759" y="306" width="13" height="70" fill="var(--band4)"/>
<rect x="759" y="376" width="13" height="55" fill="var(--band5)"/>
<rect x="772" y="76" width="13" height="80" fill="var(--band1)"/>
<rect x="772" y="156" width="13" height="80" fill="var(--band2)"/>
<rect x="772" y="236" width="13" height="70" fill="var(--band3)"/>
<rect x="772" y="306" width="13" height="70" fill="var(--band4)"/>
<rect x="772" y="376" width="13" height="55" fill="var(--band5)"/>
<rect x="785" y="76" width="13" height="80" fill="var(--band1)"/>
<rect x="785" y="156" width="13" height="80" fill="var(--band2)"/>
<rect x="785" y="236" width="13" height="70" fill="var(--band3)"/>
<rect x="785" y="306" width="13" height="70" fill="var(--band4)"/>
<rect x="785" y="376" width="13" height="55" fill="var(--band5)"/>
<rect x="798" y="76" width="13" height="80" fill="var(--band1)"/>
<rect x="798" y="156" width="13" height="80" fill="var(--band2)"/>
<rect x="798" y="236" width="13" height="70" fill="var(--band3)"/>
<rect x="798" y="306" width="13" height="70" fill="var(--band4)"/>
<rect x="798" y="376" width="13" height="55" fill="var(--band5)"/>
<rect x="811" y="76" width="13" height="80" fill="var(--band1)"/>
<rect x="811" y="156" width="13" height="80" fill="var(--band2)"/>
<rect x="811" y="236" width="13" height="70" fill="var(--band3)"/>
<rect x="811" y="306" width="13" height="70" fill="var(--band4)"/>
<rect x="811" y="376" width="13" height="55" fill="var(--band5)"/>
<rect x="824" y="76" width="13" height="80" fill="var(--band1)"/>
<rect x="824" y="156" width="13" height="80" fill="var(--band2)"/>
<rect x="824" y="236" width="13" height="70" fill="var(--band3)"/>
<rect x="824" y="306" width="13" height="70" fill="var(--band4)"/>
<rect x="824" y="376" width="13" height="55" fill="var(--band5)"/>
<rect x="837" y="76" width="13" height="70" fill="var(--band1)"/>
<rect x="837" y="146" width="13" height="70" fill="var(--band2)"/>
<rect x="837" y="216" width="13" height="80" fill="var(--band3)"/>
<rect x="837" y="296" width="13" height="70" fill="var(--band4)"/>
<rect x="837" y="366" width="13" height="65" fill="var(--band5)"/>
<rect x="850" y="76" width="13" height="70" fill="var(--band1)"/>
<rect x="850" y="146" width="13" height="70" fill="var(--band2)"/>
<rect x="850" y="216" width="13" height="80" fill="var(--band3)"/>
<rect x="850" y="296" width="13" height="70" fill="var(--band4)"/>
<rect x="850" y="366" width="13" height="65" fill="var(--band5)"/>
<rect x="863" y="76" width="13" height="60" fill="var(--band1)"/>
<rect x="863" y="136" width="13" height="80" fill="var(--band2)"/>
<rect x="863" y="216" width="13" height="80" fill="var(--band3)"/>
<rect x="863" y="296" width="13" height="80" fill="var(--band4)"/>
<rect x="863" y="376" width="13" height="55" fill="var(--band5)"/>
<rect x="876" y="76" width="13" height="60" fill="var(--band1)"/>
<rect x="876" y="136" width="13" height="80" fill="var(--band2)"/>
<rect x="876" y="216" width="13" height="80" fill="var(--band3)"/>
<rect x="876" y="296" width="13" height="80" fill="var(--band4)"/>
<rect x="876" y="376" width="13" height="55" fill="var(--band5)"/>
<rect x="889" y="76" width="13" height="60" fill="var(--band1)"/>
<rect x="889" y="136" width="13" height="80" fill="var(--band2)"/>
<rect x="889" y="216" width="13" height="80" fill="var(--band3)"/>
<rect x="889" y="296" width="13" height="80" fill="var(--band4)"/>
<rect x="889" y="376" width="13" height="55" fill="var(--band5)"/>
<rect x="902" y="76" width="13" height="60" fill="var(--band1)"/>
<rect x="902" y="136" width="13" height="80" fill="var(--band2)"/>
<rect x="902" y="216" width="13" height="80" fill="var(--band3)"/>
<rect x="902" y="296" width="13" height="80" fill="var(--band4)"/>
<rect x="902" y="376" width="13" height="55" fill="var(--band5)"/>
<rect x="915" y="76" width="13" height="70" fill="var(--band1)"/>
<rect x="915" y="146" width="13" height="80" fill="var(--band2)"/>
<rect x="915" y="226" width="13" height="80" fill="var(--band3)"/>
<rect x="915" y="306" width="13" height="80" fill="var(--band4)"/>
<rect x="915" y="386" width="13" height="45" fill="var(--band5)"/>
<rect x="928" y="76" width="13" height="80" fill="var(--band1)"/>
<rect x="928" y="156" width="13" height="80" fill="var(--band2)"/>
<rect x="928" y="236" width="13" height="80" fill="var(--band3)"/>
<rect x="928" y="316" width="13" height="80" fill="var(--band4)"/>
<rect x="928" y="396" width="13" height="35" fill="var(--band5)"/>
<rect x="941" y="76" width="13" height="80" fill="var(--band1)"/>
<rect x="941" y="156" width="13" height="80" fill="var(--band2)"/>
<rect x="941" y="236" width="13" height="80" fill="var(--band3)"/>
<rect x="941" y="316" width="13" height="80" fill="var(--band4)"/>
<rect x="941" y="396" width="13" height="35" fill="var(--band5)"/>
<rect x="954" y="76" width="13" height="80" fill="var(--band1)"/>
<rect x="954" y="156" width="13" height="80" fill="var(--band2)"/>
<rect x="954" y="236" width="13" height="80" fill="var(--band3)"/>
<rect x="954" y="316" width="13" height="80" fill="var(--band4)"/>
<rect x="954" y="396" width="13" height="35" fill="var(--band5)"/>
<rect x="967" y="76" width="13" height="80" fill="var(--band1)"/>
<rect x="967" y="156" width="13" height="80" fill="var(--band2)"/>
<rect x="967" y="236" width="13" height="80" fill="var(--band3)"/>
<rect x="967" y="316" width="13" height="80" fill="var(--band4)"/>
<rect x="967" y="396" width="13" height="35" fill="var(--band5)"/>
<rect x="980" y="76" width="13" height="80" fill="var(--band1)"/>
<rect x="980" y="156" width="13" height="80" fill="var(--band2)"/>
<rect x="980" y="236" width="13" height="80" fill="var(--band3)"/>
<rect x="980" y="316" width="13" height="80" fill="var(--band4)"/>
<rect x="980" y="396" width="13" height="35" fill="var(--band5)"/>
<rect x="993" y="76" width="13" height="70" fill="var(--band1)"/>
<rect x="993" y="146" width="13" height="50" fill="var(--band2)"/>
<rect x="993" y="196" width="13" height="60" fill="var(--band3)"/>
<rect x="993" y="256" width="13" height="70" fill="var(--band4)"/>
<rect x="993" y="326" width="13" height="105" fill="var(--band5)"/>
<rect x="1006" y="76" width="13" height="60" fill="var(--band1)"/>
<rect x="1006" y="136" width="13" height="60" fill="var(--band2)"/>
<rect x="1006" y="196" width="13" height="60" fill="var(--band3)"/>
<rect x="1006" y="256" width="13" height="75" fill="var(--band4)"/>
<rect x="1006" y="331" width="13" height="100" fill="var(--band5)"/>
<rect x="1019" y="76" width="13" height="60" fill="var(--band1)"/>
<rect x="1019" y="136" width="13" height="60" fill="var(--band2)"/>
<rect x="1019" y="196" width="13" height="60" fill="var(--band3)"/>
<rect x="1019" y="256" width="13" height="75" fill="var(--band4)"/>
<rect x="1019" y="331" width="13" height="100" fill="var(--band5)"/>
<rect x="1032" y="76" width="13" height="60" fill="var(--band1)"/>
<rect x="1032" y="136" width="13" height="60" fill="var(--band2)"/>
<rect x="1032" y="196" width="13" height="60" fill="var(--band3)"/>
<rect x="1032" y="256" width="13" height="70" fill="var(--band4)"/>
<rect x="1032" y="326" width="13" height="105" fill="var(--band5)"/>
<rect x="1045" y="76" width="13" height="60" fill="var(--band1)"/>
<rect x="1045" y="136" width="13" height="60" fill="var(--band2)"/>
<rect x="1045" y="196" width="13" height="60" fill="var(--band3)"/>
<rect x="1045" y="256" width="13" height="70" fill="var(--band4)"/>
<rect x="1045" y="326" width="13" height="105" fill="var(--band5)"/>
<rect x="1058" y="76" width="13" height="60" fill="var(--band1)"/>
<rect x="1058" y="136" width="13" height="60" fill="var(--band2)"/>
<rect x="1058" y="196" width="13" height="60" fill="var(--band3)"/>
<rect x="1058" y="256" width="13" height="70" fill="var(--band4)"/>
<rect x="1058" y="326" width="13" height="105" fill="var(--band5)"/>
<rect x="1071" y="76" width="13" height="60" fill="var(--band1)"/>
<rect x="1071" y="136" width="13" height="60" fill="var(--band2)"/>
<rect x="1071" y="196" width="13" height="60" fill="var(--band3)"/>
<rect x="1071" y="256" width="13" height="70" fill="var(--band4)"/>
<rect x="1071" y="326" width="13" height="105" fill="var(--band5)"/>
<rect x="1084" y="76" width="13" height="60" fill="var(--band1)"/>
<rect x="1084" y="136" width="13" height="60" fill="var(--band2)"/>
<rect x="1084" y="196" width="13" height="60" fill="var(--band3)"/>
<rect x="1084" y="256" width="13" height="70" fill="var(--band4)"/>
<rect x="1084" y="326" width="13" height="105" fill="var(--band5)"/>
<rect x="1097" y="76" width="13" height="60" fill="var(--band1)"/>
<rect x="1097" y="136" width="13" height="60" fill="var(--band2)"/>
<rect x="1097" y="196" width="13" height="60" fill="var(--band3)"/>
<rect x="1097" y="256" width="13" height="70" fill="var(--band4)"/>
<rect x="1097" y="326" width="13" height="105" fill="var(--band5)"/>
<rect x="1110" y="76" width="13" height="60" fill="var(--band1)"/>
<rect x="1110" y="136" width="13" height="60" fill="var(--band2)"/>
<rect x="1110" y="196" width="13" height="60" fill="var(--band3)"/>
<rect x="1110" y="256" width="13" height="70" fill="var(--band4)"/>
<rect x="1110" y="326" width="13" height="105" fill="var(--band5)"/>
<rect x="1123" y="76" width="13" height="80" fill="var(--band1)"/>
<rect x="1123" y="156" width="13" height="80" fill="var(--band2)"/>
<rect x="1123" y="236" width="13" height="80" fill="var(--band3)"/>
<rect x="1123" y="316" width="13" height="80" fill="var(--band4)"/>
<rect x="1123" y="396" width="13" height="35" fill="var(--band5)"/>
<rect x="1136" y="76" width="13" height="80" fill="var(--band1)"/>
<rect x="1136" y="156" width="13" height="80" fill="var(--band2)"/>
<rect x="1136" y="236" width="13" height="80" fill="var(--band3)"/>
<rect x="1136" y="316" width="13" height="80" fill="var(--band4)"/>
<rect x="1136" y="396" width="13" height="35" fill="var(--band5)"/>
<rect x="1149" y="76" width="13" height="80" fill="var(--band1)"/>
<rect x="1149" y="156" width="13" height="80" fill="var(--band2)"/>
<rect x="1149" y="236" width="13" height="80" fill="var(--band3)"/>
<rect x="1149" y="316" width="13" height="80" fill="var(--band4)"/>
<rect x="1149" y="396" width="13" height="35" fill="var(--band5)"/>
<rect x="1162" y="76" width="13" height="70" fill="var(--band1)"/>
<rect x="1162" y="146" width="13" height="80" fill="var(--band2)"/>
<rect x="1162" y="226" width="13" height="80" fill="var(--band3)"/>
<rect x="1162" y="306" width="13" height="80" fill="var(--band4)"/>
<rect x="1162" y="386" width="13" height="45" fill="var(--band5)"/>
<rect x="1175" y="76" width="13" height="70" fill="var(--band1)"/>
<rect x="1175" y="146" width="13" height="80" fill="var(--band2)"/>
<rect x="1175" y="226" width="13" height="80" fill="var(--band3)"/>
<rect x="1175" y="306" width="13" height="80" fill="var(--band4)"/>
<rect x="1175" y="386" width="13" height="45" fill="var(--band5)"/>
<rect x="1188" y="76" width="13" height="70" fill="var(--band1)"/>
<rect x="1188" y="146" width="13" height="80" fill="var(--band2)"/>
<rect x="1188" y="226" width="13" height="80" fill="var(--band3)"/>
<rect x="1188" y="306" width="13" height="80" fill="var(--band4)"/>
<rect x="1188" y="386" width="13" height="45" fill="var(--band5)"/>
<rect x="1201" y="76" width="13" height="70" fill="var(--band1)"/>
<rect x="1201" y="146" width="13" height="80" fill="var(--band2)"/>
<rect x="1201" y="226" width="13" height="80" fill="var(--band3)"/>
<rect x="1201" y="306" width="13" height="80" fill="var(--band4)"/>
<rect x="1201" y="386" width="13" height="45" fill="var(--band5)"/>
<rect x="1214" y="76" width="13" height="70" fill="var(--band1)"/>
<rect x="1214" y="146" width="13" height="80" fill="var(--band2)"/>
<rect x="1214" y="226" width="13" height="80" fill="var(--band3)"/>
<rect x="1214" y="306" width="13" height="80" fill="var(--band4)"/>
<rect x="1214" y="386" width="13" height="45" fill="var(--band5)"/>
<rect x="1227" y="76" width="13" height="70" fill="var(--band1)"/>
<rect x="1227" y="146" width="13" height="80" fill="var(--band2)"/>
<rect x="1227" y="226" width="13" height="80" fill="var(--band3)"/>
<rect x="1227" y="306" width="13" height="80" fill="var(--band4)"/>
<rect x="1227" y="386" width="13" height="45" fill="var(--band5)"/>
<rect x="1240" y="76" width="13" height="70" fill="var(--band1)"/>
<rect x="1240" y="146" width="13" height="80" fill="var(--band2)"/>
<rect x="1240" y="226" width="13" height="80" fill="var(--band3)"/>
<rect x="1240" y="306" width="13" height="80" fill="var(--band4)"/>
<rect x="1240" y="386" width="13" height="45" fill="var(--band5)"/>
<rect x="1253" y="76" width="13" height="70" fill="var(--band1)"/>
<rect x="1253" y="146" width="13" height="80" fill="var(--band2)"/>
<rect x="1253" y="226" width="13" height="80" fill="var(--band3)"/>
<rect x="1253" y="306" width="13" height="80" fill="var(--band4)"/>
<rect x="1253" y="386" width="13" height="45" fill="var(--band5)"/>
<rect x="1266" y="76" width="13" height="70" fill="var(--band1)"/>
<rect x="1266" y="146" width="13" height="80" fill="var(--band2)"/>
<rect x="1266" y="226" width="13" height="45" fill="var(--band3)"/>
<rect x="1266" y="271" width="13" height="45" fill="var(--band4)"/>
<rect x="1266" y="316" width="13" height="115" fill="var(--band5)"/>
<rect x="1279" y="76" width="13" height="70" fill="var(--band1)"/>
<rect x="1279" y="146" width="13" height="80" fill="var(--band2)"/>
<rect x="1279" y="226" width="13" height="80" fill="var(--band3)"/>
<rect x="1279" y="306" width="13" height="80" fill="var(--band4)"/>
<rect x="1279" y="386" width="13" height="45" fill="var(--band5)"/>
<rect x="1292" y="76" width="13" height="70" fill="var(--band1)"/>
<rect x="1292" y="146" width="13" height="80" fill="var(--band2)"/>
<rect x="1292" y="226" width="13" height="80" fill="var(--band3)"/>
<rect x="1292" y="306" width="13" height="80" fill="var(--band4)"/>
<rect x="1292" y="386" width="13" height="45" fill="var(--band5)"/>
<rect x="1305" y="76" width="13" height="70" fill="var(--band1)"/>
<rect x="1305" y="146" width="13" height="80" fill="var(--band2)"/>
<rect x="1305" y="226" width="13" height="80" fill="var(--band3)"/>
<rect x="1305" y="306" width="13" height="80" fill="var(--band4)"/>
<rect x="1305" y="386" width="13" height="45" fill="var(--band5)"/>
<rect x="1318" y="76" width="13" height="70" fill="var(--band1)"/>
<rect x="1318" y="146" width="13" height="80" fill="var(--band2)"/>
<rect x="1318" y="226" width="13" height="80" fill="var(--band3)"/>
<rect x="1318" y="306" width="13" height="80" fill="var(--band4)"/>
<rect x="1318" y="386" width="13" height="45" fill="var(--band5)"/>
<rect x="1331" y="76" width="13" height="70" fill="var(--band1)"/>
<rect x="1331" y="146" width="13" height="80" fill="var(--band2)"/>
<rect x="1331" y="226" width="13" height="80" fill="var(--band3)"/>
<rect x="1331" y="306" width="13" height="80" fill="var(--band4)"/>
<rect x="1331" y="386" width="13" height="45" fill="var(--band5)"/>
<rect x="96" y="76" width="13" height="355" fill="url(#notplayed)" fill-opacity=".8"/>
<rect x="109" y="76" width="13" height="355" fill="url(#notplayed)" fill-opacity=".8"/>
<rect class="area" x="122" y="111" width="13" height="320"/>
<rect x="135" y="76" width="13" height="355" fill="url(#notplayed)" fill-opacity=".8"/>
<rect class="area" x="148" y="101" width="13" height="330"/>
<rect class="area" x="161" y="111" width="13" height="320"/>
<rect class="area" x="174" y="101" width="13" height="330"/>
<rect x="187" y="126" width="13" height="305" fill="url(#uncovered)"/>
<rect class="area" x="200" y="111" width="13" height="320"/>
<rect class="area" x="213" y="91" width="13" height="340" fill-opacity=".07"/>
<rect class="area" x="226" y="91" width="13" height="340"/>
<rect x="239" y="76" width="13" height="355" fill="url(#notplayed)" fill-opacity=".8"/>
<rect class="area" x="252" y="86" width="13" height="345" fill-opacity=".07"/>
<rect x="265" y="76" width="13" height="355" fill="url(#notplayed)" fill-opacity=".8"/>
<rect class="area" x="278" y="86" width="13" height="345"/>
<rect class="area" x="291" y="91" width="13" height="340" fill-opacity=".07"/>
<rect x="304" y="76" width="13" height="355" fill="url(#notplayed)" fill-opacity=".8"/>
<rect class="area" x="317" y="126" width="13" height="305"/>
<rect x="330" y="76" width="13" height="355" fill="url(#notplayed)" fill-opacity=".8"/>
<rect x="343" y="76" width="13" height="355" fill="url(#notplayed)" fill-opacity=".8"/>
<rect class="area" x="356" y="136" width="13" height="295"/>
<rect x="369" y="76" width="13" height="355" fill="url(#notplayed)" fill-opacity=".8"/>
<rect class="area" x="382" y="196" width="13" height="235" fill-opacity=".07"/>
<rect x="395" y="76" width="13" height="355" fill="url(#notplayed)" fill-opacity=".8"/>
<rect x="408" y="286" width="13" height="145" fill="url(#uncovered)"/>
<rect x="421" y="356" width="13" height="75" fill="url(#uncovered)"/>
<rect x="434" y="306" width="13" height="125" fill="url(#uncovered)"/>
<rect x="447" y="331" width="13" height="100" fill="url(#uncovered)"/>
<rect x="460" y="336" width="13" height="95" fill="url(#uncovered)"/>
<rect x="473" y="336" width="13" height="95" fill="url(#uncovered)"/>
<rect x="486" y="366" width="13" height="65" fill="url(#uncovered)"/>
<rect x="499" y="366" width="13" height="65" fill="url(#uncovered)"/>
<rect x="512" y="366" width="13" height="65" fill="url(#uncovered)"/>
<rect x="525" y="371" width="13" height="60" fill="url(#uncovered)"/>
<rect x="538" y="366" width="13" height="65" fill="url(#uncovered)"/>
<rect x="551" y="386" width="13" height="45" fill="url(#uncovered)"/>
<rect x="564" y="391" width="13" height="40" fill="url(#uncovered)"/>
<rect x="577" y="386" width="13" height="45" fill="url(#uncovered)"/>
<rect x="590" y="396" width="13" height="35" fill="url(#uncovered)"/>
<rect x="603" y="396" width="13" height="35" fill="url(#uncovered)"/>
<rect x="616" y="396" width="13" height="35" fill="url(#uncovered)"/>
<rect x="629" y="396" width="13" height="35" fill="url(#uncovered)"/>
<rect x="642" y="396" width="13" height="35" fill="url(#uncovered)"/>
<rect x="655" y="396" width="13" height="35" fill="url(#uncovered)"/>
<rect x="668" y="396" width="13" height="35" fill="url(#uncovered)"/>
<rect x="681" y="406" width="13" height="25" fill="url(#uncovered)"/>
<rect x="694" y="356" width="13" height="75" fill="url(#uncovered)"/>
<rect x="707" y="356" width="13" height="75" fill="url(#uncovered)"/>
<rect x="720" y="386" width="13" height="45" fill="url(#uncovered)"/>
<rect x="733" y="376" width="13" height="55" fill="url(#uncovered)"/>
<rect x="746" y="376" width="13" height="55" fill="url(#uncovered)"/>
<rect x="759" y="376" width="13" height="55" fill="url(#uncovered)"/>
<rect x="772" y="376" width="13" height="55" fill="url(#uncovered)"/>
<rect x="785" y="376" width="13" height="55" fill="url(#uncovered)"/>
<rect x="798" y="376" width="13" height="55" fill="url(#uncovered)"/>
<rect x="811" y="376" width="13" height="55" fill="url(#uncovered)"/>
<rect x="824" y="376" width="13" height="55" fill="url(#uncovered)"/>
<rect x="837" y="366" width="13" height="65" fill="url(#uncovered)"/>
<rect x="850" y="366" width="13" height="65" fill="url(#uncovered)"/>
<rect x="863" y="376" width="13" height="55" fill="url(#uncovered)"/>
<rect x="876" y="376" width="13" height="55" fill="url(#uncovered)"/>
<rect x="889" y="376" width="13" height="55" fill="url(#uncovered)"/>
<rect x="902" y="376" width="13" height="55" fill="url(#uncovered)"/>
<rect x="915" y="386" width="13" height="45" fill="url(#uncovered)"/>
<rect x="928" y="396" width="13" height="35" fill="url(#uncovered)"/>
<rect x="941" y="396" width="13" height="35" fill="url(#uncovered)"/>
<rect x="954" y="396" width="13" height="35" fill="url(#uncovered)"/>
<rect x="967" y="396" width="13" height="35" fill="url(#uncovered)"/>
<rect x="980" y="396" width="13" height="35" fill="url(#uncovered)"/>
<rect x="993" y="326" width="13" height="105" fill="url(#uncovered)"/>
<rect x="1006" y="331" width="13" height="100" fill="url(#uncovered)"/>
<rect x="1019" y="331" width="13" height="100" fill="url(#uncovered)"/>
<rect x="1032" y="326" width="13" height="105" fill="url(#uncovered)"/>
<rect x="1045" y="326" width="13" height="105" fill="url(#uncovered)"/>
<rect x="1058" y="326" width="13" height="105" fill="url(#uncovered)"/>
<rect x="1071" y="326" width="13" height="105" fill="url(#uncovered)"/>
<rect x="1084" y="326" width="13" height="105" fill="url(#uncovered)"/>
<rect x="1097" y="326" width="13" height="105" fill="url(#uncovered)"/>
<rect x="1110" y="326" width="13" height="105" fill="url(#uncovered)"/>
<rect x="1123" y="396" width="13" height="35" fill="url(#uncovered)"/>
<rect x="1136" y="396" width="13" height="35" fill="url(#uncovered)"/>
<rect x="1149" y="396" width="13" height="35" fill="url(#uncovered)"/>
<rect x="1162" y="386" width="13" height="45" fill="url(#uncovered)"/>
<rect x="1175" y="386" width="13" height="45" fill="url(#uncovered)"/>
<rect x="1188" y="386" width="13" height="45" fill="url(#uncovered)"/>
<rect x="1201" y="386" width="13" height="45" fill="url(#uncovered)"/>
<rect x="1214" y="386" width="13" height="45" fill="url(#uncovered)"/>
<rect x="1227" y="386" width="13" height="45" fill="url(#uncovered)"/>
<rect x="1240" y="386" width="13" height="45" fill="url(#uncovered)"/>
<rect x="1253" y="386" width="13" height="45" fill="url(#uncovered)"/>
<rect x="1266" y="316" width="13" height="115" fill="url(#uncovered)"/>
<rect x="1279" y="386" width="13" height="45" fill="url(#uncovered)"/>
<rect x="1292" y="386" width="13" height="45" fill="url(#uncovered)"/>
<rect x="1305" y="386" width="13" height="45" fill="url(#uncovered)"/>
<rect x="1318" y="386" width="13" height="45" fill="url(#uncovered)"/>
<rect x="1331" y="386" width="13" height="45" fill="url(#uncovered)"/>
<path class="line" d="M122 111h13"/>
<path class="line" d="M148 101h13"/>
<path class="line" d="M161 101V111"/>
<path class="line" d="M161 111h13"/>
<path class="line" d="M174 111V101"/>
<path class="line" d="M174 101h13"/>
<path class="line" d="M200 111h13"/>
<path class="line" d="M213 111V91"/>
<path class="line" d="M213 91h13" stroke-dasharray="3 2"/>
<path class="line" d="M226 91h13"/>
<path class="line" d="M252 86h13" stroke-dasharray="3 2"/>
<path class="line" d="M278 86h13"/>
<path class="line" d="M291 86V91"/>
<path class="line" d="M291 91h13" stroke-dasharray="3 2"/>
<path class="line" d="M317 126h13"/>
<path class="line" d="M356 136h13"/>
<path class="line" d="M382 196h13" stroke-dasharray="3 2"/>
<text class="ink2" x="85" y="114.0" text-anchor="start" font-size="10.5" font-weight="600" direction="rtl" letter-spacing=".05em">דרג 1</text>
<text class="ink2" x="85" y="189.0" text-anchor="start" font-size="10.5" font-weight="600" direction="rtl" letter-spacing=".05em">דרג 2</text>
<text class="ink2" x="85" y="269.0" text-anchor="start" font-size="10.5" font-weight="600" direction="rtl" letter-spacing=".05em">דרג 3</text>
<text class="ink2" x="85" y="349.0" text-anchor="start" font-size="10.5" font-weight="600" direction="rtl" letter-spacing=".05em">דרג 4</text>
<text class="ink3" x="85" y="401.5" text-anchor="start" font-size="10.5" direction="rtl" letter-spacing=".05em">דרג 5+</text>
<path class="rule" d="M96 431.5h1248" fill="none"/>
<path class="rule" d="M96 431v5" fill="none"/>
<text class="ink3" x="96" y="448" text-anchor="start" font-size="10.5">29/30</text>
<path class="rule" d="M232.5 431v5" fill="none"/>
<text class="ink3" x="232.5" y="448" text-anchor="middle" font-size="10.5">1940</text>
<path class="rule" d="M375.5 431v5" fill="none"/>
<text class="ink3" x="375.5" y="448" text-anchor="middle" font-size="10.5">1950</text>
<path class="rule" d="M505.5 431v5" fill="none"/>
<text class="ink3" x="505.5" y="448" text-anchor="middle" font-size="10.5">1960</text>
<path class="rule" d="M622.5 431v5" fill="none"/>
<text class="ink3" x="622.5" y="448" text-anchor="middle" font-size="10.5">1970</text>
<path class="rule" d="M752.5 431v5" fill="none"/>
<text class="ink3" x="752.5" y="448" text-anchor="middle" font-size="10.5">1980</text>
<path class="rule" d="M882.5 431v5" fill="none"/>
<text class="ink3" x="882.5" y="448" text-anchor="middle" font-size="10.5">1990</text>
<path class="rule" d="M1012.5 431v5" fill="none"/>
<text class="ink3" x="1012.5" y="448" text-anchor="middle" font-size="10.5">2000</text>
<path class="rule" d="M1142.5 431v5" fill="none"/>
<text class="ink3" x="1142.5" y="448" text-anchor="middle" font-size="10.5">2010</text>
<path class="rule" d="M1272.5 431v5" fill="none"/>
<text class="ink3" x="1272.5" y="448" text-anchor="middle" font-size="10.5">2020</text>
<path class="rule" d="M1344 431v5" fill="none"/>
<text class="ink3" x="1344" y="448" text-anchor="end" font-size="10.5">25/26</text>
<text class="ink" x="96" y="33" text-anchor="end" font-size="19" font-weight="600" direction="rtl" letter-spacing="-.01em">מכבי נס ציונה</text>
<text class="ink2" x="96" y="54" text-anchor="end" font-size="11.5" direction="rtl">12 עונות מתוך 86 בליגה הבכירה · המקום הטוב ביותר: 3</text>
<text class="ink3" x="1344" y="33" text-anchor="start" font-size="9.5" direction="rtl" letter-spacing=".08em">מיקום בליגה לפי עונה</text>
<path class="line" d="M96 471.5h16"/><rect class="area" x="96" y="471.5" width="16" height="8"/>
<text class="ink2" x="118" y="475" text-anchor="end" font-size="10.5" direction="rtl">מיקום סופי בליגה</text>
<path class="champ" d="M353.6 467l4 4-4 4-4-4z"/>
<text class="ink2" x="367.6" y="475" text-anchor="end" font-size="10.5" direction="rtl">אליפות</text>
<path class="line" d="M595.2 471.5h16" stroke-dasharray="3 2"/>
<text class="ink2" x="617.2" y="475" text-anchor="end" font-size="10.5" direction="rtl">מחוז אזורי — אין דירוג ארצי</text>
<rect x="844.8000000000001" y="466" width="16" height="11" fill="url(#uncovered)"/>
<text class="ink2" x="866.8000000000001" y="475" text-anchor="end" font-size="10.5" direction="rtl">לא נרשם מיקום</text>
<rect x="1094.4" y="466" width="16" height="11" fill="url(#notplayed)" fill-opacity=".8"/>
<text class="ink2" x="1116.4" y="475" text-anchor="end" font-size="10.5" direction="rtl">העונה לא התקיימה</text>
</svg>
