<svg xmlns="http://www.w3.org/2000/svg" width="1372" height="509" viewBox="0 0 1372 509" font-family="ui-sans-serif, -apple-system, 'Segoe UI', Roboto, sans-serif" role="img" aria-label="Maccabi Rehovot, 1929/1930 – 2025/2026">
<style>
  .bg{fill:var(--surface)} .ink{fill:var(--ink)} .ink2{fill:var(--ink2)}
  .ink3{fill:var(--ink3)} .rule{stroke:var(--rule)}
  .area{fill:var(--accent);fill-opacity:.15}
  .line{stroke:var(--accent);stroke-width:1.7;fill:none;stroke-linecap:square}
  .champ{fill:var(--champion)}
  :root{--surface:#FCFCFB;--ink:#1A1D1F;--ink2:#565F63;--ink3:#868F93;--rule:#C9CFD1;--accent:#007C99;--champion:#A06A0A;--hatch:#A9B2B6;--band1:#E9F0F2;--band2:#DBE5E8;--band3:#CBD8DC;--band4:#B9C9CF;--band5:#A7BAC1}
</style>
<defs>
  <pattern id="notplayed" width="7" height="7" patternUnits="userSpaceOnUse" patternTransform="rotate(-45)"><line x1="0" y1="0" x2="0" y2="7" stroke="var(--hatch)" stroke-width="1.4"/></pattern>
  <pattern id="uncovered" width="5" height="5" patternUnits="userSpaceOnUse"><circle cx="1.4" cy="1.4" r="1" fill="var(--hatch)"/></pattern>
</defs>
<rect class="bg" width="1372" height="509"/>
<rect x="104" y="76" width="13" height="70" fill="var(--band1)"/>
<rect x="104" y="146" width="13" height="80" fill="var(--band2)"/>
<rect x="104" y="226" width="13" height="205" fill="var(--band3)"/>
<rect x="117" y="76" width="13" height="70" fill="var(--band1)"/>
<rect x="117" y="146" width="13" height="80" fill="var(--band2)"/>
<rect x="117" y="226" width="13" height="205" fill="var(--band3)"/>
<rect x="130" y="76" width="13" height="45" fill="var(--band1)"/>
<rect x="130" y="121" width="13" height="80" fill="var(--band2)"/>
<rect x="130" y="201" width="13" height="230" fill="var(--band3)"/>
<rect x="143" y="76" width="13" height="70" fill="var(--band1)"/>
<rect x="143" y="146" width="13" height="80" fill="var(--band2)"/>
<rect x="143" y="226" width="13" height="205" fill="var(--band3)"/>
<rect x="156" y="76" width="13" height="45" fill="var(--band1)"/>
<rect x="156" y="121" width="13" height="80" fill="var(--band2)"/>
<rect x="156" y="201" width="13" height="230" fill="var(--band3)"/>
<rect x="169" y="76" width="13" height="50" fill="var(--band1)"/>
<rect x="169" y="126" width="13" height="80" fill="var(--band2)"/>
<rect x="169" y="206" width="13" height="225" fill="var(--band3)"/>
<rect x="182" y="76" width="13" height="30" fill="var(--band1)"/>
<rect x="182" y="106" width="13" height="80" fill="var(--band2)"/>
<rect x="182" y="186" width="13" height="245" fill="var(--band3)"/>
<rect x="195" y="76" width="13" height="25" fill="var(--band1)"/>
<rect x="195" y="101" width="13" height="25" fill="var(--band2)"/>
<rect x="195" y="126" width="13" height="305" fill="var(--band3)"/>
<rect x="208" y="76" width="13" height="45" fill="var(--band1)"/>
<rect x="208" y="121" width="13" height="30" fill="var(--band2)"/>
<rect x="208" y="151" width="13" height="280" fill="var(--band3)"/>
<rect x="221" y="76" width="13" height="60" fill="var(--band1)"/>
<rect x="221" y="136" width="13" height="80" fill="var(--band2)"/>
<rect x="221" y="216" width="13" height="215" fill="var(--band3)"/>
<rect x="234" y="76" width="13" height="40" fill="var(--band1)"/>
<rect x="234" y="116" width="13" height="50" fill="var(--band2)"/>
<rect x="234" y="166" width="13" height="265" fill="var(--band3)"/>
<rect x="247" y="76" width="13" height="70" fill="var(--band1)"/>
<rect x="247" y="146" width="13" height="80" fill="var(--band2)"/>
<rect x="247" y="226" width="13" height="205" fill="var(--band3)"/>
<rect x="260" y="76" width="13" height="70" fill="var(--band1)"/>
<rect x="260" y="146" width="13" height="35" fill="var(--band2)"/>
<rect x="260" y="181" width="13" height="250" fill="var(--band3)"/>
<rect x="273" y="76" width="13" height="70" fill="var(--band1)"/>
<rect x="273" y="146" width="13" height="80" fill="var(--band2)"/>
<rect x="273" y="226" width="13" height="205" fill="var(--band3)"/>
<rect x="286" y="76" width="13" height="70" fill="var(--band1)"/>
<rect x="286" y="146" width="13" height="70" fill="var(--band2)"/>
<rect x="286" y="216" width="13" height="215" fill="var(--band3)"/>
<rect x="299" y="76" width="13" height="40" fill="var(--band1)"/>
<rect x="299" y="116" width="13" height="80" fill="var(--band2)"/>
<rect x="299" y="196" width="13" height="235" fill="var(--band3)"/>
<rect x="312" y="76" width="13" height="70" fill="var(--band1)"/>
<rect x="312" y="146" width="13" height="80" fill="var(--band2)"/>
<rect x="312" y="226" width="13" height="205" fill="var(--band3)"/>
<rect x="325" y="76" width="13" height="75" fill="var(--band1)"/>
<rect x="325" y="151" width="13" height="65" fill="var(--band2)"/>
<rect x="325" y="216" width="13" height="215" fill="var(--band3)"/>
<rect x="338" y="76" width="13" height="70" fill="var(--band1)"/>
<rect x="338" y="146" width="13" height="80" fill="var(--band2)"/>
<rect x="338" y="226" width="13" height="205" fill="var(--band3)"/>
<rect x="351" y="76" width="13" height="70" fill="var(--band1)"/>
<rect x="351" y="146" width="13" height="80" fill="var(--band2)"/>
<rect x="351" y="226" width="13" height="205" fill="var(--band3)"/>
<rect x="364" y="76" width="13" height="65" fill="var(--band1)"/>
<rect x="364" y="141" width="13" height="45" fill="var(--band2)"/>
<rect x="364" y="186" width="13" height="245" fill="var(--band3)"/>
<rect x="377" y="76" width="13" height="70" fill="var(--band1)"/>
<rect x="377" y="146" width="13" height="80" fill="var(--band2)"/>
<rect x="377" y="226" width="13" height="205" fill="var(--band3)"/>
<rect x="390" y="76" width="13" height="60" fill="var(--band1)"/>
<rect x="390" y="136" width="13" height="70" fill="var(--band2)"/>
<rect x="390" y="206" width="13" height="80" fill="var(--band3)"/>
<rect x="390" y="286" width="13" height="145" fill="var(--band4)"/>
<rect x="403" y="76" width="13" height="70" fill="var(--band1)"/>
<rect x="403" y="146" width="13" height="80" fill="var(--band2)"/>
<rect x="403" y="226" width="13" height="80" fill="var(--band3)"/>
<rect x="403" y="306" width="13" height="125" fill="var(--band4)"/>
<rect x="416" y="76" width="13" height="60" fill="var(--band1)"/>
<rect x="416" y="136" width="13" height="70" fill="var(--band2)"/>
<rect x="416" y="206" width="13" height="80" fill="var(--band3)"/>
<rect x="416" y="286" width="13" height="145" fill="var(--band4)"/>
<rect x="429" y="76" width="13" height="70" fill="var(--band1)"/>
<rect x="429" y="146" width="13" height="80" fill="var(--band2)"/>
<rect x="429" y="226" width="13" height="60" fill="var(--band3)"/>
<rect x="429" y="286" width="13" height="70" fill="var(--band4)"/>
<rect x="429" y="356" width="13" height="75" fill="var(--band5)"/>
<rect x="442" y="76" width="13" height="60" fill="var(--band1)"/>
<rect x="442" y="136" width="13" height="60" fill="var(--band2)"/>
<rect x="442" y="196" width="13" height="60" fill="var(--band3)"/>
<rect x="442" y="256" width="13" height="50" fill="var(--band4)"/>
<rect x="442" y="306" width="13" height="125" fill="var(--band5)"/>
<rect x="455" y="76" width="13" height="50" fill="var(--band1)"/>
<rect x="455" y="126" width="13" height="60" fill="var(--band2)"/>
<rect x="455" y="186" width="13" height="65" fill="var(--band3)"/>
<rect x="455" y="251" width="13" height="80" fill="var(--band4)"/>
<rect x="455" y="331" width="13" height="100" fill="var(--band5)"/>
<rect x="468" y="76" width="13" height="60" fill="var(--band1)"/>
<rect x="468" y="136" width="13" height="60" fill="var(--band2)"/>
<rect x="468" y="196" width="13" height="60" fill="var(--band3)"/>
<rect x="468" y="256" width="13" height="80" fill="var(--band4)"/>
<rect x="468" y="336" width="13" height="95" fill="var(--band5)"/>
<rect x="481" y="76" width="13" height="60" fill="var(--band1)"/>
<rect x="481" y="136" width="13" height="60" fill="var(--band2)"/>
<rect x="481" y="196" width="13" height="60" fill="var(--band3)"/>
<rect x="481" y="256" width="13" height="80" fill="var(--band4)"/>
<rect x="481" y="336" width="13" height="95" fill="var(--band5)"/>
<rect x="494" y="76" width="13" height="60" fill="var(--band1)"/>
<rect x="494" y="136" width="13" height="70" fill="var(--band2)"/>
<rect x="494" y="206" width="13" height="80" fill="var(--band3)"/>
<rect x="494" y="286" width="13" height="80" fill="var(--band4)"/>
<rect x="494" y="366" width="13" height="65" fill="var(--band5)"/>
<rect x="507" y="76" width="13" height="60" fill="var(--band1)"/>
<rect x="507" y="136" width="13" height="70" fill="var(--band2)"/>
<rect x="507" y="206" width="13" height="80" fill="var(--band3)"/>
<rect x="507" y="286" width="13" height="80" fill="var(--band4)"/>
<rect x="507" y="366" width="13" height="65" fill="var(--band5)"/>
<rect x="520" y="76" width="13" height="60" fill="var(--band1)"/>
<rect x="520" y="136" width="13" height="70" fill="var(--band2)"/>
<rect x="520" y="206" width="13" height="80" fill="var(--band3)"/>
<rect x="520" y="286" width="13" height="80" fill="var(--band4)"/>
<rect x="520" y="366" width="13" height="65" fill="var(--band5)"/>
<rect x="533" y="76" width="13" height="60" fill="var(--band1)"/>
<rect x="533" y="136" width="13" height="80" fill="var(--band2)"/>
<rect x="533" y="216" width="13" height="80" fill="var(--band3)"/>
<rect x="533" y="296" width="13" height="75" fill="var(--band4)"/>
<rect x="533" y="371" width="13" height="60" fill="var(--band5)"/>
<rect x="546" y="76" width="13" height="75" fill="var(--band1)"/>
<rect x="546" y="151" width="13" height="70" fill="var(--band2)"/>
<rect x="546" y="221" width="13" height="80" fill="var(--band3)"/>
<rect x="546" y="301" width="13" height="65" fill="var(--band4)"/>
<rect x="546" y="366" width="13" height="65" fill="var(--band5)"/>
<rect x="559" y="76" width="13" height="80" fill="var(--band1)"/>
<rect x="559" y="156" width="13" height="80" fill="var(--band2)"/>
<rect x="559" y="236" width="13" height="80" fill="var(--band3)"/>
<rect x="559" y="316" width="13" height="70" fill="var(--band4)"/>
<rect x="559" y="386" width="13" height="45" fill="var(--band5)"/>
<rect x="572" y="76" width="13" height="80" fill="var(--band1)"/>
<rect x="572" y="156" width="13" height="80" fill="var(--band2)"/>
<rect x="572" y="236" width="13" height="80" fill="var(--band3)"/>
<rect x="572" y="316" width="13" height="75" fill="var(--band4)"/>
<rect x="572" y="391" width="13" height="40" fill="var(--band5)"/>
<rect x="585" y="76" width="13" height="80" fill="var(--band1)"/>
<rect x="585" y="156" width="13" height="80" fill="var(--band2)"/>
<rect x="585" y="236" width="13" height="80" fill="var(--band3)"/>
<rect x="585" y="316" width="13" height="70" fill="var(--band4)"/>
<rect x="585" y="386" width="13" height="45" fill="var(--band5)"/>
<rect x="598" y="76" width="13" height="80" fill="var(--band1)"/>
<rect x="598" y="156" width="13" height="80" fill="var(--band2)"/>
<rect x="598" y="236" width="13" height="80" fill="var(--band3)"/>
<rect x="598" y="316" width="13" height="80" fill="var(--band4)"/>
<rect x="598" y="396" width="13" height="35" fill="var(--band5)"/>
<rect x="611" y="76" width="13" height="80" fill="var(--band1)"/>
<rect x="611" y="156" width="13" height="80" fill="var(--band2)"/>
<rect x="611" y="236" width="13" height="80" fill="var(--band3)"/>
<rect x="611" y="316" width="13" height="80" fill="var(--band4)"/>
<rect x="611" y="396" width="13" height="35" fill="var(--band5)"/>
<rect x="624" y="76" width="13" height="80" fill="var(--band1)"/>
<rect x="624" y="156" width="13" height="80" fill="var(--band2)"/>
<rect x="624" y="236" width="13" height="80" fill="var(--band3)"/>
<rect x="624" y="316" width="13" height="80" fill="var(--band4)"/>
<rect x="624" y="396" width="13" height="35" fill="var(--band5)"/>
<rect x="637" y="76" width="13" height="80" fill="var(--band1)"/>
<rect x="637" y="156" width="13" height="80" fill="var(--band2)"/>
<rect x="637" y="236" width="13" height="80" fill="var(--band3)"/>
<rect x="637" y="316" width="13" height="80" fill="var(--band4)"/>
<rect x="637" y="396" width="13" height="35" fill="var(--band5)"/>
<rect x="650" y="76" width="13" height="80" fill="var(--band1)"/>
<rect x="650" y="156" width="13" height="80" fill="var(--band2)"/>
<rect x="650" y="236" width="13" height="80" fill="var(--band3)"/>
<rect x="650" y="316" width="13" height="80" fill="var(--band4)"/>
<rect x="650" y="396" width="13" height="35" fill="var(--band5)"/>
<rect x="663" y="76" width="13" height="80" fill="var(--band1)"/>
<rect x="663" y="156" width="13" height="80" fill="var(--band2)"/>
<rect x="663" y="236" width="13" height="80" fill="var(--band3)"/>
<rect x="663" y="316" width="13" height="80" fill="var(--band4)"/>
<rect x="663" y="396" width="13" height="35" fill="var(--band5)"/>
<rect x="676" y="76" width="13" height="80" fill="var(--band1)"/>
<rect x="676" y="156" width="13" height="80" fill="var(--band2)"/>
<rect x="676" y="236" width="13" height="80" fill="var(--band3)"/>
<rect x="676" y="316" width="13" height="80" fill="var(--band4)"/>
<rect x="676" y="396" width="13" height="35" fill="var(--band5)"/>
<rect x="689" y="76" width="13" height="90" fill="var(--band1)"/>
<rect x="689" y="166" width="13" height="85" fill="var(--band2)"/>
<rect x="689" y="251" width="13" height="75" fill="var(--band3)"/>
<rect x="689" y="326" width="13" height="80" fill="var(--band4)"/>
<rect x="689" y="406" width="13" height="25" fill="var(--band5)"/>
<rect x="702" y="76" width="13" height="80" fill="var(--band1)"/>
<rect x="702" y="156" width="13" height="60" fill="var(--band2)"/>
<rect x="702" y="216" width="13" height="70" fill="var(--band3)"/>
<rect x="702" y="286" width="13" height="70" fill="var(--band4)"/>
<rect x="702" y="356" width="13" height="75" fill="var(--band5)"/>
<rect x="715" y="76" width="13" height="70" fill="var(--band1)"/>
<rect x="715" y="146" width="13" height="70" fill="var(--band2)"/>
<rect x="715" y="216" width="13" height="70" fill="var(--band3)"/>
<rect x="715" y="286" width="13" height="70" fill="var(--band4)"/>
<rect x="715" y="356" width="13" height="75" fill="var(--band5)"/>
<rect x="728" y="76" width="13" height="80" fill="var(--band1)"/>
<rect x="728" y="156" width="13" height="80" fill="var(--band2)"/>
<rect x="728" y="236" width="13" height="80" fill="var(--band3)"/>
<rect x="728" y="316" width="13" height="70" fill="var(--band4)"/>
<rect x="728" y="386" width="13" height="45" fill="var(--band5)"/>
<rect x="741" y="76" width="13" height="80" fill="var(--band1)"/>
<rect x="741" y="156" width="13" height="80" fill="var(--band2)"/>
<rect x="741" y="236" width="13" height="70" fill="var(--band3)"/>
<rect x="741" y="306" width="13" height="70" fill="var(--band4)"/>
<rect x="741" y="376" width="13" height="55" fill="var(--band5)"/>
<rect x="754" y="76" width="13" height="80" fill="var(--band1)"/>
<rect x="754" y="156" width="13" height="80" fill="var(--band2)"/>
<rect x="754" y="236" width="13" height="70" fill="var(--band3)"/>
<rect x="754" y="306" width="13" height="70" fill="var(--band4)"/>
<rect x="754" y="376" width="13" height="55" fill="var(--band5)"/>
<rect x="767" y="76" width="13" height="80" fill="var(--band1)"/>
<rect x="767" y="156" width="13" height="80" fill="var(--band2)"/>
<rect x="767" y="236" width="13" height="70" fill="var(--band3)"/>
<rect x="767" y="306" width="13" height="70" fill="var(--band4)"/>
<rect x="767" y="376" width="13" height="55" fill="var(--band5)"/>
<rect x="780" y="76" width="13" height="80" fill="var(--band1)"/>
<rect x="780" y="156" width="13" height="80" fill="var(--band2)"/>
<rect x="780" y="236" width="13" height="70" fill="var(--band3)"/>
<rect x="780" y="306" width="13" height="70" fill="var(--band4)"/>
<rect x="780" y="376" width="13" height="55" fill="var(--band5)"/>
<rect x="793" y="76" width="13" height="80" fill="var(--band1)"/>
<rect x="793" y="156" width="13" height="80" fill="var(--band2)"/>
<rect x="793" y="236" width="13" height="70" fill="var(--band3)"/>
<rect x="793" y="306" width="13" height="70" fill="var(--band4)"/>
<rect x="793" y="376" width="13" height="55" fill="var(--band5)"/>
<rect x="806" y="76" width="13" height="80" fill="var(--band1)"/>
<rect x="806" y="156" width="13" height="80" fill="var(--band2)"/>
<rect x="806" y="236" width="13" height="70" fill="var(--band3)"/>
<rect x="806" y="306" width="13" height="70" fill="var(--band4)"/>
<rect x="806" y="376" width="13" height="55" fill="var(--band5)"/>
<rect x="819" y="76" width="13" height="80" fill="var(--band1)"/>
<rect x="819" y="156" width="13" height="80" fill="var(--band2)"/>
<rect x="819" y="236" width="13" height="70" fill="var(--band3)"/>
<rect x="819" y="306" width="13" height="70" fill="var(--band4)"/>
<rect x="819" y="376" width="13" height="55" fill="var(--band5)"/>
<rect x="832" y="76" width="13" height="80" fill="var(--band1)"/>
<rect x="832" y="156" width="13" height="80" fill="var(--band2)"/>
<rect x="832" y="236" width="13" height="70" fill="var(--band3)"/>
<rect x="832" y="306" width="13" height="70" fill="var(--band4)"/>
<rect x="832" y="376" width="13" height="55" fill="var(--band5)"/>
<rect x="845" y="76" width="13" height="70" fill="var(--band1)"/>
<rect x="845" y="146" width="13" height="70" fill="var(--band2)"/>
<rect x="845" y="216" width="13" height="80" fill="var(--band3)"/>
<rect x="845" y="296" width="13" height="70" fill="var(--band4)"/>
<rect x="845" y="366" width="13" height="65" fill="var(--band5)"/>
<rect x="858" y="76" width="13" height="70" fill="var(--band1)"/>
<rect x="858" y="146" width="13" height="70" fill="var(--band2)"/>
<rect x="858" y="216" width="13" height="80" fill="var(--band3)"/>
<rect x="858" y="296" width="13" height="70" fill="var(--band4)"/>
<rect x="858" y="366" width="13" height="65" fill="var(--band5)"/>
<rect x="871" y="76" width="13" height="60" fill="var(--band1)"/>
<rect x="871" y="136" width="13" height="80" fill="var(--band2)"/>
<rect x="871" y="216" width="13" height="80" fill="var(--band3)"/>
<rect x="871" y="296" width="13" height="80" fill="var(--band4)"/>
<rect x="871" y="376" width="13" height="55" fill="var(--band5)"/>
<rect x="884" y="76" width="13" height="60" fill="var(--band1)"/>
<rect x="884" y="136" width="13" height="80" fill="var(--band2)"/>
<rect x="884" y="216" width="13" height="80" fill="var(--band3)"/>
<rect x="884" y="296" width="13" height="80" fill="var(--band4)"/>
<rect x="884" y="376" width="13" height="55" fill="var(--band5)"/>
<rect x="897" y="76" width="13" height="60" fill="var(--band1)"/>
<rect x="897" y="136" width="13" height="80" fill="var(--band2)"/>
<rect x="897" y="216" width="13" height="80" fill="var(--band3)"/>
<rect x="897" y="296" width="13" height="80" fill="var(--band4)"/>
<rect x="897" y="376" width="13" height="55" fill="var(--band5)"/>
<rect x="910" y="76" width="13" height="60" fill="var(--band1)"/>
<rect x="910" y="136" width="13" height="80" fill="var(--band2)"/>
<rect x="910" y="216" width="13" height="80" fill="var(--band3)"/>
<rect x="910" y="296" width="13" height="80" fill="var(--band4)"/>
<rect x="910" y="376" width="13" height="55" fill="var(--band5)"/>
<rect x="923" y="76" width="13" height="70" fill="var(--band1)"/>
<rect x="923" y="146" width="13" height="80" fill="var(--band2)"/>
<rect x="923" y="226" width="13" height="80" fill="var(--band3)"/>
<rect x="923" y="306" width="13" height="80" fill="var(--band4)"/>
<rect x="923" y="386" width="13" height="45" fill="var(--band5)"/>
<rect x="936" y="76" width="13" height="80" fill="var(--band1)"/>
<rect x="936" y="156" width="13" height="80" fill="var(--band2)"/>
<rect x="936" y="236" width="13" height="80" fill="var(--band3)"/>
<rect x="936" y="316" width="13" height="80" fill="var(--band4)"/>
<rect x="936" y="396" width="13" height="35" fill="var(--band5)"/>
<rect x="949" y="76" width="13" height="80" fill="var(--band1)"/>
<rect x="949" y="156" width="13" height="80" fill="var(--band2)"/>
<rect x="949" y="236" width="13" height="80" fill="var(--band3)"/>
<rect x="949" y="316" width="13" height="80" fill="var(--band4)"/>
<rect x="949" y="396" width="13" height="35" fill="var(--band5)"/>
<rect x="962" y="76" width="13" height="80" fill="var(--band1)"/>
<rect x="962" y="156" width="13" height="80" fill="var(--band2)"/>
<rect x="962" y="236" width="13" height="80" fill="var(--band3)"/>
<rect x="962" y="316" width="13" height="80" fill="var(--band4)"/>
<rect x="962" y="396" width="13" height="35" fill="var(--band5)"/>
<rect x="975" y="76" width="13" height="80" fill="var(--band1)"/>
<rect x="975" y="156" width="13" height="80" fill="var(--band2)"/>
<rect x="975" y="236" width="13" height="80" fill="var(--band3)"/>
<rect x="975" y="316" width="13" height="80" fill="var(--band4)"/>
<rect x="975" y="396" width="13" height="35" fill="var(--band5)"/>
<rect x="988" y="76" width="13" height="80" fill="var(--band1)"/>
<rect x="988" y="156" width="13" height="80" fill="var(--band2)"/>
<rect x="988" y="236" width="13" height="80" fill="var(--band3)"/>
<rect x="988" y="316" width="13" height="80" fill="var(--band4)"/>
<rect x="988" y="396" width="13" height="35" fill="var(--band5)"/>
<rect x="1001" y="76" width="13" height="70" fill="var(--band1)"/>
<rect x="1001" y="146" width="13" height="50" fill="var(--band2)"/>
<rect x="1001" y="196" width="13" height="60" fill="var(--band3)"/>
<rect x="1001" y="256" width="13" height="70" fill="var(--band4)"/>
<rect x="1001" y="326" width="13" height="105" fill="var(--band5)"/>
<rect x="1014" y="76" width="13" height="60" fill="var(--band1)"/>
<rect x="1014" y="136" width="13" height="60" fill="var(--band2)"/>
<rect x="1014" y="196" width="13" height="60" fill="var(--band3)"/>
<rect x="1014" y="256" width="13" height="75" fill="var(--band4)"/>
<rect x="1014" y="331" width="13" height="100" fill="var(--band5)"/>
<rect x="1027" y="76" width="13" height="60" fill="var(--band1)"/>
<rect x="1027" y="136" width="13" height="60" fill="var(--band2)"/>
<rect x="1027" y="196" width="13" height="60" fill="var(--band3)"/>
<rect x="1027" y="256" width="13" height="75" fill="var(--band4)"/>
<rect x="1027" y="331" width="13" height="100" fill="var(--band5)"/>
<rect x="1040" y="76" width="13" height="60" fill="var(--band1)"/>
<rect x="1040" y="136" width="13" height="60" fill="var(--band2)"/>
<rect x="1040" y="196" width="13" height="60" fill="var(--band3)"/>
<rect x="1040" y="256" width="13" height="70" fill="var(--band4)"/>
<rect x="1040" y="326" width="13" height="105" fill="var(--band5)"/>
<rect x="1053" y="76" width="13" height="60" fill="var(--band1)"/>
<rect x="1053" y="136" width="13" height="60" fill="var(--band2)"/>
<rect x="1053" y="196" width="13" height="60" fill="var(--band3)"/>
<rect x="1053" y="256" width="13" height="70" fill="var(--band4)"/>
<rect x="1053" y="326" width="13" height="105" fill="var(--band5)"/>
<rect x="1066" y="76" width="13" height="60" fill="var(--band1)"/>
<rect x="1066" y="136" width="13" height="60" fill="var(--band2)"/>
<rect x="1066" y="196" width="13" height="60" fill="var(--band3)"/>
<rect x="1066" y="256" width="13" height="70" fill="var(--band4)"/>
<rect x="1066" y="326" width="13" height="105" fill="var(--band5)"/>
<rect x="1079" y="76" width="13" height="60" fill="var(--band1)"/>
<rect x="1079" y="136" width="13" height="60" fill="var(--band2)"/>
<rect x="1079" y="196" width="13" height="60" fill="var(--band3)"/>
<rect x="1079" y="256" width="13" height="70" fill="var(--band4)"/>
<rect x="1079" y="326" width="13" height="105" fill="var(--band5)"/>
<rect x="1092" y="76" width="13" height="60" fill="var(--band1)"/>
<rect x="1092" y="136" width="13" height="60" fill="var(--band2)"/>
<rect x="1092" y="196" width="13" height="60" fill="var(--band3)"/>
<rect x="1092" y="256" width="13" height="70" fill="var(--band4)"/>
<rect x="1092" y="326" width="13" height="105" fill="var(--band5)"/>
<rect x="1105" y="76" width="13" height="60" fill="var(--band1)"/>
<rect x="1105" y="136" width="13" height="60" fill="var(--band2)"/>
<rect x="1105" y="196" width="13" height="60" fill="var(--band3)"/>
<rect x="1105" y="256" width="13" height="70" fill="var(--band4)"/>
<rect x="1105" y="326" width="13" height="105" fill="var(--band5)"/>
<rect x="1118" y="76" width="13" height="60" fill="var(--band1)"/>
<rect x="1118" y="136" width="13" height="60" fill="var(--band2)"/>
<rect x="1118" y="196" width="13" height="60" fill="var(--band3)"/>
<rect x="1118" y="256" width="13" height="70" fill="var(--band4)"/>
<rect x="1118" y="326" width="13" height="105" fill="var(--band5)"/>
<rect x="1131" y="76" width="13" height="80" fill="var(--band1)"/>
<rect x="1131" y="156" width="13" height="80" fill="var(--band2)"/>
<rect x="1131" y="236" width="13" height="80" fill="var(--band3)"/>
<rect x="1131" y="316" width="13" height="80" fill="var(--band4)"/>
<rect x="1131" y="396" width="13" height="35" fill="var(--band5)"/>
<rect x="1144" y="76" width="13" height="80" fill="var(--band1)"/>
<rect x="1144" y="156" width="13" height="80" fill="var(--band2)"/>
<rect x="1144" y="236" width="13" height="80" fill="var(--band3)"/>
<rect x="1144" y="316" width="13" height="80" fill="var(--band4)"/>
<rect x="1144" y="396" width="13" height="35" fill="var(--band5)"/>
<rect x="1157" y="76" width="13" height="80" fill="var(--band1)"/>
<rect x="1157" y="156" width="13" height="80" fill="var(--band2)"/>
<rect x="1157" y="236" width="13" height="80" fill="var(--band3)"/>
<rect x="1157" y="316" width="13" height="80" fill="var(--band4)"/>
<rect x="1157" y="396" width="13" height="35" fill="var(--band5)"/>
<rect x="1170" y="76" width="13" height="70" fill="var(--band1)"/>
<rect x="1170" y="146" width="13" height="80" fill="var(--band2)"/>
<rect x="1170" y="226" width="13" height="80" fill="var(--band3)"/>
<rect x="1170" y="306" width="13" height="80" fill="var(--band4)"/>
<rect x="1170" y="386" width="13" height="45" fill="var(--band5)"/>
<rect x="1183" y="76" width="13" height="70" fill="var(--band1)"/>
<rect x="1183" y="146" width="13" height="80" fill="var(--band2)"/>
<rect x="1183" y="226" width="13" height="80" fill="var(--band3)"/>
<rect x="1183" y="306" width="13" height="80" fill="var(--band4)"/>
<rect x="1183" y="386" width="13" height="45" fill="var(--band5)"/>
<rect x="1196" y="76" width="13" height="70" fill="var(--band1)"/>
<rect x="1196" y="146" width="13" height="80" fill="var(--band2)"/>
<rect x="1196" y="226" width="13" height="80" fill="var(--band3)"/>
<rect x="1196" y="306" width="13" height="80" fill="var(--band4)"/>
<rect x="1196" y="386" width="13" height="45" fill="var(--band5)"/>
<rect x="1209" y="76" width="13" height="70" fill="var(--band1)"/>
<rect x="1209" y="146" width="13" height="80" fill="var(--band2)"/>
<rect x="1209" y="226" width="13" height="80" fill="var(--band3)"/>
<rect x="1209" y="306" width="13" height="80" fill="var(--band4)"/>
<rect x="1209" y="386" width="13" height="45" fill="var(--band5)"/>
<rect x="1222" y="76" width="13" height="70" fill="var(--band1)"/>
<rect x="1222" y="146" width="13" height="80" fill="var(--band2)"/>
<rect x="1222" y="226" width="13" height="80" fill="var(--band3)"/>
<rect x="1222" y="306" width="13" height="80" fill="var(--band4)"/>
<rect x="1222" y="386" width="13" height="45" fill="var(--band5)"/>
<rect x="1235" y="76" width="13" height="70" fill="var(--band1)"/>
<rect x="1235" y="146" width="13" height="80" fill="var(--band2)"/>
<rect x="1235" y="226" width="13" height="80" fill="var(--band3)"/>
<rect x="1235" y="306" width="13" height="80" fill="var(--band4)"/>
<rect x="1235" y="386" width="13" height="45" fill="var(--band5)"/>
<rect x="1248" y="76" width="13" height="70" fill="var(--band1)"/>
<rect x="1248" y="146" width="13" height="80" fill="var(--band2)"/>
<rect x="1248" y="226" width="13" height="80" fill="var(--band3)"/>
<rect x="1248" y="306" width="13" height="80" fill="var(--band4)"/>
<rect x="1248" y="386" width="13" height="45" fill="var(--band5)"/>
<rect x="1261" y="76" width="13" height="70" fill="var(--band1)"/>
<rect x="1261" y="146" width="13" height="80" fill="var(--band2)"/>
<rect x="1261" y="226" width="13" height="80" fill="var(--band3)"/>
<rect x="1261" y="306" width="13" height="80" fill="var(--band4)"/>
<rect x="1261" y="386" width="13" height="45" fill="var(--band5)"/>
<rect x="1274" y="76" width="13" height="70" fill="var(--band1)"/>
<rect x="1274" y="146" width="13" height="80" fill="var(--band2)"/>
<rect x="1274" y="226" width="13" height="45" fill="var(--band3)"/>
<rect x="1274" y="271" width="13" height="45" fill="var(--band4)"/>
<rect x="1274" y="316" width="13" height="115" fill="var(--band5)"/>
<rect x="1287" y="76" width="13" height="70" fill="var(--band1)"/>
<rect x="1287" y="146" width="13" height="80" fill="var(--band2)"/>
<rect x="1287" y="226" width="13" height="80" fill="var(--band3)"/>
<rect x="1287" y="306" width="13" height="80" fill="var(--band4)"/>
<rect x="1287" y="386" width="13" height="45" fill="var(--band5)"/>
<rect x="1300" y="76" width="13" height="70" fill="var(--band1)"/>
<rect x="1300" y="146" width="13" height="80" fill="var(--band2)"/>
<rect x="1300" y="226" width="13" height="80" fill="var(--band3)"/>
<rect x="1300" y="306" width="13" height="80" fill="var(--band4)"/>
<rect x="1300" y="386" width="13" height="45" fill="var(--band5)"/>
<rect x="1313" y="76" width="13" height="70" fill="var(--band1)"/>
<rect x="1313" y="146" width="13" height="80" fill="var(--band2)"/>
<rect x="1313" y="226" width="13" height="80" fill="var(--band3)"/>
<rect x="1313" y="306" width="13" height="80" fill="var(--band4)"/>
<rect x="1313" y="386" width="13" height="45" fill="var(--band5)"/>
<rect x="1326" y="76" width="13" height="70" fill="var(--band1)"/>
<rect x="1326" y="146" width="13" height="80" fill="var(--band2)"/>
<rect x="1326" y="226" width="13" height="80" fill="var(--band3)"/>
<rect x="1326" y="306" width="13" height="80" fill="var(--band4)"/>
<rect x="1326" y="386" width="13" height="45" fill="var(--band5)"/>
<rect x="1339" y="76" width="13" height="70" fill="var(--band1)"/>
<rect x="1339" y="146" width="13" height="80" fill="var(--band2)"/>
<rect x="1339" y="226" width="13" height="80" fill="var(--band3)"/>
<rect x="1339" y="306" width="13" height="80" fill="var(--band4)"/>
<rect x="1339" y="386" width="13" height="45" fill="var(--band5)"/>
<rect x="104" y="76" width="13" height="355" fill="url(#notplayed)" fill-opacity=".8"/>
<rect x="117" y="76" width="13" height="355" fill="url(#notplayed)" fill-opacity=".8"/>
<rect x="143" y="76" width="13" height="355" fill="url(#notplayed)" fill-opacity=".8"/>
<rect class="area" x="156" y="106" width="13" height="325"/>
<rect class="area" x="169" y="116" width="13" height="315"/>
<rect x="182" y="186" width="13" height="245" fill="url(#uncovered)"/>
<rect x="195" y="126" width="13" height="305" fill="url(#uncovered)"/>
<rect class="area" x="208" y="141" width="13" height="290"/>
<rect class="area" x="221" y="76" width="13" height="355" fill-opacity=".07"/>
<rect class="area" x="234" y="126" width="13" height="305" fill-opacity=".07"/>
<rect x="247" y="76" width="13" height="355" fill="url(#notplayed)" fill-opacity=".8"/>
<rect class="area" x="260" y="121" width="13" height="310" fill-opacity=".07"/>
<rect x="273" y="76" width="13" height="355" fill="url(#notplayed)" fill-opacity=".8"/>
<rect class="area" x="286" y="81" width="13" height="350"/>
<rect class="area" x="299" y="81" width="13" height="350" fill-opacity=".07"/>
<rect x="312" y="76" width="13" height="355" fill="url(#notplayed)" fill-opacity=".8"/>
<rect class="area" x="325" y="106" width="13" height="325"/>
<rect x="338" y="76" width="13" height="355" fill="url(#notplayed)" fill-opacity=".8"/>
<rect x="351" y="76" width="13" height="355" fill="url(#notplayed)" fill-opacity=".8"/>
<rect class="area" x="364" y="111" width="13" height="320"/>
<rect x="377" y="76" width="13" height="355" fill="url(#notplayed)" fill-opacity=".8"/>
<rect class="area" x="390" y="101" width="13" height="330"/>
<rect x="403" y="76" width="13" height="355" fill="url(#notplayed)" fill-opacity=".8"/>
<rect class="area" x="416" y="96" width="13" height="335"/>
<rect class="area" x="429" y="111" width="13" height="320"/>
<rect class="area" x="442" y="126" width="13" height="305"/>
<rect class="area" x="455" y="131" width="13" height="300"/>
<rect class="area" x="468" y="166" width="13" height="265"/>
<rect class="area" x="481" y="176" width="13" height="255"/>
<rect class="area" x="494" y="196" width="13" height="235"/>
<rect class="area" x="507" y="261" width="13" height="170" fill-opacity=".07"/>
<rect class="area" x="520" y="261" width="13" height="170" fill-opacity=".07"/>
<rect class="area" x="533" y="261" width="13" height="170" fill-opacity=".07"/>
<rect class="area" x="546" y="241" width="13" height="190" fill-opacity=".07"/>
<rect class="area" x="559" y="241" width="13" height="190" fill-opacity=".07"/>
<rect class="area" x="572" y="246" width="13" height="185" fill-opacity=".07"/>
<rect class="area" x="585" y="241" width="13" height="190" fill-opacity=".07"/>
<rect class="area" x="598" y="251" width="13" height="180" fill-opacity=".07"/>
<rect class="area" x="611" y="256" width="13" height="175" fill-opacity=".07"/>
<rect class="area" x="624" y="286" width="13" height="145" fill-opacity=".07"/>
<rect class="area" x="637" y="296" width="13" height="135" fill-opacity=".07"/>
<rect class="area" x="650" y="281" width="13" height="150" fill-opacity=".07"/>
<rect class="area" x="663" y="306" width="13" height="125" fill-opacity=".07"/>
<rect x="676" y="396" width="13" height="35" fill="url(#uncovered)"/>
<rect x="689" y="406" width="13" height="25" fill="url(#uncovered)"/>
<rect class="area" x="702" y="341" width="13" height="90" fill-opacity=".07"/>
<rect class="area" x="715" y="321" width="13" height="110" fill-opacity=".07"/>
<rect class="area" x="728" y="341" width="13" height="90" fill-opacity=".07"/>
<rect class="area" x="741" y="341" width="13" height="90" fill-opacity=".07"/>
<rect class="area" x="754" y="361" width="13" height="70" fill-opacity=".07"/>
<rect class="area" x="767" y="341" width="13" height="90" fill-opacity=".07"/>
<rect class="area" x="780" y="321" width="13" height="110" fill-opacity=".07"/>
<rect class="area" x="793" y="351" width="13" height="80" fill-opacity=".07"/>
<rect class="area" x="806" y="326" width="13" height="105" fill-opacity=".07"/>
<rect class="area" x="819" y="326" width="13" height="105" fill-opacity=".07"/>
<rect class="area" x="832" y="341" width="13" height="90" fill-opacity=".07"/>
<rect class="area" x="845" y="331" width="13" height="100" fill-opacity=".07"/>
<rect class="area" x="858" y="326" width="13" height="105" fill-opacity=".07"/>
<rect x="871" y="376" width="13" height="55" fill="url(#uncovered)"/>
<rect x="884" y="376" width="13" height="55" fill="url(#uncovered)"/>
<rect x="897" y="376" width="13" height="55" fill="url(#uncovered)"/>
<rect x="910" y="376" width="13" height="55" fill="url(#uncovered)"/>
<rect x="923" y="386" width="13" height="45" fill="url(#uncovered)"/>
<rect class="area" x="936" y="371" width="13" height="60" fill-opacity=".07"/>
<rect x="949" y="396" width="13" height="35" fill="url(#uncovered)"/>
<rect x="962" y="396" width="13" height="35" fill="url(#uncovered)"/>
<rect x="975" y="396" width="13" height="35" fill="url(#uncovered)"/>
<rect x="988" y="396" width="13" height="35" fill="url(#uncovered)"/>
<rect x="1001" y="326" width="13" height="105" fill="url(#uncovered)"/>
<rect x="1014" y="331" width="13" height="100" fill="url(#uncovered)"/>
<rect x="1027" y="331" width="13" height="100" fill="url(#uncovered)"/>
<rect x="1040" y="326" width="13" height="105" fill="url(#uncovered)"/>
<rect x="1053" y="326" width="13" height="105" fill="url(#uncovered)"/>
<rect x="1066" y="326" width="13" height="105" fill="url(#uncovered)"/>
<rect x="1079" y="326" width="13" height="105" fill="url(#uncovered)"/>
<rect x="1092" y="326" width="13" height="105" fill="url(#uncovered)"/>
<rect x="1105" y="326" width="13" height="105" fill="url(#uncovered)"/>
<rect x="1118" y="326" width="13" height="105" fill="url(#uncovered)"/>
<rect x="1131" y="396" width="13" height="35" fill="url(#uncovered)"/>
<rect x="1144" y="396" width="13" height="35" fill="url(#uncovered)"/>
<rect x="1157" y="396" width="13" height="35" fill="url(#uncovered)"/>
<rect x="1170" y="386" width="13" height="45" fill="url(#uncovered)"/>
<rect x="1183" y="386" width="13" height="45" fill="url(#uncovered)"/>
<rect x="1196" y="386" width="13" height="45" fill="url(#uncovered)"/>
<rect x="1209" y="386" width="13" height="45" fill="url(#uncovered)"/>
<rect x="1222" y="386" width="13" height="45" fill="url(#uncovered)"/>
<path class="line" d="M156 106h13"/>
<path class="line" d="M169 106V116"/>
<path class="line" d="M169 116h13"/>
<path class="line" d="M208 141h13"/>
<path class="line" d="M221 141V76"/>
<path class="line" d="M221 76h13" stroke-dasharray="3 2"/>
<path class="line" d="M234 76V126"/>
<path class="line" d="M234 126h13" stroke-dasharray="3 2"/>
<path class="line" d="M260 121h13" stroke-dasharray="3 2"/>
<path class="line" d="M286 81h13"/>
<path class="line" d="M299 81h13" stroke-dasharray="3 2"/>
<path class="line" d="M325 106h13"/>
<path class="line" d="M364 111h13"/>
<path class="line" d="M390 101h13"/>
<path class="line" d="M416 96h13"/>
<path class="line" d="M429 96V111"/>
<path class="line" d="M429 111h13"/>
<path class="line" d="M442 111V126"/>
<path class="line" d="M442 126h13"/>
<path class="line" d="M455 126V131"/>
<path class="line" d="M455 131h13"/>
<path class="line" d="M468 131V166"/>
<path class="line" d="M468 166h13"/>
<path class="line" d="M481 166V176"/>
<path class="line" d="M481 176h13"/>
<path class="line" d="M494 176V196"/>
<path class="line" d="M494 196h13"/>
<path class="line" d="M507 196V261"/>
<path class="line" d="M507 261h13" stroke-dasharray="3 2"/>
<path class="line" d="M520 261h13" stroke-dasharray="3 2"/>
<path class="line" d="M533 261h13" stroke-dasharray="3 2"/>
<path class="line" d="M546 261V241"/>
<path class="line" d="M546 241h13" stroke-dasharray="3 2"/>
<path class="line" d="M559 241h13" stroke-dasharray="3 2"/>
<path class="line" d="M572 241V246"/>
<path class="line" d="M572 246h13" stroke-dasharray="3 2"/>
<path class="line" d="M585 246V241"/>
<path class="line" d="M585 241h13" stroke-dasharray="3 2"/>
<path class="line" d="M598 241V251"/>
<path class="line" d="M598 251h13" stroke-dasharray="3 2"/>
<path class="line" d="M611 251V256"/>
<path class="line" d="M611 256h13" stroke-dasharray="3 2"/>
<path class="line" d="M624 256V286"/>
<path class="line" d="M624 286h13" stroke-dasharray="3 2"/>
<path class="line" d="M637 286V296"/>
<path class="line" d="M637 296h13" stroke-dasharray="3 2"/>
<path class="line" d="M650 296V281"/>
<path class="line" d="M650 281h13" stroke-dasharray="3 2"/>
<path class="line" d="M663 281V306"/>
<path class="line" d="M663 306h13" stroke-dasharray="3 2"/>
<path class="line" d="M702 341h13" stroke-dasharray="3 2"/>
<path class="line" d="M715 341V321"/>
<path class="line" d="M715 321h13" stroke-dasharray="3 2"/>
<path class="line" d="M728 321V341"/>
<path class="line" d="M728 341h13" stroke-dasharray="3 2"/>
<path class="line" d="M741 341h13" stroke-dasharray="3 2"/>
<path class="line" d="M754 341V361"/>
<path class="line" d="M754 361h13" stroke-dasharray="3 2"/>
<path class="line" d="M767 361V341"/>
<path class="line" d="M767 341h13" stroke-dasharray="3 2"/>
<path class="line" d="M780 341V321"/>
<path class="line" d="M780 321h13" stroke-dasharray="3 2"/>
<path class="line" d="M793 321V351"/>
<path class="line" d="M793 351h13" stroke-dasharray="3 2"/>
<path class="line" d="M806 351V326"/>
<path class="line" d="M806 326h13" stroke-dasharray="3 2"/>
<path class="line" d="M819 326h13" stroke-dasharray="3 2"/>
<path class="line" d="M832 326V341"/>
<path class="line" d="M832 341h13" stroke-dasharray="3 2"/>
<path class="line" d="M845 341V331"/>
<path class="line" d="M845 331h13" stroke-dasharray="3 2"/>
<path class="line" d="M858 331V326"/>
<path class="line" d="M858 326h13" stroke-dasharray="3 2"/>
<path class="line" d="M936 371h13" stroke-dasharray="3 2"/>
<text class="ink2" x="93" y="114.0" text-anchor="end" font-size="10.5" font-weight="600" letter-spacing=".05em">TIER 1</text>
<text class="ink2" x="93" y="189.0" text-anchor="end" font-size="10.5" font-weight="600" letter-spacing=".05em">TIER 2</text>
<text class="ink2" x="93" y="269.0" text-anchor="end" font-size="10.5" font-weight="600" letter-spacing=".05em">TIER 3</text>
<text class="ink2" x="93" y="349.0" text-anchor="end" font-size="10.5" font-weight="600" letter-spacing=".05em">TIER 4</text>
<text class="ink3" x="93" y="401.5" text-anchor="end" font-size="10.5" letter-spacing=".05em">TIER 5+</text>
<path class="rule" d="M104 431.5h1248" fill="none"/>
<path class="rule" d="M104 431v5" fill="none"/>
<text class="ink3" x="104" y="448" text-anchor="start" font-size="10.5">29/30</text>
<path class="rule" d="M240.5 431v5" fill="none"/>
<text class="ink3" x="240.5" y="448" text-anchor="middle" font-size="10.5">1940</text>
<path class="rule" d="M383.5 431v5" fill="none"/>
<text class="ink3" x="383.5" y="448" text-anchor="middle" font-size="10.5">1950</text>
<path class="rule" d="M513.5 431v5" fill="none"/>
<text class="ink3" x="513.5" y="448" text-anchor="middle" font-size="10.5">1960</text>
<path class="rule" d="M630.5 431v5" fill="none"/>
<text class="ink3" x="630.5" y="448" text-anchor="middle" font-size="10.5">1970</text>
<path class="rule" d="M760.5 431v5" fill="none"/>
<text class="ink3" x="760.5" y="448" text-anchor="middle" font-size="10.5">1980</text>
<path class="rule" d="M890.5 431v5" fill="none"/>
<text class="ink3" x="890.5" y="448" text-anchor="middle" font-size="10.5">1990</text>
<path class="rule" d="M1020.5 431v5" fill="none"/>
<text class="ink3" x="1020.5" y="448" text-anchor="middle" font-size="10.5">2000</text>
<path class="rule" d="M1150.5 431v5" fill="none"/>
<text class="ink3" x="1150.5" y="448" text-anchor="middle" font-size="10.5">2010</text>
<path class="rule" d="M1280.5 431v5" fill="none"/>
<text class="ink3" x="1280.5" y="448" text-anchor="middle" font-size="10.5">2020</text>
<path class="rule" d="M1352 431v5" fill="none"/>
<text class="ink3" x="1352" y="448" text-anchor="end" font-size="10.5">25/26</text>
<text class="ink" x="104" y="33" text-anchor="start" font-size="19" font-weight="600" letter-spacing="-.01em">Maccabi Rehovot</text>
<text class="ink2" x="104" y="54" text-anchor="start" font-size="11.5">12 of 86 seasons in the top flight · best finish 1st</text>
<text class="ink3" x="1352" y="33" text-anchor="end" font-size="9.5" letter-spacing=".08em">LEAGUE POSITION BY SEASON</text>
<path class="line" d="M104 471.5h16"/><rect class="area" x="104" y="471.5" width="16" height="8"/>
<text class="ink2" x="126" y="475" text-anchor="start" font-size="10.5">Final league position</text>
<path class="champ" d="M361.6 467l4 4-4 4-4-4z"/>
<text class="ink2" x="375.6" y="475" text-anchor="start" font-size="10.5">Champions</text>
<path class="line" d="M603.2 471.5h16" stroke-dasharray="3 2"/>
<text class="ink2" x="625.2" y="475" text-anchor="start" font-size="10.5">Regional division — no national rank</text>
<rect x="852.8000000000001" y="466" width="16" height="11" fill="url(#uncovered)"/>
<text class="ink2" x="874.8000000000001" y="475" text-anchor="start" font-size="10.5">No position recorded</text>
<rect x="1102.4" y="466" width="16" height="11" fill="url(#notplayed)" fill-opacity=".8"/>
<text class="ink2" x="1124.4" y="475" text-anchor="start" font-size="10.5">Season not played</text>
</svg>
